%TF.GenerationSoftware,KiCad,Pcbnew,8.0.6*%
%TF.CreationDate,2024-11-13T10:13:59+01:00*%
%TF.ProjectId,5uH_LISN,3575485f-4c49-4534-9e2e-6b696361645f,V1 R0*%
%TF.SameCoordinates,Original*%
%TF.FileFunction,Copper,L1,Top*%
%TF.FilePolarity,Positive*%
%FSLAX46Y46*%
G04 Gerber Fmt 4.6, Leading zero omitted, Abs format (unit mm)*
G04 Created by KiCad (PCBNEW 8.0.6) date 2024-11-13 10:13:59*
%MOMM*%
%LPD*%
G01*
G04 APERTURE LIST*
%TA.AperFunction,ComponentPad*%
%ADD10C,2.050000*%
%TD*%
%TA.AperFunction,ComponentPad*%
%ADD11C,2.250000*%
%TD*%
%TA.AperFunction,ComponentPad*%
%ADD12C,10.000000*%
%TD*%
%TA.AperFunction,ComponentPad*%
%ADD13C,8.000000*%
%TD*%
%TA.AperFunction,ViaPad*%
%ADD14C,0.900000*%
%TD*%
%TA.AperFunction,ViaPad*%
%ADD15C,0.800000*%
%TD*%
G04 APERTURE END LIST*
D10*
%TO.P,J1,1,In*%
%TO.N,Net-(D1-Pad3)*%
X28500000Y37456500D03*
D11*
%TO.P,J1,2,Ext*%
%TO.N,GND*%
X25960000Y39996500D03*
X31040000Y34916500D03*
X25960000Y34916500D03*
X31040000Y39996500D03*
%TD*%
D10*
%TO.P,J2,1,In*%
%TO.N,Net-(D3-Pad3)*%
X28500000Y23000000D03*
D11*
%TO.P,J2,2,Ext*%
%TO.N,GND*%
X25960000Y25540000D03*
X25960000Y20460000D03*
X31040000Y20460000D03*
X31040000Y25540000D03*
%TD*%
D12*
%TO.P,J4,P$1,1*%
%TO.N,GND*%
X15000000Y30200000D03*
%TD*%
D13*
%TO.P,H1,B4\u002C1,MOUNT*%
%TO.N,GND*%
X5150000Y5000000D03*
%TD*%
%TO.P,H2,B4\u002C1,MOUNT*%
%TO.N,GND*%
X5150000Y55500000D03*
%TD*%
%TO.P,H3,B4\u002C1,MOUNT*%
%TO.N,GND*%
X107250000Y55500000D03*
%TD*%
%TO.P,H4,B4\u002C1,MOUNT*%
%TO.N,GND*%
X107250000Y5000000D03*
%TD*%
D12*
%TO.P,J3,P$1,1*%
%TO.N,Net-(C1-Pad1)*%
X15000000Y49260000D03*
%TD*%
%TO.P,J5,P$1,1*%
%TO.N,Net-(C2-Pad1)*%
X15000000Y11140000D03*
%TD*%
%TO.P,J6,P$1,1*%
%TO.N,GND*%
X97400000Y30200000D03*
%TD*%
%TO.P,J7,P$1,1*%
%TO.N,Net-(C15-Pad1)*%
X97400000Y49260000D03*
%TD*%
%TO.P,J8,P$1,1*%
%TO.N,Net-(C16-Pad1)*%
X97400000Y11140000D03*
%TD*%
D14*
%TO.N,GND*%
X11176000Y59436000D03*
X13716000Y59436000D03*
X16256000Y59436000D03*
X18796000Y59436000D03*
X21336000Y59436000D03*
X23876000Y59436000D03*
X26416000Y59436000D03*
X28956000Y59436000D03*
X31496000Y59436000D03*
X34036000Y59436000D03*
X36576000Y59436000D03*
X39116000Y59436000D03*
X41656000Y59436000D03*
X44196000Y59436000D03*
X46736000Y59436000D03*
X49276000Y59436000D03*
X51816000Y59436000D03*
X54356000Y59436000D03*
X56896000Y59436000D03*
X59436000Y59436000D03*
X61976000Y59436000D03*
X64516000Y59436000D03*
X67056000Y59436000D03*
X69596000Y59436000D03*
X72136000Y59436000D03*
X74676000Y59436000D03*
X77216000Y59436000D03*
X79756000Y59436000D03*
X82296000Y59436000D03*
X84836000Y59436000D03*
X87376000Y59436000D03*
X89916000Y59436000D03*
X92456000Y59436000D03*
X94996000Y59436000D03*
X97536000Y59436000D03*
X100076000Y59436000D03*
X102616000Y59436000D03*
X72644000Y1270000D03*
X75184000Y1270000D03*
X26924000Y1270000D03*
X62484000Y1270000D03*
X65024000Y1270000D03*
X87884000Y1270000D03*
X90424000Y1270000D03*
X19304000Y1270000D03*
X32004000Y1270000D03*
X34544000Y1270000D03*
X42164000Y1270000D03*
X44704000Y1270000D03*
X47244000Y1270000D03*
X49784000Y1270000D03*
X21844000Y1270000D03*
X77724000Y1270000D03*
X80264000Y1270000D03*
X103124000Y1270000D03*
X14224000Y1270000D03*
X16764000Y1270000D03*
X9144000Y1270000D03*
X92964000Y1270000D03*
X95504000Y1270000D03*
X82804000Y1270000D03*
X85344000Y1270000D03*
X67564000Y1270000D03*
X70104000Y1270000D03*
X52324000Y1270000D03*
X54864000Y1270000D03*
X29464000Y1270000D03*
X98044000Y1270000D03*
X100584000Y1270000D03*
X24384000Y1270000D03*
X11684000Y1270000D03*
X37084000Y1270000D03*
X39624000Y1270000D03*
X57404000Y1270000D03*
X59944000Y1270000D03*
X65278000Y30226000D03*
X67818000Y30226000D03*
X55118000Y30226000D03*
X57658000Y30226000D03*
X80518000Y30226000D03*
X83058000Y30226000D03*
X27178000Y30226000D03*
X34798000Y30226000D03*
X37338000Y30226000D03*
X39878000Y30226000D03*
X42418000Y30226000D03*
X70358000Y30226000D03*
X72898000Y30226000D03*
X85598000Y30226000D03*
X88138000Y30226000D03*
X75438000Y30226000D03*
X77978000Y30226000D03*
X60198000Y30226000D03*
X62738000Y30226000D03*
X44958000Y30226000D03*
X47498000Y30226000D03*
X90678000Y30226000D03*
X29718000Y30226000D03*
X32258000Y30226000D03*
X50038000Y30226000D03*
X52578000Y30226000D03*
D15*
X60198000Y42164000D03*
X62738000Y42164000D03*
X37338000Y42164000D03*
X72898000Y42164000D03*
X70358000Y42164000D03*
X65278000Y42164000D03*
X57658000Y42164000D03*
X52578000Y42164000D03*
X27178000Y42164000D03*
X39878000Y42164000D03*
X42418000Y42164000D03*
X44958000Y42164000D03*
X47498000Y42164000D03*
X67818000Y42164000D03*
X80518000Y42164000D03*
X24638000Y42164000D03*
X32258000Y42164000D03*
X50038000Y42164000D03*
X29718000Y42164000D03*
X34798000Y42164000D03*
X55118000Y42164000D03*
X75438000Y42164000D03*
X77978000Y42164000D03*
X83058000Y42164000D03*
X62738000Y18288000D03*
X77978000Y18288000D03*
X83058000Y18288000D03*
X65278000Y18288000D03*
X70358000Y18288000D03*
X80518000Y18288000D03*
X24638000Y18288000D03*
X72898000Y18288000D03*
X60198000Y18288000D03*
X57658000Y18288000D03*
X55118000Y18288000D03*
X75438000Y18288000D03*
X29718000Y18288000D03*
X34798000Y18288000D03*
X52578000Y18288000D03*
X39878000Y18288000D03*
X37338000Y18288000D03*
X42418000Y18288000D03*
X47498000Y18288000D03*
X67818000Y18288000D03*
X27178000Y18288000D03*
X32258000Y18288000D03*
X50038000Y18288000D03*
X44958000Y18288000D03*
D14*
X111252000Y52070000D03*
X111252000Y49530000D03*
X111252000Y46990000D03*
X111252000Y44450000D03*
X111252000Y41910000D03*
X111252000Y39370000D03*
X111252000Y36830000D03*
X111252000Y34290000D03*
X111252000Y31750000D03*
X111252000Y29210000D03*
X111252000Y26670000D03*
X111252000Y24130000D03*
X111252000Y21590000D03*
X111252000Y19050000D03*
X111252000Y16510000D03*
X111252000Y13970000D03*
X111252000Y11430000D03*
X111252000Y8890000D03*
X1270000Y31750000D03*
X1270000Y21590000D03*
X1270000Y19050000D03*
X1270000Y11430000D03*
X1270000Y8890000D03*
X1270000Y46990000D03*
X1270000Y41910000D03*
X1270000Y29210000D03*
X1270000Y36830000D03*
X1270000Y44450000D03*
X1270000Y39370000D03*
X1270000Y16510000D03*
X1270000Y13970000D03*
X1270000Y34290000D03*
X1270000Y26670000D03*
X1270000Y24130000D03*
X1270000Y52070000D03*
X1270000Y49530000D03*
D15*
X85344000Y42164000D03*
X85344000Y18288000D03*
X95758000Y42176700D03*
X95758000Y39636700D03*
X95758000Y37096700D03*
X95747840Y18257520D03*
X95747840Y23337520D03*
X95747840Y20797520D03*
X23500000Y32001460D03*
X23489840Y28402280D03*
X23500000Y37081460D03*
X23500000Y39621460D03*
X23500000Y34541460D03*
X23489840Y20782280D03*
X23489840Y23322280D03*
X23500000Y30210760D03*
X23489840Y25862280D03*
D14*
X35650000Y20050000D03*
X105000000Y10000000D03*
X3150000Y49530000D03*
X3150000Y29210000D03*
X5500000Y8000000D03*
X33800000Y20050000D03*
X85600000Y25800000D03*
X82804000Y3100000D03*
X41600000Y34600000D03*
X109150000Y26680000D03*
X3500000Y7500000D03*
X110000000Y54500000D03*
X99000000Y18000000D03*
X59600000Y34650000D03*
X48200000Y34650000D03*
X16764000Y3100000D03*
X52324000Y3100000D03*
X8000000Y54500000D03*
X75800000Y25800000D03*
X85600000Y34650000D03*
X74800000Y34650000D03*
X107500000Y58500000D03*
X110000000Y56500000D03*
X18796000Y57500000D03*
X69750000Y34000000D03*
X105000000Y47500000D03*
X51700000Y34450000D03*
X100000000Y42500000D03*
X47200000Y25800000D03*
X19450000Y23850000D03*
X14800000Y23850000D03*
X110000000Y4000000D03*
X50200000Y34650000D03*
X2500000Y6000000D03*
X2500000Y4000000D03*
X23876000Y57500000D03*
X56896000Y57500000D03*
X91000000Y31700000D03*
X51700000Y19950000D03*
X4950000Y35350000D03*
X3500000Y53000000D03*
X42164000Y3100000D03*
X39600000Y34600000D03*
X57404000Y3100000D03*
X67750000Y19950000D03*
X3150000Y21590000D03*
X44704000Y3100000D03*
X94996000Y57500000D03*
X11684000Y3100000D03*
X31496000Y57500000D03*
X109150000Y47000000D03*
X98044000Y3100000D03*
X19304000Y3100000D03*
X26924000Y3100000D03*
X5500000Y2000000D03*
X2500000Y54500000D03*
X79756000Y57500000D03*
X13850000Y36500000D03*
X8000000Y4000000D03*
X2500000Y56500000D03*
X68800000Y19950000D03*
X109150000Y24140000D03*
X6850000Y25050000D03*
X3150000Y26670000D03*
X89916000Y57500000D03*
X35600000Y34500000D03*
X80264000Y3100000D03*
X109150000Y29220000D03*
X82296000Y57500000D03*
X16256000Y57500000D03*
X48200000Y25800000D03*
X8750000Y35350000D03*
X109150000Y19060000D03*
X5500000Y52500000D03*
X9700000Y35350000D03*
X105000000Y12500000D03*
X97536000Y57500000D03*
X83600000Y25800000D03*
X104500000Y56500000D03*
X85344000Y3100000D03*
X4950000Y25050000D03*
X109150000Y31760000D03*
X103124000Y3100000D03*
X36576000Y57500000D03*
X105500000Y7500000D03*
X77800000Y34650000D03*
X75184000Y3100000D03*
X61976000Y57500000D03*
X102500000Y42500000D03*
X21350000Y23850000D03*
X47200000Y34650000D03*
X37084000Y3100000D03*
X49200000Y25800000D03*
X72136000Y57500000D03*
X65024000Y3100000D03*
X21844000Y3100000D03*
X3150000Y46990000D03*
X74676000Y57500000D03*
X97500000Y42500000D03*
X105000000Y15000000D03*
X102616000Y57500000D03*
X51816000Y57500000D03*
X87884000Y3100000D03*
X3500000Y2500000D03*
X7000000Y7500000D03*
X14224000Y3100000D03*
X41656000Y57500000D03*
X49784000Y3100000D03*
X3150000Y39370000D03*
X109150000Y16520000D03*
X76800000Y25800000D03*
X104000000Y16000000D03*
X49276000Y57500000D03*
X100584000Y3100000D03*
X34036000Y57500000D03*
X87376000Y57500000D03*
X61600000Y25800000D03*
X95504000Y3100000D03*
X72644000Y3100000D03*
X105000000Y50000000D03*
X89950000Y28750000D03*
X77724000Y3100000D03*
X3150000Y13970000D03*
X74800000Y25800000D03*
X68700000Y34000000D03*
X53500000Y19950000D03*
X105000000Y45000000D03*
X88900000Y28750000D03*
X54356000Y57500000D03*
X76800000Y34650000D03*
X67650000Y34000000D03*
X67056000Y57500000D03*
X77800000Y25800000D03*
X67564000Y3100000D03*
X26416000Y57500000D03*
X15750000Y36500000D03*
X64516000Y57500000D03*
X14800000Y36500000D03*
X40600000Y25750000D03*
X104500000Y6000000D03*
X59600000Y25800000D03*
X28956000Y57500000D03*
X105500000Y53000000D03*
X62600000Y25800000D03*
X3150000Y19050000D03*
X8000000Y56500000D03*
X105500000Y58000000D03*
X105500000Y2500000D03*
X110000000Y6000000D03*
X44196000Y57500000D03*
X61600000Y34650000D03*
X97000000Y18000000D03*
X101000000Y18000000D03*
X109150000Y11440000D03*
X6850000Y35350000D03*
X88900000Y31700000D03*
X46736000Y57500000D03*
X29464000Y3100000D03*
X84600000Y25800000D03*
X8636000Y57500000D03*
X107500000Y8000000D03*
X8750000Y25050000D03*
X109150000Y41920000D03*
X3150000Y31750000D03*
X62484000Y3100000D03*
X5900000Y35350000D03*
X40600000Y34600000D03*
X39116000Y57500000D03*
X7000000Y58000000D03*
X38600000Y34600000D03*
X8000000Y6000000D03*
X100076000Y57500000D03*
X3500000Y58000000D03*
X60600000Y25800000D03*
X109150000Y49540000D03*
X7800000Y35350000D03*
X109000000Y53000000D03*
X62600000Y34650000D03*
X109150000Y34300000D03*
X84600000Y34650000D03*
X83600000Y34650000D03*
X109150000Y44460000D03*
X109150000Y21600000D03*
X5900000Y25050000D03*
X7000000Y53000000D03*
X69596000Y57500000D03*
X9144000Y3100000D03*
X92964000Y3100000D03*
X109150000Y39380000D03*
X70104000Y3100000D03*
X90424000Y3100000D03*
X92456000Y57500000D03*
X77216000Y57500000D03*
X103000000Y18000000D03*
X9700000Y25050000D03*
X59944000Y3100000D03*
X11176000Y57500000D03*
X109000000Y58000000D03*
X7000000Y2500000D03*
X38600000Y25750000D03*
X8636000Y59436000D03*
X109000000Y2500000D03*
X41600000Y25750000D03*
X107500000Y2000000D03*
X59436000Y57500000D03*
X50200000Y25800000D03*
X60600000Y34650000D03*
X13716000Y57500000D03*
X75800000Y34650000D03*
X20450000Y36500000D03*
X20400000Y23850000D03*
X69850000Y19950000D03*
X7800000Y25050000D03*
X89950000Y31700000D03*
X39600000Y25750000D03*
X104500000Y4000000D03*
X91000000Y28750000D03*
X84836000Y57500000D03*
X33800000Y34500000D03*
X13850000Y23850000D03*
X53500000Y34450000D03*
X3150000Y36830000D03*
X49200000Y34650000D03*
X54864000Y3100000D03*
X109150000Y36840000D03*
X19500000Y36500000D03*
X34544000Y3100000D03*
X39624000Y3100000D03*
X15750000Y23850000D03*
X3150000Y24130000D03*
X21400000Y36500000D03*
X3150000Y16510000D03*
X3150000Y34290000D03*
X3150000Y11430000D03*
X47244000Y3100000D03*
X21336000Y57500000D03*
X5500000Y58500000D03*
X32004000Y3100000D03*
X86600000Y25800000D03*
X109000000Y7500000D03*
X104500000Y54500000D03*
X3150000Y41910000D03*
X109150000Y13980000D03*
X86600000Y34650000D03*
X24384000Y3100000D03*
X3150000Y44450000D03*
X107500000Y52500000D03*
%TD*%
%TA.AperFunction,Conductor*%
%TO.N,GND*%
G36*
X107371765Y59997680D02*
G01*
X107376305Y59997624D01*
X107393829Y59994896D01*
X107411411Y59997195D01*
X107424466Y59997035D01*
X107446286Y59997979D01*
X107661703Y59988574D01*
X107781338Y59983350D01*
X107802977Y59981457D01*
X108170636Y59933054D01*
X108192028Y59929282D01*
X108414982Y59879855D01*
X108554082Y59849017D01*
X108575057Y59843396D01*
X108928726Y59731884D01*
X108949138Y59724455D01*
X109291736Y59582546D01*
X109311418Y59573369D01*
X109640351Y59402137D01*
X109659162Y59391276D01*
X109971928Y59192023D01*
X109989723Y59179563D01*
X110283922Y58953816D01*
X110300558Y58939856D01*
X110573974Y58689318D01*
X110589318Y58673974D01*
X110738851Y58510787D01*
X110839854Y58400561D01*
X110853816Y58383922D01*
X111079563Y58089723D01*
X111092023Y58071928D01*
X111291276Y57759162D01*
X111302137Y57740351D01*
X111473366Y57411424D01*
X111482546Y57391736D01*
X111624455Y57049138D01*
X111631884Y57028726D01*
X111743396Y56675057D01*
X111749019Y56654074D01*
X111829282Y56292028D01*
X111833054Y56270636D01*
X111881457Y55902977D01*
X111883350Y55881338D01*
X111897615Y55554626D01*
X111897833Y55540721D01*
X111897625Y55523698D01*
X111894896Y55506171D01*
X111897196Y55488583D01*
X111897898Y55483213D01*
X111900000Y55450928D01*
X111900000Y5058223D01*
X111897680Y5028235D01*
X111897624Y5023695D01*
X111894896Y5006171D01*
X111897195Y4988589D01*
X111897035Y4975534D01*
X111897979Y4953714D01*
X111888574Y4738297D01*
X111883350Y4618662D01*
X111881457Y4597023D01*
X111833054Y4229364D01*
X111829282Y4207972D01*
X111749019Y3845926D01*
X111743396Y3824943D01*
X111631884Y3471274D01*
X111624455Y3450862D01*
X111482546Y3108264D01*
X111473366Y3088576D01*
X111302137Y2759649D01*
X111291276Y2740838D01*
X111092023Y2428072D01*
X111079563Y2410277D01*
X110853816Y2116078D01*
X110839856Y2099442D01*
X110589318Y1826026D01*
X110573974Y1810682D01*
X110364726Y1618942D01*
X110300561Y1560146D01*
X110283922Y1546184D01*
X109989723Y1320437D01*
X109971928Y1307977D01*
X109659162Y1108724D01*
X109640352Y1097863D01*
X109311418Y926631D01*
X109291736Y917454D01*
X108949138Y775545D01*
X108928726Y768116D01*
X108575057Y656604D01*
X108554082Y650983D01*
X108414982Y620145D01*
X108192028Y570718D01*
X108170636Y566946D01*
X107802977Y518543D01*
X107781338Y516650D01*
X107454626Y502385D01*
X107440721Y502167D01*
X107423698Y502375D01*
X107406171Y505104D01*
X107383710Y502167D01*
X107383213Y502102D01*
X107350928Y500000D01*
X5058223Y500000D01*
X5028235Y502320D01*
X5023695Y502376D01*
X5006171Y505104D01*
X4988589Y502805D01*
X4975534Y502965D01*
X4953714Y502021D01*
X4738297Y511426D01*
X4618662Y516650D01*
X4597023Y518543D01*
X4229364Y566946D01*
X4207972Y570718D01*
X3985018Y620145D01*
X3845918Y650983D01*
X3824943Y656604D01*
X3471274Y768116D01*
X3450862Y775545D01*
X3108264Y917454D01*
X3088582Y926631D01*
X2759648Y1097863D01*
X2740838Y1108724D01*
X2428072Y1307977D01*
X2410277Y1320437D01*
X2116078Y1546184D01*
X2099439Y1560146D01*
X2035274Y1618942D01*
X1826026Y1810682D01*
X1810682Y1826026D01*
X1560144Y2099442D01*
X1546184Y2116078D01*
X1320437Y2410277D01*
X1307977Y2428072D01*
X1108724Y2740838D01*
X1097863Y2759649D01*
X926634Y3088576D01*
X917454Y3108264D01*
X775545Y3450862D01*
X768116Y3471274D01*
X656604Y3824943D01*
X650981Y3845926D01*
X570718Y4207972D01*
X566946Y4229364D01*
X518543Y4597023D01*
X516650Y4618662D01*
X502476Y4943279D01*
X503235Y4976385D01*
X503396Y4978177D01*
X504991Y4987658D01*
X505142Y5000000D01*
X502515Y5018344D01*
X500000Y5053643D01*
X500000Y10909455D01*
X9499368Y10909455D01*
X9537951Y10449983D01*
X9614847Y9995350D01*
X9616144Y9990299D01*
X9673773Y9765850D01*
X9729515Y9548747D01*
X9731226Y9543834D01*
X9731228Y9543827D01*
X9807576Y9324587D01*
X9881152Y9113305D01*
X10068694Y8692078D01*
X10071202Y8687515D01*
X10071205Y8687510D01*
X10288311Y8292595D01*
X10288317Y8292586D01*
X10290825Y8288023D01*
X10545988Y7903971D01*
X10832393Y7542618D01*
X11148031Y7206499D01*
X11151895Y7203020D01*
X11151903Y7203012D01*
X11323345Y7048645D01*
X11490687Y6897969D01*
X11857959Y6619195D01*
X11862352Y6616407D01*
X11862355Y6616405D01*
X12242878Y6374917D01*
X12242889Y6374911D01*
X12247269Y6372131D01*
X12251877Y6369722D01*
X12651278Y6160920D01*
X12651289Y6160915D01*
X12655889Y6158510D01*
X13080950Y5979831D01*
X13085902Y5978222D01*
X13514504Y5838960D01*
X13514509Y5838959D01*
X13519472Y5837346D01*
X13524559Y5836153D01*
X13524562Y5836152D01*
X13620517Y5813646D01*
X13968379Y5732056D01*
X13973514Y5731298D01*
X13973523Y5731296D01*
X14217258Y5695304D01*
X14424523Y5664698D01*
X14884702Y5635746D01*
X15345691Y5645403D01*
X15350871Y5645947D01*
X15350880Y5645948D01*
X15547505Y5666615D01*
X15804254Y5693600D01*
X15809347Y5694571D01*
X15809357Y5694573D01*
X16252051Y5779021D01*
X16252055Y5779022D01*
X16257177Y5779999D01*
X16262206Y5781403D01*
X16262214Y5781405D01*
X16696236Y5902586D01*
X16696245Y5902589D01*
X16701281Y5903995D01*
X16706183Y5905818D01*
X16706189Y5905820D01*
X17128553Y6062896D01*
X17128555Y6062897D01*
X17133452Y6064718D01*
X17365303Y6173819D01*
X17545937Y6258819D01*
X17545946Y6258824D01*
X17550658Y6261041D01*
X17949974Y6491586D01*
X18129565Y6616405D01*
X18324323Y6751765D01*
X18324331Y6751771D01*
X18328597Y6754736D01*
X18683872Y7048645D01*
X19013308Y7371253D01*
X19016712Y7375196D01*
X19016719Y7375204D01*
X19311183Y7716343D01*
X19311186Y7716347D01*
X19314594Y7720295D01*
X19585615Y8093324D01*
X19824472Y8487724D01*
X20029489Y8900727D01*
X20199227Y9329438D01*
X20332497Y9770848D01*
X20380217Y9995350D01*
X20427278Y10216756D01*
X20427278Y10216758D01*
X20428363Y10221861D01*
X20486153Y10679315D01*
X20495799Y10909455D01*
X91899368Y10909455D01*
X91937951Y10449983D01*
X92014847Y9995350D01*
X92016144Y9990299D01*
X92073773Y9765850D01*
X92129515Y9548747D01*
X92131226Y9543834D01*
X92131228Y9543827D01*
X92207576Y9324587D01*
X92281152Y9113305D01*
X92468694Y8692078D01*
X92471202Y8687515D01*
X92471205Y8687510D01*
X92688311Y8292595D01*
X92688317Y8292586D01*
X92690825Y8288023D01*
X92945988Y7903971D01*
X93232393Y7542618D01*
X93548031Y7206499D01*
X93551895Y7203020D01*
X93551903Y7203012D01*
X93723345Y7048645D01*
X93890687Y6897969D01*
X94257959Y6619195D01*
X94262352Y6616407D01*
X94262355Y6616405D01*
X94642878Y6374917D01*
X94642889Y6374911D01*
X94647269Y6372131D01*
X94651877Y6369722D01*
X95051278Y6160920D01*
X95051289Y6160915D01*
X95055889Y6158510D01*
X95480950Y5979831D01*
X95485902Y5978222D01*
X95914504Y5838960D01*
X95914509Y5838959D01*
X95919472Y5837346D01*
X95924559Y5836153D01*
X95924562Y5836152D01*
X96020517Y5813646D01*
X96368379Y5732056D01*
X96373514Y5731298D01*
X96373523Y5731296D01*
X96617258Y5695304D01*
X96824523Y5664698D01*
X97284702Y5635746D01*
X97745691Y5645403D01*
X97750871Y5645947D01*
X97750880Y5645948D01*
X97947505Y5666615D01*
X98204254Y5693600D01*
X98209347Y5694571D01*
X98209357Y5694573D01*
X98652051Y5779021D01*
X98652055Y5779022D01*
X98657177Y5779999D01*
X98662206Y5781403D01*
X98662214Y5781405D01*
X99096236Y5902586D01*
X99096245Y5902589D01*
X99101281Y5903995D01*
X99106183Y5905818D01*
X99106189Y5905820D01*
X99528553Y6062896D01*
X99528555Y6062897D01*
X99533452Y6064718D01*
X99765303Y6173819D01*
X99945937Y6258819D01*
X99945946Y6258824D01*
X99950658Y6261041D01*
X100349974Y6491586D01*
X100529565Y6616405D01*
X100724323Y6751765D01*
X100724331Y6751771D01*
X100728597Y6754736D01*
X101083872Y7048645D01*
X101413308Y7371253D01*
X101416712Y7375196D01*
X101416719Y7375204D01*
X101711183Y7716343D01*
X101711186Y7716347D01*
X101714594Y7720295D01*
X101985615Y8093324D01*
X102224472Y8487724D01*
X102429489Y8900727D01*
X102599227Y9329438D01*
X102732497Y9770848D01*
X102780217Y9995350D01*
X102827278Y10216756D01*
X102827278Y10216758D01*
X102828363Y10221861D01*
X102886153Y10679315D01*
X102905461Y11140000D01*
X102886153Y11600685D01*
X102828363Y12058139D01*
X102781309Y12279511D01*
X102733581Y12504053D01*
X102733580Y12504057D01*
X102732497Y12509152D01*
X102599227Y12950562D01*
X102429489Y13379273D01*
X102224472Y13792276D01*
X101985615Y14186676D01*
X101714594Y14559705D01*
X101557945Y14741184D01*
X101416719Y14904796D01*
X101416712Y14904804D01*
X101413308Y14908747D01*
X101083872Y15231355D01*
X100728597Y15525264D01*
X100724331Y15528229D01*
X100724323Y15528235D01*
X100354266Y15785431D01*
X100349974Y15788414D01*
X99950658Y16018959D01*
X99945946Y16021176D01*
X99945937Y16021181D01*
X99728481Y16123508D01*
X99533452Y16215282D01*
X99305198Y16300169D01*
X99106189Y16374180D01*
X99106183Y16374182D01*
X99101281Y16376005D01*
X99096245Y16377411D01*
X99096236Y16377414D01*
X98662214Y16498595D01*
X98662206Y16498597D01*
X98657177Y16500001D01*
X98652055Y16500978D01*
X98652051Y16500979D01*
X98209357Y16585427D01*
X98209347Y16585429D01*
X98204254Y16586400D01*
X97936520Y16614540D01*
X97750880Y16634052D01*
X97750871Y16634053D01*
X97745691Y16634597D01*
X97284702Y16644254D01*
X96824523Y16615302D01*
X96632478Y16586943D01*
X96373523Y16548704D01*
X96373514Y16548702D01*
X96368379Y16547944D01*
X96020517Y16466354D01*
X95924562Y16443848D01*
X95924559Y16443847D01*
X95919472Y16442654D01*
X95914509Y16441041D01*
X95914504Y16441040D01*
X95503183Y16307393D01*
X95480950Y16300169D01*
X95055889Y16121490D01*
X94647270Y15907869D01*
X94642890Y15905089D01*
X94642879Y15905083D01*
X94454338Y15785431D01*
X94257959Y15660805D01*
X93890687Y15382031D01*
X93886815Y15378545D01*
X93886813Y15378543D01*
X93551903Y15076988D01*
X93551895Y15076980D01*
X93548031Y15073501D01*
X93232393Y14737382D01*
X92945988Y14376029D01*
X92690825Y13991977D01*
X92688317Y13987414D01*
X92688311Y13987405D01*
X92578469Y13787602D01*
X92468694Y13587922D01*
X92281152Y13166695D01*
X92279437Y13161770D01*
X92205887Y12950562D01*
X92129515Y12731253D01*
X92128219Y12726205D01*
X92128218Y12726202D01*
X92072489Y12509152D01*
X92014847Y12284650D01*
X91937951Y11830017D01*
X91899368Y11370545D01*
X91899368Y10909455D01*
X20495799Y10909455D01*
X20505461Y11140000D01*
X20486153Y11600685D01*
X20428363Y12058139D01*
X20381309Y12279511D01*
X20333581Y12504053D01*
X20333580Y12504057D01*
X20332497Y12509152D01*
X20199227Y12950562D01*
X20029489Y13379273D01*
X19824472Y13792276D01*
X19585615Y14186676D01*
X19314594Y14559705D01*
X19157945Y14741184D01*
X19016719Y14904796D01*
X19016712Y14904804D01*
X19013308Y14908747D01*
X18683872Y15231355D01*
X18328597Y15525264D01*
X18324331Y15528229D01*
X18324323Y15528235D01*
X17954266Y15785431D01*
X17949974Y15788414D01*
X17550658Y16018959D01*
X17545946Y16021176D01*
X17545937Y16021181D01*
X17328481Y16123508D01*
X17133452Y16215282D01*
X16905198Y16300169D01*
X16706189Y16374180D01*
X16706183Y16374182D01*
X16701281Y16376005D01*
X16696245Y16377411D01*
X16696236Y16377414D01*
X16262214Y16498595D01*
X16262206Y16498597D01*
X16257177Y16500001D01*
X16252055Y16500978D01*
X16252051Y16500979D01*
X15809357Y16585427D01*
X15809347Y16585429D01*
X15804254Y16586400D01*
X15536520Y16614540D01*
X15350880Y16634052D01*
X15350871Y16634053D01*
X15345691Y16634597D01*
X14884702Y16644254D01*
X14424523Y16615302D01*
X14232478Y16586943D01*
X13973523Y16548704D01*
X13973514Y16548702D01*
X13968379Y16547944D01*
X13620517Y16466354D01*
X13524562Y16443848D01*
X13524559Y16443847D01*
X13519472Y16442654D01*
X13514509Y16441041D01*
X13514504Y16441040D01*
X13103183Y16307393D01*
X13080950Y16300169D01*
X12655889Y16121490D01*
X12247270Y15907869D01*
X12242890Y15905089D01*
X12242879Y15905083D01*
X12054338Y15785431D01*
X11857959Y15660805D01*
X11490687Y15382031D01*
X11486815Y15378545D01*
X11486813Y15378543D01*
X11151903Y15076988D01*
X11151895Y15076980D01*
X11148031Y15073501D01*
X10832393Y14737382D01*
X10545988Y14376029D01*
X10290825Y13991977D01*
X10288317Y13987414D01*
X10288311Y13987405D01*
X10178469Y13787602D01*
X10068694Y13587922D01*
X9881152Y13166695D01*
X9879437Y13161770D01*
X9805887Y12950562D01*
X9729515Y12731253D01*
X9728219Y12726205D01*
X9728218Y12726202D01*
X9672489Y12509152D01*
X9614847Y12284650D01*
X9537951Y11830017D01*
X9499368Y11370545D01*
X9499368Y10909455D01*
X500000Y10909455D01*
X500000Y23000000D01*
X26969783Y23000000D01*
X26988623Y22760621D01*
X27044677Y22527137D01*
X27136567Y22305296D01*
X27141674Y22296963D01*
X27141676Y22296958D01*
X27216013Y22175651D01*
X27262028Y22100561D01*
X27417973Y21917973D01*
X27600561Y21762028D01*
X27608897Y21756920D01*
X27796958Y21641676D01*
X27796963Y21641674D01*
X27805296Y21636567D01*
X28027137Y21544677D01*
X28091697Y21529178D01*
X28251110Y21490906D01*
X28251114Y21490905D01*
X28260621Y21488623D01*
X28500000Y21469783D01*
X28739379Y21488623D01*
X28748886Y21490905D01*
X28748890Y21490906D01*
X28908303Y21529178D01*
X28972863Y21544677D01*
X29194704Y21636567D01*
X29203037Y21641674D01*
X29203042Y21641676D01*
X29391103Y21756920D01*
X29399439Y21762028D01*
X29582027Y21917973D01*
X29737972Y22100561D01*
X29783987Y22175651D01*
X29858324Y22296958D01*
X29858326Y22296963D01*
X29863433Y22305296D01*
X29955323Y22527137D01*
X30011377Y22760621D01*
X30030217Y23000000D01*
X30011377Y23239379D01*
X29955323Y23472863D01*
X29863433Y23694704D01*
X29858326Y23703037D01*
X29858324Y23703042D01*
X29743080Y23891103D01*
X29737972Y23899439D01*
X29582027Y24082027D01*
X29399439Y24237972D01*
X29324349Y24283987D01*
X29203042Y24358324D01*
X29203037Y24358326D01*
X29194704Y24363433D01*
X28972863Y24455323D01*
X28908303Y24470822D01*
X28748890Y24509094D01*
X28748886Y24509095D01*
X28739379Y24511377D01*
X28500000Y24530217D01*
X28260621Y24511377D01*
X28251114Y24509095D01*
X28251110Y24509094D01*
X28091697Y24470822D01*
X28027137Y24455323D01*
X27805296Y24363433D01*
X27796963Y24358326D01*
X27796958Y24358324D01*
X27675651Y24283987D01*
X27600561Y24237972D01*
X27417973Y24082027D01*
X27262028Y23899439D01*
X27256920Y23891103D01*
X27141676Y23703042D01*
X27141674Y23703037D01*
X27136567Y23694704D01*
X27044677Y23472863D01*
X26988623Y23239379D01*
X26969783Y23000000D01*
X500000Y23000000D01*
X500000Y37456500D01*
X26969783Y37456500D01*
X26988623Y37217121D01*
X27044677Y36983637D01*
X27136567Y36761796D01*
X27141674Y36753463D01*
X27141676Y36753458D01*
X27216013Y36632151D01*
X27262028Y36557061D01*
X27417973Y36374473D01*
X27600561Y36218528D01*
X27608897Y36213420D01*
X27796958Y36098176D01*
X27796963Y36098174D01*
X27805296Y36093067D01*
X28027137Y36001177D01*
X28091697Y35985678D01*
X28251110Y35947406D01*
X28251114Y35947405D01*
X28260621Y35945123D01*
X28500000Y35926283D01*
X28739379Y35945123D01*
X28748886Y35947405D01*
X28748890Y35947406D01*
X28908303Y35985678D01*
X28972863Y36001177D01*
X29194704Y36093067D01*
X29203037Y36098174D01*
X29203042Y36098176D01*
X29391103Y36213420D01*
X29399439Y36218528D01*
X29582027Y36374473D01*
X29737972Y36557061D01*
X29783987Y36632151D01*
X29858324Y36753458D01*
X29858326Y36753463D01*
X29863433Y36761796D01*
X29955323Y36983637D01*
X30011377Y37217121D01*
X30030217Y37456500D01*
X30011377Y37695879D01*
X29955323Y37929363D01*
X29863433Y38151204D01*
X29858326Y38159537D01*
X29858324Y38159542D01*
X29743080Y38347603D01*
X29737972Y38355939D01*
X29582027Y38538527D01*
X29399439Y38694472D01*
X29324349Y38740487D01*
X29203042Y38814824D01*
X29203037Y38814826D01*
X29194704Y38819933D01*
X28972863Y38911823D01*
X28908303Y38927322D01*
X28748890Y38965594D01*
X28748886Y38965595D01*
X28739379Y38967877D01*
X28500000Y38986717D01*
X28260621Y38967877D01*
X28251114Y38965595D01*
X28251110Y38965594D01*
X28091697Y38927322D01*
X28027137Y38911823D01*
X27805296Y38819933D01*
X27796963Y38814826D01*
X27796958Y38814824D01*
X27675651Y38740487D01*
X27600561Y38694472D01*
X27417973Y38538527D01*
X27262028Y38355939D01*
X27256920Y38347603D01*
X27141676Y38159542D01*
X27141674Y38159537D01*
X27136567Y38151204D01*
X27044677Y37929363D01*
X26988623Y37695879D01*
X26969783Y37456500D01*
X500000Y37456500D01*
X500000Y49029455D01*
X9499368Y49029455D01*
X9537951Y48569983D01*
X9614847Y48115350D01*
X9616144Y48110299D01*
X9673773Y47885850D01*
X9729515Y47668747D01*
X9731226Y47663834D01*
X9731228Y47663827D01*
X9807576Y47444587D01*
X9881152Y47233305D01*
X10068694Y46812078D01*
X10071202Y46807515D01*
X10071205Y46807510D01*
X10288311Y46412595D01*
X10288317Y46412586D01*
X10290825Y46408023D01*
X10545988Y46023971D01*
X10832393Y45662618D01*
X11148031Y45326499D01*
X11151895Y45323020D01*
X11151903Y45323012D01*
X11323345Y45168645D01*
X11490687Y45017969D01*
X11857959Y44739195D01*
X11862352Y44736407D01*
X11862355Y44736405D01*
X12242878Y44494917D01*
X12242889Y44494911D01*
X12247269Y44492131D01*
X12251877Y44489722D01*
X12651278Y44280920D01*
X12651289Y44280915D01*
X12655889Y44278510D01*
X13080950Y44099831D01*
X13085902Y44098222D01*
X13514504Y43958960D01*
X13514509Y43958959D01*
X13519472Y43957346D01*
X13524559Y43956153D01*
X13524562Y43956152D01*
X13620517Y43933646D01*
X13968379Y43852056D01*
X13973514Y43851298D01*
X13973523Y43851296D01*
X14217258Y43815304D01*
X14424523Y43784698D01*
X14884702Y43755746D01*
X15345691Y43765403D01*
X15350871Y43765947D01*
X15350880Y43765948D01*
X15547505Y43786615D01*
X15804254Y43813600D01*
X15809347Y43814571D01*
X15809357Y43814573D01*
X16252051Y43899021D01*
X16252055Y43899022D01*
X16257177Y43899999D01*
X16262206Y43901403D01*
X16262214Y43901405D01*
X16696236Y44022586D01*
X16696245Y44022589D01*
X16701281Y44023995D01*
X16706183Y44025818D01*
X16706189Y44025820D01*
X17128553Y44182896D01*
X17128555Y44182897D01*
X17133452Y44184718D01*
X17365303Y44293819D01*
X17545937Y44378819D01*
X17545946Y44378824D01*
X17550658Y44381041D01*
X17949974Y44611586D01*
X18129565Y44736405D01*
X18324323Y44871765D01*
X18324331Y44871771D01*
X18328597Y44874736D01*
X18683872Y45168645D01*
X19013308Y45491253D01*
X19016712Y45495196D01*
X19016719Y45495204D01*
X19311183Y45836343D01*
X19311186Y45836347D01*
X19314594Y45840295D01*
X19585615Y46213324D01*
X19824472Y46607724D01*
X20029489Y47020727D01*
X20199227Y47449438D01*
X20332497Y47890848D01*
X20380217Y48115350D01*
X20427278Y48336756D01*
X20427278Y48336758D01*
X20428363Y48341861D01*
X20486153Y48799315D01*
X20495799Y49029455D01*
X91899368Y49029455D01*
X91937951Y48569983D01*
X92014847Y48115350D01*
X92016144Y48110299D01*
X92073773Y47885850D01*
X92129515Y47668747D01*
X92131226Y47663834D01*
X92131228Y47663827D01*
X92207576Y47444587D01*
X92281152Y47233305D01*
X92468694Y46812078D01*
X92471202Y46807515D01*
X92471205Y46807510D01*
X92688311Y46412595D01*
X92688317Y46412586D01*
X92690825Y46408023D01*
X92945988Y46023971D01*
X93232393Y45662618D01*
X93548031Y45326499D01*
X93551895Y45323020D01*
X93551903Y45323012D01*
X93723345Y45168645D01*
X93890687Y45017969D01*
X94257959Y44739195D01*
X94262352Y44736407D01*
X94262355Y44736405D01*
X94642878Y44494917D01*
X94642889Y44494911D01*
X94647269Y44492131D01*
X94651877Y44489722D01*
X95051278Y44280920D01*
X95051289Y44280915D01*
X95055889Y44278510D01*
X95480950Y44099831D01*
X95485902Y44098222D01*
X95914504Y43958960D01*
X95914509Y43958959D01*
X95919472Y43957346D01*
X95924559Y43956153D01*
X95924562Y43956152D01*
X96020517Y43933646D01*
X96368379Y43852056D01*
X96373514Y43851298D01*
X96373523Y43851296D01*
X96617258Y43815304D01*
X96824523Y43784698D01*
X97284702Y43755746D01*
X97745691Y43765403D01*
X97750871Y43765947D01*
X97750880Y43765948D01*
X97947505Y43786615D01*
X98204254Y43813600D01*
X98209347Y43814571D01*
X98209357Y43814573D01*
X98652051Y43899021D01*
X98652055Y43899022D01*
X98657177Y43899999D01*
X98662206Y43901403D01*
X98662214Y43901405D01*
X99096236Y44022586D01*
X99096245Y44022589D01*
X99101281Y44023995D01*
X99106183Y44025818D01*
X99106189Y44025820D01*
X99528553Y44182896D01*
X99528555Y44182897D01*
X99533452Y44184718D01*
X99765303Y44293819D01*
X99945937Y44378819D01*
X99945946Y44378824D01*
X99950658Y44381041D01*
X100349974Y44611586D01*
X100529565Y44736405D01*
X100724323Y44871765D01*
X100724331Y44871771D01*
X100728597Y44874736D01*
X101083872Y45168645D01*
X101413308Y45491253D01*
X101416712Y45495196D01*
X101416719Y45495204D01*
X101711183Y45836343D01*
X101711186Y45836347D01*
X101714594Y45840295D01*
X101985615Y46213324D01*
X102224472Y46607724D01*
X102429489Y47020727D01*
X102599227Y47449438D01*
X102732497Y47890848D01*
X102780217Y48115350D01*
X102827278Y48336756D01*
X102827278Y48336758D01*
X102828363Y48341861D01*
X102886153Y48799315D01*
X102905461Y49260000D01*
X102886153Y49720685D01*
X102828363Y50178139D01*
X102781309Y50399511D01*
X102733581Y50624053D01*
X102733580Y50624057D01*
X102732497Y50629152D01*
X102599227Y51070562D01*
X102429489Y51499273D01*
X102224472Y51912276D01*
X101985615Y52306676D01*
X101714594Y52679705D01*
X101557945Y52861184D01*
X101416719Y53024796D01*
X101416712Y53024804D01*
X101413308Y53028747D01*
X101083872Y53351355D01*
X100728597Y53645264D01*
X100724331Y53648229D01*
X100724323Y53648235D01*
X100354266Y53905431D01*
X100349974Y53908414D01*
X99950658Y54138959D01*
X99945946Y54141176D01*
X99945937Y54141181D01*
X99728481Y54243508D01*
X99533452Y54335282D01*
X99305198Y54420169D01*
X99106189Y54494180D01*
X99106183Y54494182D01*
X99101281Y54496005D01*
X99096245Y54497411D01*
X99096236Y54497414D01*
X98662214Y54618595D01*
X98662206Y54618597D01*
X98657177Y54620001D01*
X98652055Y54620978D01*
X98652051Y54620979D01*
X98209357Y54705427D01*
X98209347Y54705429D01*
X98204254Y54706400D01*
X97936520Y54734540D01*
X97750880Y54754052D01*
X97750871Y54754053D01*
X97745691Y54754597D01*
X97284702Y54764254D01*
X96824523Y54735302D01*
X96632478Y54706943D01*
X96373523Y54668704D01*
X96373514Y54668702D01*
X96368379Y54667944D01*
X96020517Y54586354D01*
X95924562Y54563848D01*
X95924559Y54563847D01*
X95919472Y54562654D01*
X95914509Y54561041D01*
X95914504Y54561040D01*
X95503183Y54427393D01*
X95480950Y54420169D01*
X95055889Y54241490D01*
X94647270Y54027869D01*
X94642890Y54025089D01*
X94642879Y54025083D01*
X94454338Y53905431D01*
X94257959Y53780805D01*
X93890687Y53502031D01*
X93886815Y53498545D01*
X93886813Y53498543D01*
X93551903Y53196988D01*
X93551895Y53196980D01*
X93548031Y53193501D01*
X93232393Y52857382D01*
X92945988Y52496029D01*
X92690825Y52111977D01*
X92688317Y52107414D01*
X92688311Y52107405D01*
X92578469Y51907602D01*
X92468694Y51707922D01*
X92281152Y51286695D01*
X92279437Y51281770D01*
X92205887Y51070562D01*
X92129515Y50851253D01*
X92128219Y50846205D01*
X92128218Y50846202D01*
X92072489Y50629152D01*
X92014847Y50404650D01*
X91937951Y49950017D01*
X91899368Y49490545D01*
X91899368Y49029455D01*
X20495799Y49029455D01*
X20505461Y49260000D01*
X20486153Y49720685D01*
X20428363Y50178139D01*
X20381309Y50399511D01*
X20333581Y50624053D01*
X20333580Y50624057D01*
X20332497Y50629152D01*
X20199227Y51070562D01*
X20029489Y51499273D01*
X19824472Y51912276D01*
X19585615Y52306676D01*
X19314594Y52679705D01*
X19157945Y52861184D01*
X19016719Y53024796D01*
X19016712Y53024804D01*
X19013308Y53028747D01*
X18683872Y53351355D01*
X18328597Y53645264D01*
X18324331Y53648229D01*
X18324323Y53648235D01*
X17954266Y53905431D01*
X17949974Y53908414D01*
X17550658Y54138959D01*
X17545946Y54141176D01*
X17545937Y54141181D01*
X17328481Y54243508D01*
X17133452Y54335282D01*
X16905198Y54420169D01*
X16706189Y54494180D01*
X16706183Y54494182D01*
X16701281Y54496005D01*
X16696245Y54497411D01*
X16696236Y54497414D01*
X16262214Y54618595D01*
X16262206Y54618597D01*
X16257177Y54620001D01*
X16252055Y54620978D01*
X16252051Y54620979D01*
X15809357Y54705427D01*
X15809347Y54705429D01*
X15804254Y54706400D01*
X15536520Y54734540D01*
X15350880Y54754052D01*
X15350871Y54754053D01*
X15345691Y54754597D01*
X14884702Y54764254D01*
X14424523Y54735302D01*
X14232478Y54706943D01*
X13973523Y54668704D01*
X13973514Y54668702D01*
X13968379Y54667944D01*
X13620517Y54586354D01*
X13524562Y54563848D01*
X13524559Y54563847D01*
X13519472Y54562654D01*
X13514509Y54561041D01*
X13514504Y54561040D01*
X13103183Y54427393D01*
X13080950Y54420169D01*
X12655889Y54241490D01*
X12247270Y54027869D01*
X12242890Y54025089D01*
X12242879Y54025083D01*
X12054338Y53905431D01*
X11857959Y53780805D01*
X11490687Y53502031D01*
X11486815Y53498545D01*
X11486813Y53498543D01*
X11151903Y53196988D01*
X11151895Y53196980D01*
X11148031Y53193501D01*
X10832393Y52857382D01*
X10545988Y52496029D01*
X10290825Y52111977D01*
X10288317Y52107414D01*
X10288311Y52107405D01*
X10178469Y51907602D01*
X10068694Y51707922D01*
X9881152Y51286695D01*
X9879437Y51281770D01*
X9805887Y51070562D01*
X9729515Y50851253D01*
X9728219Y50846205D01*
X9728218Y50846202D01*
X9672489Y50629152D01*
X9614847Y50404650D01*
X9537951Y49950017D01*
X9499368Y49490545D01*
X9499368Y49029455D01*
X500000Y49029455D01*
X500000Y55437193D01*
X502622Y55468583D01*
X502536Y55468591D01*
X503396Y55478177D01*
X504991Y55487658D01*
X505142Y55500000D01*
X503779Y55509518D01*
X503153Y55519131D01*
X503769Y55519171D01*
X502214Y55550705D01*
X516650Y55881337D01*
X518543Y55902977D01*
X566946Y56270636D01*
X570718Y56292028D01*
X650981Y56654074D01*
X656604Y56675057D01*
X768116Y57028726D01*
X775545Y57049138D01*
X917454Y57391736D01*
X926634Y57411424D01*
X1097863Y57740351D01*
X1108724Y57759162D01*
X1307977Y58071928D01*
X1320437Y58089723D01*
X1546184Y58383922D01*
X1560146Y58400561D01*
X1661149Y58510787D01*
X1810682Y58673974D01*
X1826026Y58689318D01*
X2099442Y58939856D01*
X2116078Y58953816D01*
X2410277Y59179563D01*
X2428072Y59192023D01*
X2740838Y59391276D01*
X2759649Y59402137D01*
X3088582Y59573369D01*
X3108264Y59582546D01*
X3450862Y59724455D01*
X3471274Y59731884D01*
X3824943Y59843396D01*
X3845918Y59849017D01*
X3985018Y59879855D01*
X4207972Y59929282D01*
X4229364Y59933054D01*
X4597023Y59981457D01*
X4618662Y59983350D01*
X4945374Y59997615D01*
X4959279Y59997833D01*
X4976302Y59997625D01*
X4993829Y59994896D01*
X5016787Y59997898D01*
X5049072Y60000000D01*
X107341777Y60000000D01*
X107371765Y59997680D01*
G37*
%TD.AperFunction*%
%TD*%
M02*
