%TF.GenerationSoftware,KiCad,Pcbnew,8.0.6*%
%TF.CreationDate,2024-11-13T10:13:59+01:00*%
%TF.ProjectId,5uH_LISN,3575485f-4c49-4534-9e2e-6b696361645f,V1 R0*%
%TF.SameCoordinates,Original*%
%TF.FileFunction,Legend,Top*%
%TF.FilePolarity,Positive*%
%FSLAX46Y46*%
G04 Gerber Fmt 4.6, Leading zero omitted, Abs format (unit mm)*
G04 Created by KiCad (PCBNEW 8.0.6) date 2024-11-13 10:13:59*
%MOMM*%
%LPD*%
G01*
G04 APERTURE LIST*
%ADD10C,0.400000*%
%ADD11C,0.500000*%
%ADD12C,0.120000*%
%ADD13C,0.127000*%
%ADD14C,0.203200*%
%ADD15C,0.152400*%
%ADD16C,2.150000*%
%ADD17C,2.350000*%
%ADD18C,10.203200*%
%ADD19C,8.203200*%
G04 APERTURE END LIST*
D10*
X86095237Y31657705D02*
X85857142Y31776753D01*
X85857142Y31776753D02*
X85499999Y31776753D01*
X85499999Y31776753D02*
X85142856Y31657705D01*
X85142856Y31657705D02*
X84904761Y31419610D01*
X84904761Y31419610D02*
X84785714Y31181515D01*
X84785714Y31181515D02*
X84666666Y30705324D01*
X84666666Y30705324D02*
X84666666Y30348181D01*
X84666666Y30348181D02*
X84785714Y29871991D01*
X84785714Y29871991D02*
X84904761Y29633896D01*
X84904761Y29633896D02*
X85142856Y29395800D01*
X85142856Y29395800D02*
X85499999Y29276753D01*
X85499999Y29276753D02*
X85738095Y29276753D01*
X85738095Y29276753D02*
X86095237Y29395800D01*
X86095237Y29395800D02*
X86214285Y29514848D01*
X86214285Y29514848D02*
X86214285Y30348181D01*
X86214285Y30348181D02*
X85738095Y30348181D01*
X87285714Y29276753D02*
X87285714Y31776753D01*
X87285714Y31776753D02*
X88714285Y29276753D01*
X88714285Y29276753D02*
X88714285Y31776753D01*
X89904762Y29276753D02*
X89904762Y31776753D01*
X89904762Y31776753D02*
X90500000Y31776753D01*
X90500000Y31776753D02*
X90857143Y31657705D01*
X90857143Y31657705D02*
X91095238Y31419610D01*
X91095238Y31419610D02*
X91214285Y31181515D01*
X91214285Y31181515D02*
X91333333Y30705324D01*
X91333333Y30705324D02*
X91333333Y30348181D01*
X91333333Y30348181D02*
X91214285Y29871991D01*
X91214285Y29871991D02*
X91095238Y29633896D01*
X91095238Y29633896D02*
X90857143Y29395800D01*
X90857143Y29395800D02*
X90500000Y29276753D01*
X90500000Y29276753D02*
X89904762Y29276753D01*
X22845237Y31907705D02*
X22607142Y32026753D01*
X22607142Y32026753D02*
X22249999Y32026753D01*
X22249999Y32026753D02*
X21892856Y31907705D01*
X21892856Y31907705D02*
X21654761Y31669610D01*
X21654761Y31669610D02*
X21535714Y31431515D01*
X21535714Y31431515D02*
X21416666Y30955324D01*
X21416666Y30955324D02*
X21416666Y30598181D01*
X21416666Y30598181D02*
X21535714Y30121991D01*
X21535714Y30121991D02*
X21654761Y29883896D01*
X21654761Y29883896D02*
X21892856Y29645800D01*
X21892856Y29645800D02*
X22249999Y29526753D01*
X22249999Y29526753D02*
X22488095Y29526753D01*
X22488095Y29526753D02*
X22845237Y29645800D01*
X22845237Y29645800D02*
X22964285Y29764848D01*
X22964285Y29764848D02*
X22964285Y30598181D01*
X22964285Y30598181D02*
X22488095Y30598181D01*
X24035714Y29526753D02*
X24035714Y32026753D01*
X24035714Y32026753D02*
X25464285Y29526753D01*
X25464285Y29526753D02*
X25464285Y32026753D01*
X26654762Y29526753D02*
X26654762Y32026753D01*
X26654762Y32026753D02*
X27250000Y32026753D01*
X27250000Y32026753D02*
X27607143Y31907705D01*
X27607143Y31907705D02*
X27845238Y31669610D01*
X27845238Y31669610D02*
X27964285Y31431515D01*
X27964285Y31431515D02*
X28083333Y30955324D01*
X28083333Y30955324D02*
X28083333Y30598181D01*
X28083333Y30598181D02*
X27964285Y30121991D01*
X27964285Y30121991D02*
X27845238Y29883896D01*
X27845238Y29883896D02*
X27607143Y29645800D01*
X27607143Y29645800D02*
X27250000Y29526753D01*
X27250000Y29526753D02*
X26654762Y29526753D01*
D11*
X5836000Y39078572D02*
X5693142Y38650000D01*
X5693142Y38650000D02*
X5693142Y37935715D01*
X5693142Y37935715D02*
X5836000Y37650000D01*
X5836000Y37650000D02*
X5978857Y37507143D01*
X5978857Y37507143D02*
X6264571Y37364286D01*
X6264571Y37364286D02*
X6550285Y37364286D01*
X6550285Y37364286D02*
X6836000Y37507143D01*
X6836000Y37507143D02*
X6978857Y37650000D01*
X6978857Y37650000D02*
X7121714Y37935715D01*
X7121714Y37935715D02*
X7264571Y38507143D01*
X7264571Y38507143D02*
X7407428Y38792858D01*
X7407428Y38792858D02*
X7550285Y38935715D01*
X7550285Y38935715D02*
X7836000Y39078572D01*
X7836000Y39078572D02*
X8121714Y39078572D01*
X8121714Y39078572D02*
X8407428Y38935715D01*
X8407428Y38935715D02*
X8550285Y38792858D01*
X8550285Y38792858D02*
X8693142Y38507143D01*
X8693142Y38507143D02*
X8693142Y37792858D01*
X8693142Y37792858D02*
X8550285Y37364286D01*
X8693142Y36078572D02*
X6264571Y36078572D01*
X6264571Y36078572D02*
X5978857Y35935715D01*
X5978857Y35935715D02*
X5836000Y35792857D01*
X5836000Y35792857D02*
X5693142Y35507143D01*
X5693142Y35507143D02*
X5693142Y34935715D01*
X5693142Y34935715D02*
X5836000Y34650000D01*
X5836000Y34650000D02*
X5978857Y34507143D01*
X5978857Y34507143D02*
X6264571Y34364286D01*
X6264571Y34364286D02*
X8693142Y34364286D01*
X5693142Y32935715D02*
X8693142Y32935715D01*
X8693142Y32935715D02*
X8693142Y31792858D01*
X8693142Y31792858D02*
X8550285Y31507143D01*
X8550285Y31507143D02*
X8407428Y31364286D01*
X8407428Y31364286D02*
X8121714Y31221429D01*
X8121714Y31221429D02*
X7693142Y31221429D01*
X7693142Y31221429D02*
X7407428Y31364286D01*
X7407428Y31364286D02*
X7264571Y31507143D01*
X7264571Y31507143D02*
X7121714Y31792858D01*
X7121714Y31792858D02*
X7121714Y32935715D01*
X5693142Y29935715D02*
X8693142Y29935715D01*
X8693142Y29935715D02*
X8693142Y28792858D01*
X8693142Y28792858D02*
X8550285Y28507143D01*
X8550285Y28507143D02*
X8407428Y28364286D01*
X8407428Y28364286D02*
X8121714Y28221429D01*
X8121714Y28221429D02*
X7693142Y28221429D01*
X7693142Y28221429D02*
X7407428Y28364286D01*
X7407428Y28364286D02*
X7264571Y28507143D01*
X7264571Y28507143D02*
X7121714Y28792858D01*
X7121714Y28792858D02*
X7121714Y29935715D01*
X5693142Y25507143D02*
X5693142Y26935715D01*
X5693142Y26935715D02*
X8693142Y26935715D01*
X7121714Y23935715D02*
X5693142Y23935715D01*
X8693142Y24935715D02*
X7121714Y23935715D01*
X7121714Y23935715D02*
X8693142Y22935715D01*
D10*
X33966667Y37776753D02*
X33966667Y40276753D01*
X33966667Y39086277D02*
X35395238Y39086277D01*
X35395238Y37776753D02*
X35395238Y40276753D01*
X37419048Y39086277D02*
X36585715Y39086277D01*
X36585715Y37776753D02*
X36585715Y40276753D01*
X36585715Y40276753D02*
X37776191Y40276753D01*
X38728572Y38729134D02*
X40633334Y38729134D01*
X39680953Y37776753D02*
X39680953Y39681515D01*
X33966667Y23326753D02*
X33966667Y25826753D01*
X33966667Y24636277D02*
X35395238Y24636277D01*
X35395238Y23326753D02*
X35395238Y25826753D01*
X37419048Y24636277D02*
X36585715Y24636277D01*
X36585715Y23326753D02*
X36585715Y25826753D01*
X36585715Y25826753D02*
X37776191Y25826753D01*
X38728572Y24279134D02*
X40633334Y24279134D01*
X43223810Y50826753D02*
X43223810Y53326753D01*
X43223810Y53326753D02*
X44057143Y51541039D01*
X44057143Y51541039D02*
X44890476Y53326753D01*
X44890476Y53326753D02*
X44890476Y50826753D01*
X45961905Y51541039D02*
X47152381Y51541039D01*
X45723810Y50826753D02*
X46557143Y53326753D01*
X46557143Y53326753D02*
X47390476Y50826753D01*
X47985714Y53326753D02*
X49652381Y50826753D01*
X49652381Y53326753D02*
X47985714Y50826753D01*
X53580952Y53326753D02*
X53104762Y53326753D01*
X53104762Y53326753D02*
X52866666Y53207705D01*
X52866666Y53207705D02*
X52747619Y53088658D01*
X52747619Y53088658D02*
X52509524Y52731515D01*
X52509524Y52731515D02*
X52390476Y52255324D01*
X52390476Y52255324D02*
X52390476Y51302943D01*
X52390476Y51302943D02*
X52509524Y51064848D01*
X52509524Y51064848D02*
X52628571Y50945800D01*
X52628571Y50945800D02*
X52866666Y50826753D01*
X52866666Y50826753D02*
X53342857Y50826753D01*
X53342857Y50826753D02*
X53580952Y50945800D01*
X53580952Y50945800D02*
X53700000Y51064848D01*
X53700000Y51064848D02*
X53819047Y51302943D01*
X53819047Y51302943D02*
X53819047Y51898181D01*
X53819047Y51898181D02*
X53700000Y52136277D01*
X53700000Y52136277D02*
X53580952Y52255324D01*
X53580952Y52255324D02*
X53342857Y52374372D01*
X53342857Y52374372D02*
X52866666Y52374372D01*
X52866666Y52374372D02*
X52628571Y52255324D01*
X52628571Y52255324D02*
X52509524Y52136277D01*
X52509524Y52136277D02*
X52390476Y51898181D01*
X55366666Y53326753D02*
X55604761Y53326753D01*
X55604761Y53326753D02*
X55842857Y53207705D01*
X55842857Y53207705D02*
X55961904Y53088658D01*
X55961904Y53088658D02*
X56080952Y52850562D01*
X56080952Y52850562D02*
X56199999Y52374372D01*
X56199999Y52374372D02*
X56199999Y51779134D01*
X56199999Y51779134D02*
X56080952Y51302943D01*
X56080952Y51302943D02*
X55961904Y51064848D01*
X55961904Y51064848D02*
X55842857Y50945800D01*
X55842857Y50945800D02*
X55604761Y50826753D01*
X55604761Y50826753D02*
X55366666Y50826753D01*
X55366666Y50826753D02*
X55128571Y50945800D01*
X55128571Y50945800D02*
X55009523Y51064848D01*
X55009523Y51064848D02*
X54890476Y51302943D01*
X54890476Y51302943D02*
X54771428Y51779134D01*
X54771428Y51779134D02*
X54771428Y52374372D01*
X54771428Y52374372D02*
X54890476Y52850562D01*
X54890476Y52850562D02*
X55009523Y53088658D01*
X55009523Y53088658D02*
X55128571Y53207705D01*
X55128571Y53207705D02*
X55366666Y53326753D01*
X56914285Y53326753D02*
X57747618Y50826753D01*
X57747618Y50826753D02*
X58580951Y53326753D01*
X63104761Y53445800D02*
X60961904Y50231515D01*
X67033333Y53326753D02*
X65842857Y53326753D01*
X65842857Y53326753D02*
X65723809Y52136277D01*
X65723809Y52136277D02*
X65842857Y52255324D01*
X65842857Y52255324D02*
X66080952Y52374372D01*
X66080952Y52374372D02*
X66676190Y52374372D01*
X66676190Y52374372D02*
X66914285Y52255324D01*
X66914285Y52255324D02*
X67033333Y52136277D01*
X67033333Y52136277D02*
X67152380Y51898181D01*
X67152380Y51898181D02*
X67152380Y51302943D01*
X67152380Y51302943D02*
X67033333Y51064848D01*
X67033333Y51064848D02*
X66914285Y50945800D01*
X66914285Y50945800D02*
X66676190Y50826753D01*
X66676190Y50826753D02*
X66080952Y50826753D01*
X66080952Y50826753D02*
X65842857Y50945800D01*
X65842857Y50945800D02*
X65723809Y51064848D01*
X68104761Y51541039D02*
X69295237Y51541039D01*
X67866666Y50826753D02*
X68699999Y53326753D01*
X68699999Y53326753D02*
X69533332Y50826753D01*
X24383809Y10054134D02*
X21336190Y10054134D01*
X38759523Y54826753D02*
X38759523Y57326753D01*
X38759523Y57326753D02*
X39354761Y57326753D01*
X39354761Y57326753D02*
X39711904Y57207705D01*
X39711904Y57207705D02*
X39949999Y56969610D01*
X39949999Y56969610D02*
X40069046Y56731515D01*
X40069046Y56731515D02*
X40188094Y56255324D01*
X40188094Y56255324D02*
X40188094Y55898181D01*
X40188094Y55898181D02*
X40069046Y55421991D01*
X40069046Y55421991D02*
X39949999Y55183896D01*
X39949999Y55183896D02*
X39711904Y54945800D01*
X39711904Y54945800D02*
X39354761Y54826753D01*
X39354761Y54826753D02*
X38759523Y54826753D01*
X42330951Y56493420D02*
X42330951Y54826753D01*
X41259523Y56493420D02*
X41259523Y55183896D01*
X41259523Y55183896D02*
X41378570Y54945800D01*
X41378570Y54945800D02*
X41616665Y54826753D01*
X41616665Y54826753D02*
X41973808Y54826753D01*
X41973808Y54826753D02*
X42211904Y54945800D01*
X42211904Y54945800D02*
X42330951Y55064848D01*
X44592856Y54826753D02*
X44592856Y56136277D01*
X44592856Y56136277D02*
X44473809Y56374372D01*
X44473809Y56374372D02*
X44235713Y56493420D01*
X44235713Y56493420D02*
X43759523Y56493420D01*
X43759523Y56493420D02*
X43521428Y56374372D01*
X44592856Y54945800D02*
X44354761Y54826753D01*
X44354761Y54826753D02*
X43759523Y54826753D01*
X43759523Y54826753D02*
X43521428Y54945800D01*
X43521428Y54945800D02*
X43402380Y55183896D01*
X43402380Y55183896D02*
X43402380Y55421991D01*
X43402380Y55421991D02*
X43521428Y55660086D01*
X43521428Y55660086D02*
X43759523Y55779134D01*
X43759523Y55779134D02*
X44354761Y55779134D01*
X44354761Y55779134D02*
X44592856Y55898181D01*
X46140475Y54826753D02*
X45902380Y54945800D01*
X45902380Y54945800D02*
X45783333Y55183896D01*
X45783333Y55183896D02*
X45783333Y57326753D01*
X48997619Y54826753D02*
X48997619Y57326753D01*
X48997619Y57326753D02*
X49592857Y57326753D01*
X49592857Y57326753D02*
X49950000Y57207705D01*
X49950000Y57207705D02*
X50188095Y56969610D01*
X50188095Y56969610D02*
X50307142Y56731515D01*
X50307142Y56731515D02*
X50426190Y56255324D01*
X50426190Y56255324D02*
X50426190Y55898181D01*
X50426190Y55898181D02*
X50307142Y55421991D01*
X50307142Y55421991D02*
X50188095Y55183896D01*
X50188095Y55183896D02*
X49950000Y54945800D01*
X49950000Y54945800D02*
X49592857Y54826753D01*
X49592857Y54826753D02*
X48997619Y54826753D01*
X52926190Y55064848D02*
X52807142Y54945800D01*
X52807142Y54945800D02*
X52450000Y54826753D01*
X52450000Y54826753D02*
X52211904Y54826753D01*
X52211904Y54826753D02*
X51854761Y54945800D01*
X51854761Y54945800D02*
X51616666Y55183896D01*
X51616666Y55183896D02*
X51497619Y55421991D01*
X51497619Y55421991D02*
X51378571Y55898181D01*
X51378571Y55898181D02*
X51378571Y56255324D01*
X51378571Y56255324D02*
X51497619Y56731515D01*
X51497619Y56731515D02*
X51616666Y56969610D01*
X51616666Y56969610D02*
X51854761Y57207705D01*
X51854761Y57207705D02*
X52211904Y57326753D01*
X52211904Y57326753D02*
X52450000Y57326753D01*
X52450000Y57326753D02*
X52807142Y57207705D01*
X52807142Y57207705D02*
X52926190Y57088658D01*
X53997619Y55779134D02*
X55902381Y55779134D01*
X58283333Y54826753D02*
X57092857Y54826753D01*
X57092857Y54826753D02*
X57092857Y57326753D01*
X59116667Y54826753D02*
X59116667Y57326753D01*
X60188095Y54945800D02*
X60545238Y54826753D01*
X60545238Y54826753D02*
X61140476Y54826753D01*
X61140476Y54826753D02*
X61378571Y54945800D01*
X61378571Y54945800D02*
X61497619Y55064848D01*
X61497619Y55064848D02*
X61616666Y55302943D01*
X61616666Y55302943D02*
X61616666Y55541039D01*
X61616666Y55541039D02*
X61497619Y55779134D01*
X61497619Y55779134D02*
X61378571Y55898181D01*
X61378571Y55898181D02*
X61140476Y56017229D01*
X61140476Y56017229D02*
X60664285Y56136277D01*
X60664285Y56136277D02*
X60426190Y56255324D01*
X60426190Y56255324D02*
X60307143Y56374372D01*
X60307143Y56374372D02*
X60188095Y56612467D01*
X60188095Y56612467D02*
X60188095Y56850562D01*
X60188095Y56850562D02*
X60307143Y57088658D01*
X60307143Y57088658D02*
X60426190Y57207705D01*
X60426190Y57207705D02*
X60664285Y57326753D01*
X60664285Y57326753D02*
X61259524Y57326753D01*
X61259524Y57326753D02*
X61616666Y57207705D01*
X62688095Y54826753D02*
X62688095Y57326753D01*
X62688095Y57326753D02*
X64116666Y54826753D01*
X64116666Y54826753D02*
X64116666Y57326753D01*
X68402381Y57326753D02*
X67211905Y57326753D01*
X67211905Y57326753D02*
X67092857Y56136277D01*
X67092857Y56136277D02*
X67211905Y56255324D01*
X67211905Y56255324D02*
X67450000Y56374372D01*
X67450000Y56374372D02*
X68045238Y56374372D01*
X68045238Y56374372D02*
X68283333Y56255324D01*
X68283333Y56255324D02*
X68402381Y56136277D01*
X68402381Y56136277D02*
X68521428Y55898181D01*
X68521428Y55898181D02*
X68521428Y55302943D01*
X68521428Y55302943D02*
X68402381Y55064848D01*
X68402381Y55064848D02*
X68283333Y54945800D01*
X68283333Y54945800D02*
X68045238Y54826753D01*
X68045238Y54826753D02*
X67450000Y54826753D01*
X67450000Y54826753D02*
X67211905Y54945800D01*
X67211905Y54945800D02*
X67092857Y55064848D01*
X69592857Y56493420D02*
X69592857Y53993420D01*
X70783333Y55183896D02*
X70902380Y54945800D01*
X70902380Y54945800D02*
X71140476Y54826753D01*
X69592857Y55183896D02*
X69711904Y54945800D01*
X69711904Y54945800D02*
X69949999Y54826753D01*
X69949999Y54826753D02*
X70426190Y54826753D01*
X70426190Y54826753D02*
X70664285Y54945800D01*
X70664285Y54945800D02*
X70783333Y55183896D01*
X70783333Y55183896D02*
X70783333Y56493420D01*
X72211905Y54826753D02*
X72211905Y57326753D01*
X72211905Y56136277D02*
X73640476Y56136277D01*
X73640476Y54826753D02*
X73640476Y57326753D01*
X26554762Y14776753D02*
X25126191Y14776753D01*
X25840477Y14776753D02*
X25840477Y17276753D01*
X25840477Y17276753D02*
X25602381Y16919610D01*
X25602381Y16919610D02*
X25364286Y16681515D01*
X25364286Y16681515D02*
X25126191Y16562467D01*
X28102381Y17276753D02*
X28340476Y17276753D01*
X28340476Y17276753D02*
X28578572Y17157705D01*
X28578572Y17157705D02*
X28697619Y17038658D01*
X28697619Y17038658D02*
X28816667Y16800562D01*
X28816667Y16800562D02*
X28935714Y16324372D01*
X28935714Y16324372D02*
X28935714Y15729134D01*
X28935714Y15729134D02*
X28816667Y15252943D01*
X28816667Y15252943D02*
X28697619Y15014848D01*
X28697619Y15014848D02*
X28578572Y14895800D01*
X28578572Y14895800D02*
X28340476Y14776753D01*
X28340476Y14776753D02*
X28102381Y14776753D01*
X28102381Y14776753D02*
X27864286Y14895800D01*
X27864286Y14895800D02*
X27745238Y15014848D01*
X27745238Y15014848D02*
X27626191Y15252943D01*
X27626191Y15252943D02*
X27507143Y15729134D01*
X27507143Y15729134D02*
X27507143Y16324372D01*
X27507143Y16324372D02*
X27626191Y16800562D01*
X27626191Y16800562D02*
X27745238Y17038658D01*
X27745238Y17038658D02*
X27864286Y17157705D01*
X27864286Y17157705D02*
X28102381Y17276753D01*
X31078571Y14776753D02*
X31078571Y17276753D01*
X31078571Y14895800D02*
X30840476Y14776753D01*
X30840476Y14776753D02*
X30364285Y14776753D01*
X30364285Y14776753D02*
X30126190Y14895800D01*
X30126190Y14895800D02*
X30007143Y15014848D01*
X30007143Y15014848D02*
X29888095Y15252943D01*
X29888095Y15252943D02*
X29888095Y15967229D01*
X29888095Y15967229D02*
X30007143Y16205324D01*
X30007143Y16205324D02*
X30126190Y16324372D01*
X30126190Y16324372D02*
X30364285Y16443420D01*
X30364285Y16443420D02*
X30840476Y16443420D01*
X30840476Y16443420D02*
X31078571Y16324372D01*
X33102381Y16086277D02*
X33459524Y15967229D01*
X33459524Y15967229D02*
X33578571Y15848181D01*
X33578571Y15848181D02*
X33697619Y15610086D01*
X33697619Y15610086D02*
X33697619Y15252943D01*
X33697619Y15252943D02*
X33578571Y15014848D01*
X33578571Y15014848D02*
X33459524Y14895800D01*
X33459524Y14895800D02*
X33221429Y14776753D01*
X33221429Y14776753D02*
X32269048Y14776753D01*
X32269048Y14776753D02*
X32269048Y17276753D01*
X32269048Y17276753D02*
X33102381Y17276753D01*
X33102381Y17276753D02*
X33340476Y17157705D01*
X33340476Y17157705D02*
X33459524Y17038658D01*
X33459524Y17038658D02*
X33578571Y16800562D01*
X33578571Y16800562D02*
X33578571Y16562467D01*
X33578571Y16562467D02*
X33459524Y16324372D01*
X33459524Y16324372D02*
X33340476Y16205324D01*
X33340476Y16205324D02*
X33102381Y16086277D01*
X33102381Y16086277D02*
X32269048Y16086277D01*
X36554762Y15491039D02*
X37745238Y15491039D01*
X36316667Y14776753D02*
X37150000Y17276753D01*
X37150000Y17276753D02*
X37983333Y14776753D01*
X38459524Y16443420D02*
X39411905Y16443420D01*
X38816667Y17276753D02*
X38816667Y15133896D01*
X38816667Y15133896D02*
X38935714Y14895800D01*
X38935714Y14895800D02*
X39173809Y14776753D01*
X39173809Y14776753D02*
X39411905Y14776753D01*
X39888095Y16443420D02*
X40840476Y16443420D01*
X40245238Y17276753D02*
X40245238Y15133896D01*
X40245238Y15133896D02*
X40364285Y14895800D01*
X40364285Y14895800D02*
X40602380Y14776753D01*
X40602380Y14776753D02*
X40840476Y14776753D01*
X42626190Y14895800D02*
X42388094Y14776753D01*
X42388094Y14776753D02*
X41911904Y14776753D01*
X41911904Y14776753D02*
X41673809Y14895800D01*
X41673809Y14895800D02*
X41554761Y15133896D01*
X41554761Y15133896D02*
X41554761Y16086277D01*
X41554761Y16086277D02*
X41673809Y16324372D01*
X41673809Y16324372D02*
X41911904Y16443420D01*
X41911904Y16443420D02*
X42388094Y16443420D01*
X42388094Y16443420D02*
X42626190Y16324372D01*
X42626190Y16324372D02*
X42745237Y16086277D01*
X42745237Y16086277D02*
X42745237Y15848181D01*
X42745237Y15848181D02*
X41554761Y15610086D01*
X43816666Y16443420D02*
X43816666Y14776753D01*
X43816666Y16205324D02*
X43935713Y16324372D01*
X43935713Y16324372D02*
X44173808Y16443420D01*
X44173808Y16443420D02*
X44530951Y16443420D01*
X44530951Y16443420D02*
X44769047Y16324372D01*
X44769047Y16324372D02*
X44888094Y16086277D01*
X44888094Y16086277D02*
X44888094Y14776753D01*
X47149999Y16443420D02*
X47149999Y14776753D01*
X46078571Y16443420D02*
X46078571Y15133896D01*
X46078571Y15133896D02*
X46197618Y14895800D01*
X46197618Y14895800D02*
X46435713Y14776753D01*
X46435713Y14776753D02*
X46792856Y14776753D01*
X46792856Y14776753D02*
X47030952Y14895800D01*
X47030952Y14895800D02*
X47149999Y15014848D01*
X49411904Y14776753D02*
X49411904Y16086277D01*
X49411904Y16086277D02*
X49292857Y16324372D01*
X49292857Y16324372D02*
X49054761Y16443420D01*
X49054761Y16443420D02*
X48578571Y16443420D01*
X48578571Y16443420D02*
X48340476Y16324372D01*
X49411904Y14895800D02*
X49173809Y14776753D01*
X49173809Y14776753D02*
X48578571Y14776753D01*
X48578571Y14776753D02*
X48340476Y14895800D01*
X48340476Y14895800D02*
X48221428Y15133896D01*
X48221428Y15133896D02*
X48221428Y15371991D01*
X48221428Y15371991D02*
X48340476Y15610086D01*
X48340476Y15610086D02*
X48578571Y15729134D01*
X48578571Y15729134D02*
X49173809Y15729134D01*
X49173809Y15729134D02*
X49411904Y15848181D01*
X50245238Y16443420D02*
X51197619Y16443420D01*
X50602381Y17276753D02*
X50602381Y15133896D01*
X50602381Y15133896D02*
X50721428Y14895800D01*
X50721428Y14895800D02*
X50959523Y14776753D01*
X50959523Y14776753D02*
X51197619Y14776753D01*
X52388094Y14776753D02*
X52149999Y14895800D01*
X52149999Y14895800D02*
X52030952Y15014848D01*
X52030952Y15014848D02*
X51911904Y15252943D01*
X51911904Y15252943D02*
X51911904Y15967229D01*
X51911904Y15967229D02*
X52030952Y16205324D01*
X52030952Y16205324D02*
X52149999Y16324372D01*
X52149999Y16324372D02*
X52388094Y16443420D01*
X52388094Y16443420D02*
X52745237Y16443420D01*
X52745237Y16443420D02*
X52983333Y16324372D01*
X52983333Y16324372D02*
X53102380Y16205324D01*
X53102380Y16205324D02*
X53221428Y15967229D01*
X53221428Y15967229D02*
X53221428Y15252943D01*
X53221428Y15252943D02*
X53102380Y15014848D01*
X53102380Y15014848D02*
X52983333Y14895800D01*
X52983333Y14895800D02*
X52745237Y14776753D01*
X52745237Y14776753D02*
X52388094Y14776753D01*
X54292857Y14776753D02*
X54292857Y16443420D01*
X54292857Y15967229D02*
X54411904Y16205324D01*
X54411904Y16205324D02*
X54530952Y16324372D01*
X54530952Y16324372D02*
X54769047Y16443420D01*
X54769047Y16443420D02*
X55007142Y16443420D01*
X57626190Y17395800D02*
X55483333Y14181515D01*
X58102381Y17276753D02*
X59530952Y17276753D01*
X58816666Y14776753D02*
X58816666Y17276753D01*
X60364286Y14776753D02*
X60364286Y16443420D01*
X60364286Y15967229D02*
X60483333Y16205324D01*
X60483333Y16205324D02*
X60602381Y16324372D01*
X60602381Y16324372D02*
X60840476Y16443420D01*
X60840476Y16443420D02*
X61078571Y16443420D01*
X62983333Y14776753D02*
X62983333Y16086277D01*
X62983333Y16086277D02*
X62864286Y16324372D01*
X62864286Y16324372D02*
X62626190Y16443420D01*
X62626190Y16443420D02*
X62150000Y16443420D01*
X62150000Y16443420D02*
X61911905Y16324372D01*
X62983333Y14895800D02*
X62745238Y14776753D01*
X62745238Y14776753D02*
X62150000Y14776753D01*
X62150000Y14776753D02*
X61911905Y14895800D01*
X61911905Y14895800D02*
X61792857Y15133896D01*
X61792857Y15133896D02*
X61792857Y15371991D01*
X61792857Y15371991D02*
X61911905Y15610086D01*
X61911905Y15610086D02*
X62150000Y15729134D01*
X62150000Y15729134D02*
X62745238Y15729134D01*
X62745238Y15729134D02*
X62983333Y15848181D01*
X64173810Y16443420D02*
X64173810Y14776753D01*
X64173810Y16205324D02*
X64292857Y16324372D01*
X64292857Y16324372D02*
X64530952Y16443420D01*
X64530952Y16443420D02*
X64888095Y16443420D01*
X64888095Y16443420D02*
X65126191Y16324372D01*
X65126191Y16324372D02*
X65245238Y16086277D01*
X65245238Y16086277D02*
X65245238Y14776753D01*
X66316667Y14895800D02*
X66554762Y14776753D01*
X66554762Y14776753D02*
X67030953Y14776753D01*
X67030953Y14776753D02*
X67269048Y14895800D01*
X67269048Y14895800D02*
X67388096Y15133896D01*
X67388096Y15133896D02*
X67388096Y15252943D01*
X67388096Y15252943D02*
X67269048Y15491039D01*
X67269048Y15491039D02*
X67030953Y15610086D01*
X67030953Y15610086D02*
X66673810Y15610086D01*
X66673810Y15610086D02*
X66435715Y15729134D01*
X66435715Y15729134D02*
X66316667Y15967229D01*
X66316667Y15967229D02*
X66316667Y16086277D01*
X66316667Y16086277D02*
X66435715Y16324372D01*
X66435715Y16324372D02*
X66673810Y16443420D01*
X66673810Y16443420D02*
X67030953Y16443420D01*
X67030953Y16443420D02*
X67269048Y16324372D01*
X68459525Y14776753D02*
X68459525Y16443420D01*
X68459525Y17276753D02*
X68340477Y17157705D01*
X68340477Y17157705D02*
X68459525Y17038658D01*
X68459525Y17038658D02*
X68578572Y17157705D01*
X68578572Y17157705D02*
X68459525Y17276753D01*
X68459525Y17276753D02*
X68459525Y17038658D01*
X70602382Y14895800D02*
X70364286Y14776753D01*
X70364286Y14776753D02*
X69888096Y14776753D01*
X69888096Y14776753D02*
X69650001Y14895800D01*
X69650001Y14895800D02*
X69530953Y15133896D01*
X69530953Y15133896D02*
X69530953Y16086277D01*
X69530953Y16086277D02*
X69650001Y16324372D01*
X69650001Y16324372D02*
X69888096Y16443420D01*
X69888096Y16443420D02*
X70364286Y16443420D01*
X70364286Y16443420D02*
X70602382Y16324372D01*
X70602382Y16324372D02*
X70721429Y16086277D01*
X70721429Y16086277D02*
X70721429Y15848181D01*
X70721429Y15848181D02*
X69530953Y15610086D01*
X71792858Y16443420D02*
X71792858Y14776753D01*
X71792858Y16205324D02*
X71911905Y16324372D01*
X71911905Y16324372D02*
X72150000Y16443420D01*
X72150000Y16443420D02*
X72507143Y16443420D01*
X72507143Y16443420D02*
X72745239Y16324372D01*
X72745239Y16324372D02*
X72864286Y16086277D01*
X72864286Y16086277D02*
X72864286Y14776753D01*
X73697620Y16443420D02*
X74650001Y16443420D01*
X74054763Y17276753D02*
X74054763Y15133896D01*
X74054763Y15133896D02*
X74173810Y14895800D01*
X74173810Y14895800D02*
X74411905Y14776753D01*
X74411905Y14776753D02*
X74650001Y14776753D01*
X78578572Y14776753D02*
X77388096Y14776753D01*
X77388096Y14776753D02*
X77388096Y17276753D01*
X79411906Y14776753D02*
X79411906Y16443420D01*
X79411906Y17276753D02*
X79292858Y17157705D01*
X79292858Y17157705D02*
X79411906Y17038658D01*
X79411906Y17038658D02*
X79530953Y17157705D01*
X79530953Y17157705D02*
X79411906Y17276753D01*
X79411906Y17276753D02*
X79411906Y17038658D01*
X80602382Y14776753D02*
X80602382Y16443420D01*
X80602382Y16205324D02*
X80721429Y16324372D01*
X80721429Y16324372D02*
X80959524Y16443420D01*
X80959524Y16443420D02*
X81316667Y16443420D01*
X81316667Y16443420D02*
X81554763Y16324372D01*
X81554763Y16324372D02*
X81673810Y16086277D01*
X81673810Y16086277D02*
X81673810Y14776753D01*
X81673810Y16086277D02*
X81792858Y16324372D01*
X81792858Y16324372D02*
X82030953Y16443420D01*
X82030953Y16443420D02*
X82388096Y16443420D01*
X82388096Y16443420D02*
X82626191Y16324372D01*
X82626191Y16324372D02*
X82745239Y16086277D01*
X82745239Y16086277D02*
X82745239Y14776753D01*
X83935715Y14776753D02*
X83935715Y16443420D01*
X83935715Y17276753D02*
X83816667Y17157705D01*
X83816667Y17157705D02*
X83935715Y17038658D01*
X83935715Y17038658D02*
X84054762Y17157705D01*
X84054762Y17157705D02*
X83935715Y17276753D01*
X83935715Y17276753D02*
X83935715Y17038658D01*
X84769048Y16443420D02*
X85721429Y16443420D01*
X85126191Y17276753D02*
X85126191Y15133896D01*
X85126191Y15133896D02*
X85245238Y14895800D01*
X85245238Y14895800D02*
X85483333Y14776753D01*
X85483333Y14776753D02*
X85721429Y14776753D01*
X87507143Y14895800D02*
X87269047Y14776753D01*
X87269047Y14776753D02*
X86792857Y14776753D01*
X86792857Y14776753D02*
X86554762Y14895800D01*
X86554762Y14895800D02*
X86435714Y15133896D01*
X86435714Y15133896D02*
X86435714Y16086277D01*
X86435714Y16086277D02*
X86554762Y16324372D01*
X86554762Y16324372D02*
X86792857Y16443420D01*
X86792857Y16443420D02*
X87269047Y16443420D01*
X87269047Y16443420D02*
X87507143Y16324372D01*
X87507143Y16324372D02*
X87626190Y16086277D01*
X87626190Y16086277D02*
X87626190Y15848181D01*
X87626190Y15848181D02*
X86435714Y15610086D01*
X88697619Y14776753D02*
X88697619Y16443420D01*
X88697619Y15967229D02*
X88816666Y16205324D01*
X88816666Y16205324D02*
X88935714Y16324372D01*
X88935714Y16324372D02*
X89173809Y16443420D01*
X89173809Y16443420D02*
X89411904Y16443420D01*
D11*
X107106857Y26750001D02*
X104106857Y26750001D01*
X104106857Y26750001D02*
X104106857Y27464287D01*
X104106857Y27464287D02*
X104249714Y27892858D01*
X104249714Y27892858D02*
X104535428Y28178573D01*
X104535428Y28178573D02*
X104821142Y28321430D01*
X104821142Y28321430D02*
X105392571Y28464287D01*
X105392571Y28464287D02*
X105821142Y28464287D01*
X105821142Y28464287D02*
X106392571Y28321430D01*
X106392571Y28321430D02*
X106678285Y28178573D01*
X106678285Y28178573D02*
X106964000Y27892858D01*
X106964000Y27892858D02*
X107106857Y27464287D01*
X107106857Y27464287D02*
X107106857Y26750001D01*
X104106857Y29750001D02*
X106535428Y29750001D01*
X106535428Y29750001D02*
X106821142Y29892858D01*
X106821142Y29892858D02*
X106964000Y30035715D01*
X106964000Y30035715D02*
X107106857Y30321430D01*
X107106857Y30321430D02*
X107106857Y30892858D01*
X107106857Y30892858D02*
X106964000Y31178573D01*
X106964000Y31178573D02*
X106821142Y31321430D01*
X106821142Y31321430D02*
X106535428Y31464287D01*
X106535428Y31464287D02*
X104106857Y31464287D01*
X104106857Y32464287D02*
X104106857Y34178572D01*
X107106857Y33321430D02*
X104106857Y33321430D01*
D10*
X90931809Y10054134D02*
X87884190Y10054134D01*
X90931809Y50554134D02*
X87884190Y50554134D01*
X89407999Y49030324D02*
X89407999Y52077943D01*
X24383809Y50554134D02*
X21336190Y50554134D01*
X22859999Y49030324D02*
X22859999Y52077943D01*
D12*
%TO.C,J1*%
X26700000Y33776500D02*
X30300000Y33776500D01*
X32180000Y39256500D02*
X32180000Y35656500D01*
X26700000Y41136500D02*
X30300000Y41136500D01*
X24820000Y39256500D02*
X24820000Y35656500D01*
%TO.C,J2*%
X32180000Y24800000D02*
X32180000Y21200000D01*
X26700000Y19320000D02*
X30300000Y19320000D01*
X26700000Y26680000D02*
X30300000Y26680000D01*
X24820000Y24800000D02*
X24820000Y21200000D01*
D13*
%TO.C,J4*%
X17839800Y30200000D02*
G75*
G02*
X12160200Y30200000I-2839800J0D01*
G01*
X12160200Y30200000D02*
G75*
G02*
X17839800Y30200000I2839800J0D01*
G01*
D14*
%TO.C,H1*%
X7300000Y5000000D02*
G75*
G02*
X3000000Y5000000I-2150000J0D01*
G01*
X3000000Y5000000D02*
G75*
G02*
X7300000Y5000000I2150000J0D01*
G01*
D15*
X9722000Y5000000D02*
G75*
G02*
X578000Y5000000I-4572000J0D01*
G01*
X578000Y5000000D02*
G75*
G02*
X9722000Y5000000I4572000J0D01*
G01*
D14*
%TO.C,H2*%
X7300000Y55500000D02*
G75*
G02*
X3000000Y55500000I-2150000J0D01*
G01*
X3000000Y55500000D02*
G75*
G02*
X7300000Y55500000I2150000J0D01*
G01*
D15*
X9722000Y55500000D02*
G75*
G02*
X578000Y55500000I-4572000J0D01*
G01*
X578000Y55500000D02*
G75*
G02*
X9722000Y55500000I4572000J0D01*
G01*
%TO.C,H3*%
X111822000Y55500000D02*
G75*
G02*
X102678000Y55500000I-4572000J0D01*
G01*
X102678000Y55500000D02*
G75*
G02*
X111822000Y55500000I4572000J0D01*
G01*
D14*
X109400000Y55500000D02*
G75*
G02*
X105100000Y55500000I-2150000J0D01*
G01*
X105100000Y55500000D02*
G75*
G02*
X109400000Y55500000I2150000J0D01*
G01*
%TO.C,H4*%
X109400000Y5000000D02*
G75*
G02*
X105100000Y5000000I-2150000J0D01*
G01*
X105100000Y5000000D02*
G75*
G02*
X109400000Y5000000I2150000J0D01*
G01*
D15*
X111822000Y5000000D02*
G75*
G02*
X102678000Y5000000I-4572000J0D01*
G01*
X102678000Y5000000D02*
G75*
G02*
X111822000Y5000000I4572000J0D01*
G01*
D13*
%TO.C,J3*%
X17839800Y49260000D02*
G75*
G02*
X12160200Y49260000I-2839800J0D01*
G01*
X12160200Y49260000D02*
G75*
G02*
X17839800Y49260000I2839800J0D01*
G01*
%TO.C,J5*%
X17839800Y11140000D02*
G75*
G02*
X12160200Y11140000I-2839800J0D01*
G01*
X12160200Y11140000D02*
G75*
G02*
X17839800Y11140000I2839800J0D01*
G01*
%TO.C,J6*%
X100239800Y30200000D02*
G75*
G02*
X94560200Y30200000I-2839800J0D01*
G01*
X94560200Y30200000D02*
G75*
G02*
X100239800Y30200000I2839800J0D01*
G01*
%TO.C,J7*%
X100239800Y49260000D02*
G75*
G02*
X94560200Y49260000I-2839800J0D01*
G01*
X94560200Y49260000D02*
G75*
G02*
X100239800Y49260000I2839800J0D01*
G01*
%TO.C,J8*%
X100239800Y11140000D02*
G75*
G02*
X94560200Y11140000I-2839800J0D01*
G01*
X94560200Y11140000D02*
G75*
G02*
X100239800Y11140000I2839800J0D01*
G01*
%TD*%
%LPC*%
D16*
%TO.C,J1*%
X28500000Y37456500D03*
D17*
X25960000Y39996500D03*
X31040000Y34916500D03*
X25960000Y34916500D03*
X31040000Y39996500D03*
%TD*%
D16*
%TO.C,J2*%
X28500000Y23000000D03*
D17*
X25960000Y25540000D03*
X25960000Y20460000D03*
X31040000Y20460000D03*
X31040000Y25540000D03*
%TD*%
D18*
%TO.C,J4*%
X15000000Y30200000D03*
%TD*%
D19*
%TO.C,H1*%
X5150000Y5000000D03*
%TD*%
%TO.C,H2*%
X5150000Y55500000D03*
%TD*%
%TO.C,H3*%
X107250000Y55500000D03*
%TD*%
%TO.C,H4*%
X107250000Y5000000D03*
%TD*%
D18*
%TO.C,J3*%
X15000000Y49260000D03*
%TD*%
%TO.C,J5*%
X15000000Y11140000D03*
%TD*%
%TO.C,J6*%
X97400000Y30200000D03*
%TD*%
%TO.C,J7*%
X97400000Y49260000D03*
%TD*%
%TO.C,J8*%
X97400000Y11140000D03*
%TD*%
%LPD*%
M02*
