%TF.GenerationSoftware,KiCad,Pcbnew,8.0.6*%
%TF.CreationDate,2024-11-13T10:13:59+01:00*%
%TF.ProjectId,5uH_LISN,3575485f-4c49-4534-9e2e-6b696361645f,V1 R0*%
%TF.SameCoordinates,Original*%
%TF.FileFunction,Copper,L2,Bot*%
%TF.FilePolarity,Positive*%
%FSLAX46Y46*%
G04 Gerber Fmt 4.6, Leading zero omitted, Abs format (unit mm)*
G04 Created by KiCad (PCBNEW 8.0.6) date 2024-11-13 10:13:59*
%MOMM*%
%LPD*%
G01*
G04 APERTURE LIST*
G04 Aperture macros list*
%AMRoundRect*
0 Rectangle with rounded corners*
0 $1 Rounding radius*
0 $2 $3 $4 $5 $6 $7 $8 $9 X,Y pos of 4 corners*
0 Add a 4 corners polygon primitive as box body*
4,1,4,$2,$3,$4,$5,$6,$7,$8,$9,$2,$3,0*
0 Add four circle primitives for the rounded corners*
1,1,$1+$1,$2,$3*
1,1,$1+$1,$4,$5*
1,1,$1+$1,$6,$7*
1,1,$1+$1,$8,$9*
0 Add four rect primitives between the rounded corners*
20,1,$1+$1,$2,$3,$4,$5,0*
20,1,$1+$1,$4,$5,$6,$7,0*
20,1,$1+$1,$6,$7,$8,$9,0*
20,1,$1+$1,$8,$9,$2,$3,0*%
G04 Aperture macros list end*
%TA.AperFunction,ComponentPad*%
%ADD10C,2.050000*%
%TD*%
%TA.AperFunction,ComponentPad*%
%ADD11C,2.250000*%
%TD*%
%TA.AperFunction,ComponentPad*%
%ADD12C,10.000000*%
%TD*%
%TA.AperFunction,ComponentPad*%
%ADD13C,8.000000*%
%TD*%
%TA.AperFunction,SMDPad,CuDef*%
%ADD14RoundRect,0.250000X-2.450000X0.650000X-2.450000X-0.650000X2.450000X-0.650000X2.450000X0.650000X0*%
%TD*%
%TA.AperFunction,SMDPad,CuDef*%
%ADD15RoundRect,0.250000X2.450000X-0.650000X2.450000X0.650000X-2.450000X0.650000X-2.450000X-0.650000X0*%
%TD*%
%TA.AperFunction,SMDPad,CuDef*%
%ADD16RoundRect,0.249999X-1.100001X0.325001X-1.100001X-0.325001X1.100001X-0.325001X1.100001X0.325001X0*%
%TD*%
%TA.AperFunction,SMDPad,CuDef*%
%ADD17RoundRect,0.249999X1.100001X-0.325001X1.100001X0.325001X-1.100001X0.325001X-1.100001X-0.325001X0*%
%TD*%
%TA.AperFunction,SMDPad,CuDef*%
%ADD18R,0.914400X0.914400*%
%TD*%
%TA.AperFunction,SMDPad,CuDef*%
%ADD19R,2.540000X1.016000*%
%TD*%
%TA.AperFunction,SMDPad,CuDef*%
%ADD20RoundRect,0.249998X0.450002X-0.262502X0.450002X0.262502X-0.450002X0.262502X-0.450002X-0.262502X0*%
%TD*%
%TA.AperFunction,SMDPad,CuDef*%
%ADD21RoundRect,0.249998X-0.450002X0.262502X-0.450002X-0.262502X0.450002X-0.262502X0.450002X0.262502X0*%
%TD*%
%TA.AperFunction,SMDPad,CuDef*%
%ADD22RoundRect,0.249999X-2.125001X0.275001X-2.125001X-0.275001X2.125001X-0.275001X2.125001X0.275001X0*%
%TD*%
%TA.AperFunction,SMDPad,CuDef*%
%ADD23RoundRect,0.249999X2.125001X-0.275001X2.125001X0.275001X-2.125001X0.275001X-2.125001X-0.275001X0*%
%TD*%
%TA.AperFunction,SMDPad,CuDef*%
%ADD24RoundRect,0.249997X-0.312503X-0.625003X0.312503X-0.625003X0.312503X0.625003X-0.312503X0.625003X0*%
%TD*%
%TA.AperFunction,SMDPad,CuDef*%
%ADD25RoundRect,0.249997X-0.625003X0.312503X-0.625003X-0.312503X0.625003X-0.312503X0.625003X0.312503X0*%
%TD*%
%TA.AperFunction,SMDPad,CuDef*%
%ADD26RoundRect,0.249997X0.625003X-0.312503X0.625003X0.312503X-0.625003X0.312503X-0.625003X-0.312503X0*%
%TD*%
%TA.AperFunction,SMDPad,CuDef*%
%ADD27RoundRect,0.250000X-0.250000X-0.475000X0.250000X-0.475000X0.250000X0.475000X-0.250000X0.475000X0*%
%TD*%
%TA.AperFunction,SMDPad,CuDef*%
%ADD28RoundRect,0.249999X-0.650001X0.325001X-0.650001X-0.325001X0.650001X-0.325001X0.650001X0.325001X0*%
%TD*%
%TA.AperFunction,SMDPad,CuDef*%
%ADD29RoundRect,0.249999X0.650001X-0.325001X0.650001X0.325001X-0.650001X0.325001X-0.650001X-0.325001X0*%
%TD*%
%TA.AperFunction,SMDPad,CuDef*%
%ADD30R,3.600000X1.050000*%
%TD*%
%TA.AperFunction,SMDPad,CuDef*%
%ADD31R,3.000000X3.000000*%
%TD*%
%TA.AperFunction,ViaPad*%
%ADD32C,0.900000*%
%TD*%
%TA.AperFunction,ViaPad*%
%ADD33C,0.800000*%
%TD*%
%TA.AperFunction,Conductor*%
%ADD34C,3.000000*%
%TD*%
%TA.AperFunction,Conductor*%
%ADD35C,1.774160*%
%TD*%
%TA.AperFunction,Conductor*%
%ADD36C,1.231000*%
%TD*%
G04 APERTURE END LIST*
D10*
%TO.P,J1,1,In*%
%TO.N,Net-(D1-Pad3)*%
X28500000Y37456500D03*
D11*
%TO.P,J1,2,Ext*%
%TO.N,GND*%
X25960000Y39996500D03*
X31040000Y34916500D03*
X25960000Y34916500D03*
X31040000Y39996500D03*
%TD*%
D10*
%TO.P,J2,1,In*%
%TO.N,Net-(D3-Pad3)*%
X28500000Y23000000D03*
D11*
%TO.P,J2,2,Ext*%
%TO.N,GND*%
X25960000Y25540000D03*
X25960000Y20460000D03*
X31040000Y20460000D03*
X31040000Y25540000D03*
%TD*%
D12*
%TO.P,J4,P$1,1*%
%TO.N,GND*%
X15000000Y30200000D03*
%TD*%
D13*
%TO.P,H1,B4\u002C1,MOUNT*%
%TO.N,GND*%
X5150000Y5000000D03*
%TD*%
%TO.P,H2,B4\u002C1,MOUNT*%
%TO.N,GND*%
X5150000Y55500000D03*
%TD*%
%TO.P,H3,B4\u002C1,MOUNT*%
%TO.N,GND*%
X107250000Y55500000D03*
%TD*%
%TO.P,H4,B4\u002C1,MOUNT*%
%TO.N,GND*%
X107250000Y5000000D03*
%TD*%
D12*
%TO.P,J3,P$1,1*%
%TO.N,Net-(C1-Pad1)*%
X15000000Y49260000D03*
%TD*%
%TO.P,J5,P$1,1*%
%TO.N,Net-(C2-Pad1)*%
X15000000Y11140000D03*
%TD*%
%TO.P,J6,P$1,1*%
%TO.N,GND*%
X97400000Y30200000D03*
%TD*%
%TO.P,J7,P$1,1*%
%TO.N,Net-(C15-Pad1)*%
X97400000Y49260000D03*
%TD*%
%TO.P,J8,P$1,1*%
%TO.N,Net-(C16-Pad1)*%
X97400000Y11140000D03*
%TD*%
D14*
%TO.P,C1,1*%
%TO.N,Net-(C1-Pad1)*%
X7266000Y46484000D03*
%TO.P,C1,2*%
%TO.N,Net-(C1-Pad2)*%
X7266000Y41384000D03*
%TD*%
D15*
%TO.P,C2,1*%
%TO.N,Net-(C2-Pad1)*%
X7324000Y13927000D03*
%TO.P,C2,2*%
%TO.N,Net-(C2-Pad2)*%
X7324000Y19027000D03*
%TD*%
D16*
%TO.P,C5,1*%
%TO.N,Net-(C1-Pad1)*%
X17628000Y43575000D03*
%TO.P,C5,2*%
%TO.N,Net-(C5-Pad2)*%
X17628000Y40625000D03*
%TD*%
D17*
%TO.P,C6,1*%
%TO.N,Net-(C2-Pad1)*%
X12028000Y16814000D03*
%TO.P,C6,2*%
%TO.N,Net-(C6-Pad2)*%
X12028000Y19764000D03*
%TD*%
D16*
%TO.P,C7,1*%
%TO.N,Net-(C1-Pad1)*%
X12028000Y43575000D03*
%TO.P,C7,2*%
%TO.N,Net-(C5-Pad2)*%
X12028000Y40625000D03*
%TD*%
D17*
%TO.P,C8,1*%
%TO.N,Net-(C2-Pad1)*%
X17628000Y16864000D03*
%TO.P,C8,2*%
%TO.N,Net-(C6-Pad2)*%
X17628000Y19814000D03*
%TD*%
D18*
%TO.P,D1,1,1*%
%TO.N,GND*%
X35589000Y35384000D03*
%TO.P,D1,2,2*%
X33811000Y35384000D03*
%TO.P,D1,3,3*%
%TO.N,Net-(D1-Pad3)*%
X34700000Y37416000D03*
%TD*%
%TO.P,D2,1,1*%
%TO.N,GND*%
X53489000Y35334000D03*
%TO.P,D2,2,2*%
X51711000Y35334000D03*
%TO.P,D2,3,3*%
%TO.N,Net-(D2-Pad3)*%
X52600000Y37366000D03*
%TD*%
%TO.P,D3,1,1*%
%TO.N,GND*%
X35589000Y20934000D03*
%TO.P,D3,2,2*%
X33811000Y20934000D03*
%TO.P,D3,3,3*%
%TO.N,Net-(D3-Pad3)*%
X34700000Y22966000D03*
%TD*%
%TO.P,D4,1,1*%
%TO.N,GND*%
X53489000Y20834000D03*
%TO.P,D4,2,2*%
X51711000Y20834000D03*
%TO.P,D4,3,3*%
%TO.N,Net-(D4-Pad3)*%
X52600000Y22866000D03*
%TD*%
D19*
%TO.P,L6,P$1,1*%
%TO.N,Net-(C11-Pad2)*%
X68700000Y37243000D03*
%TO.P,L6,P$2,2*%
%TO.N,GND*%
X68700000Y34957000D03*
%TD*%
D20*
%TO.P,R1,1,1*%
%TO.N,GND*%
X39044000Y35631500D03*
%TO.P,R1,2,2*%
%TO.N,Net-(D1-Pad3)*%
X39044000Y37456500D03*
%TD*%
D21*
%TO.P,R2,1,1*%
%TO.N,GND*%
X39044000Y24825000D03*
%TO.P,R2,2,2*%
%TO.N,Net-(D3-Pad3)*%
X39044000Y23000000D03*
%TD*%
D22*
%TO.P,R3,1*%
%TO.N,Net-(C1-Pad2)*%
X7266000Y39303000D03*
%TO.P,R3,2*%
%TO.N,GND*%
X7266000Y36353000D03*
%TD*%
D23*
%TO.P,R4,1*%
%TO.N,Net-(C2-Pad2)*%
X7324000Y21098000D03*
%TO.P,R4,2*%
%TO.N,GND*%
X7324000Y24048000D03*
%TD*%
D20*
%TO.P,R5,1,1*%
%TO.N,GND*%
X41076000Y35631500D03*
%TO.P,R5,2,2*%
%TO.N,Net-(D1-Pad3)*%
X41076000Y37456500D03*
%TD*%
D21*
%TO.P,R6,1,1*%
%TO.N,GND*%
X41076000Y24825000D03*
%TO.P,R6,2,2*%
%TO.N,Net-(D3-Pad3)*%
X41076000Y23000000D03*
%TD*%
D24*
%TO.P,R7,1,1*%
%TO.N,Net-(D1-Pad3)*%
X42915500Y37453000D03*
%TO.P,R7,2,2*%
%TO.N,Net-(D2-Pad3)*%
X45840500Y37453000D03*
%TD*%
%TO.P,R8,1,1*%
%TO.N,Net-(D3-Pad3)*%
X42915500Y23014000D03*
%TO.P,R8,2,2*%
%TO.N,Net-(D4-Pad3)*%
X45840500Y23014000D03*
%TD*%
D25*
%TO.P,R9,1*%
%TO.N,Net-(C5-Pad2)*%
X20428000Y40512500D03*
%TO.P,R9,2*%
%TO.N,GND*%
X20428000Y37587500D03*
%TD*%
D26*
%TO.P,R10,1*%
%TO.N,Net-(C6-Pad2)*%
X14828000Y19876500D03*
%TO.P,R10,2*%
%TO.N,GND*%
X14828000Y22801500D03*
%TD*%
D20*
%TO.P,R11,1,1*%
%TO.N,GND*%
X47680000Y35631500D03*
%TO.P,R11,2,2*%
%TO.N,Net-(D2-Pad3)*%
X47680000Y37456500D03*
%TD*%
D21*
%TO.P,R12,1,1*%
%TO.N,GND*%
X47680000Y24825000D03*
%TO.P,R12,2,2*%
%TO.N,Net-(D4-Pad3)*%
X47680000Y23000000D03*
%TD*%
D25*
%TO.P,R13,1*%
%TO.N,Net-(C5-Pad2)*%
X14828000Y40512500D03*
%TO.P,R13,2*%
%TO.N,GND*%
X14828000Y37587500D03*
%TD*%
D26*
%TO.P,R14,1*%
%TO.N,Net-(C6-Pad2)*%
X20428000Y19876500D03*
%TO.P,R14,2*%
%TO.N,GND*%
X20428000Y22801500D03*
%TD*%
D20*
%TO.P,R15,1,1*%
%TO.N,GND*%
X49712000Y35631500D03*
%TO.P,R15,2,2*%
%TO.N,Net-(D2-Pad3)*%
X49712000Y37456500D03*
%TD*%
D21*
%TO.P,R16,1,1*%
%TO.N,GND*%
X49712000Y24825000D03*
%TO.P,R16,2,2*%
%TO.N,Net-(D4-Pad3)*%
X49712000Y23000000D03*
%TD*%
D27*
%TO.P,C11,1,1*%
%TO.N,Net-(C11-Pad1)*%
X64010000Y37453000D03*
%TO.P,C11,2,2*%
%TO.N,Net-(C11-Pad2)*%
X65910000Y37453000D03*
%TD*%
%TO.P,C12,1,1*%
%TO.N,Net-(C12-Pad1)*%
X64010000Y23014000D03*
%TO.P,C12,2,2*%
%TO.N,Net-(C12-Pad2)*%
X65910000Y23014000D03*
%TD*%
%TO.P,C13,1,1*%
%TO.N,Net-(C11-Pad2)*%
X71630000Y37453000D03*
%TO.P,C13,2,2*%
%TO.N,Net-(C13-Pad2)*%
X73530000Y37453000D03*
%TD*%
%TO.P,C14,1,1*%
%TO.N,Net-(C12-Pad2)*%
X71630000Y23014000D03*
%TO.P,C14,2,2*%
%TO.N,Net-(C14-Pad2)*%
X73530000Y23014000D03*
%TD*%
D28*
%TO.P,C15,1,1*%
%TO.N,Net-(C15-Pad1)*%
X92000000Y43791000D03*
%TO.P,C15,2,2*%
%TO.N,Net-(C15-Pad2)*%
X92000000Y40841000D03*
%TD*%
D29*
%TO.P,C16,1,1*%
%TO.N,Net-(C16-Pad1)*%
X92042000Y16559000D03*
%TO.P,C16,2,2*%
%TO.N,Net-(C16-Pad2)*%
X92042000Y19509000D03*
%TD*%
D24*
%TO.P,R17,1,1*%
%TO.N,Net-(D2-Pad3)*%
X55369500Y37453000D03*
%TO.P,R17,2,2*%
%TO.N,Net-(C11-Pad1)*%
X58294500Y37453000D03*
%TD*%
%TO.P,R18,1,1*%
%TO.N,Net-(D4-Pad3)*%
X55369500Y23014000D03*
%TO.P,R18,2,2*%
%TO.N,Net-(C12-Pad1)*%
X58294500Y23014000D03*
%TD*%
D20*
%TO.P,R19,1,1*%
%TO.N,GND*%
X60134000Y35631500D03*
%TO.P,R19,2,2*%
%TO.N,Net-(C11-Pad1)*%
X60134000Y37456500D03*
%TD*%
D21*
%TO.P,R20,1,1*%
%TO.N,GND*%
X60134000Y24825000D03*
%TO.P,R20,2,2*%
%TO.N,Net-(C12-Pad1)*%
X60134000Y23000000D03*
%TD*%
D20*
%TO.P,R21,1,1*%
%TO.N,GND*%
X62166000Y35631500D03*
%TO.P,R21,2,2*%
%TO.N,Net-(C11-Pad1)*%
X62166000Y37456500D03*
%TD*%
D21*
%TO.P,R22,1,1*%
%TO.N,GND*%
X62166000Y24825000D03*
%TO.P,R22,2,2*%
%TO.N,Net-(C12-Pad1)*%
X62166000Y23000000D03*
%TD*%
D20*
%TO.P,R23,1,1*%
%TO.N,GND*%
X75374000Y35631500D03*
%TO.P,R23,2,2*%
%TO.N,Net-(C13-Pad2)*%
X75374000Y37456500D03*
%TD*%
D21*
%TO.P,R24,1,1*%
%TO.N,GND*%
X75374000Y24825000D03*
%TO.P,R24,2,2*%
%TO.N,Net-(C14-Pad2)*%
X75374000Y23000000D03*
%TD*%
D20*
%TO.P,R25,1,1*%
%TO.N,GND*%
X77406000Y35631500D03*
%TO.P,R25,2,2*%
%TO.N,Net-(C13-Pad2)*%
X77406000Y37456500D03*
%TD*%
D21*
%TO.P,R26,1,1*%
%TO.N,GND*%
X77406000Y24825000D03*
%TO.P,R26,2,2*%
%TO.N,Net-(C14-Pad2)*%
X77406000Y23000000D03*
%TD*%
D24*
%TO.P,R27,1,1*%
%TO.N,Net-(C13-Pad2)*%
X79245500Y37453000D03*
%TO.P,R27,2,2*%
%TO.N,Net-(C15-Pad2)*%
X82170500Y37453000D03*
%TD*%
%TO.P,R28,1,1*%
%TO.N,Net-(C14-Pad2)*%
X79245500Y23014000D03*
%TO.P,R28,2,2*%
%TO.N,Net-(C16-Pad2)*%
X82170500Y23014000D03*
%TD*%
D20*
%TO.P,R29,1,1*%
%TO.N,GND*%
X86042000Y35637500D03*
%TO.P,R29,2,2*%
%TO.N,Net-(C15-Pad2)*%
X86042000Y37462500D03*
%TD*%
D21*
%TO.P,R30,1,1*%
%TO.N,GND*%
X86042000Y24825000D03*
%TO.P,R30,2,2*%
%TO.N,Net-(C16-Pad2)*%
X86042000Y23000000D03*
%TD*%
D20*
%TO.P,R31,1,1*%
%TO.N,GND*%
X84010000Y35637500D03*
%TO.P,R31,2,2*%
%TO.N,Net-(C15-Pad2)*%
X84010000Y37462500D03*
%TD*%
D21*
%TO.P,R32,1,1*%
%TO.N,GND*%
X84010000Y24825000D03*
%TO.P,R32,2,2*%
%TO.N,Net-(C16-Pad2)*%
X84010000Y23000000D03*
%TD*%
D30*
%TO.P,GD1,1*%
%TO.N,GND*%
X89924000Y32602000D03*
%TO.P,GD1,2*%
%TO.N,Net-(C15-Pad2)*%
X89924000Y37452000D03*
%TD*%
%TO.P,GD2,1*%
%TO.N,GND*%
X89924000Y27850000D03*
%TO.P,GD2,2*%
%TO.N,Net-(C16-Pad2)*%
X89924000Y23000000D03*
%TD*%
D31*
%TO.P,L8,1,1*%
%TO.N,Net-(L7-Pad2)*%
X40700000Y10000000D03*
%TO.P,L8,2,2*%
%TO.N,Net-(L8-Pad2)*%
X46300000Y10000000D03*
%TD*%
%TO.P,L7,1,1*%
%TO.N,Net-(C2-Pad1)*%
X28700000Y10000000D03*
%TO.P,L7,2,2*%
%TO.N,Net-(L7-Pad2)*%
X34300000Y10000000D03*
%TD*%
%TO.P,L11,1,1*%
%TO.N,Net-(L10-Pad2)*%
X77700000Y10000000D03*
%TO.P,L11,2,2*%
%TO.N,Net-(C16-Pad1)*%
X83300000Y10000000D03*
%TD*%
%TO.P,L10,1,1*%
%TO.N,Net-(L10-Pad1)*%
X65200000Y10000000D03*
%TO.P,L10,2,2*%
%TO.N,Net-(L10-Pad2)*%
X70800000Y10000000D03*
%TD*%
%TO.P,L4,1,1*%
%TO.N,Net-(L3-Pad2)*%
X65200000Y50500000D03*
%TO.P,L4,2,2*%
%TO.N,Net-(L4-Pad2)*%
X70800000Y50500000D03*
%TD*%
D19*
%TO.P,L12,P$1,1*%
%TO.N,Net-(C12-Pad2)*%
X68800000Y23143000D03*
%TO.P,L12,P$2,2*%
%TO.N,GND*%
X68800000Y20857000D03*
%TD*%
D31*
%TO.P,L2,1,1*%
%TO.N,Net-(L1-Pad2)*%
X40700000Y50500000D03*
%TO.P,L2,2,2*%
%TO.N,Net-(L2-Pad2)*%
X46300000Y50500000D03*
%TD*%
%TO.P,L1,1,1*%
%TO.N,Net-(C1-Pad1)*%
X29300000Y50500000D03*
%TO.P,L1,2,2*%
%TO.N,Net-(L1-Pad2)*%
X34900000Y50500000D03*
%TD*%
%TO.P,L3,1,1*%
%TO.N,Net-(L2-Pad2)*%
X53200000Y50500000D03*
%TO.P,L3,2,2*%
%TO.N,Net-(L3-Pad2)*%
X58800000Y50500000D03*
%TD*%
%TO.P,L9,1,1*%
%TO.N,Net-(L8-Pad2)*%
X53200000Y10000000D03*
%TO.P,L9,2,2*%
%TO.N,Net-(L10-Pad1)*%
X58800000Y10000000D03*
%TD*%
%TO.P,L5,1,1*%
%TO.N,Net-(L4-Pad2)*%
X77700000Y50500000D03*
%TO.P,L5,2,2*%
%TO.N,Net-(C15-Pad1)*%
X83300000Y50500000D03*
%TD*%
D32*
%TO.N,GND*%
X11176000Y59436000D03*
X13716000Y59436000D03*
X16256000Y59436000D03*
X18796000Y59436000D03*
X21336000Y59436000D03*
X23876000Y59436000D03*
X26416000Y59436000D03*
X28956000Y59436000D03*
X31496000Y59436000D03*
X34036000Y59436000D03*
X36576000Y59436000D03*
X39116000Y59436000D03*
X41656000Y59436000D03*
X44196000Y59436000D03*
X46736000Y59436000D03*
X49276000Y59436000D03*
X51816000Y59436000D03*
X54356000Y59436000D03*
X56896000Y59436000D03*
X59436000Y59436000D03*
X61976000Y59436000D03*
X64516000Y59436000D03*
X67056000Y59436000D03*
X69596000Y59436000D03*
X72136000Y59436000D03*
X74676000Y59436000D03*
X77216000Y59436000D03*
X79756000Y59436000D03*
X82296000Y59436000D03*
X84836000Y59436000D03*
X87376000Y59436000D03*
X89916000Y59436000D03*
X92456000Y59436000D03*
X94996000Y59436000D03*
X97536000Y59436000D03*
X100076000Y59436000D03*
X102616000Y59436000D03*
X72644000Y1270000D03*
X75184000Y1270000D03*
X26924000Y1270000D03*
X62484000Y1270000D03*
X65024000Y1270000D03*
X87884000Y1270000D03*
X90424000Y1270000D03*
X19304000Y1270000D03*
X32004000Y1270000D03*
X34544000Y1270000D03*
X42164000Y1270000D03*
X44704000Y1270000D03*
X47244000Y1270000D03*
X49784000Y1270000D03*
X21844000Y1270000D03*
X77724000Y1270000D03*
X80264000Y1270000D03*
X103124000Y1270000D03*
X14224000Y1270000D03*
X16764000Y1270000D03*
X9144000Y1270000D03*
X92964000Y1270000D03*
X95504000Y1270000D03*
X82804000Y1270000D03*
X85344000Y1270000D03*
X67564000Y1270000D03*
X70104000Y1270000D03*
X52324000Y1270000D03*
X54864000Y1270000D03*
X29464000Y1270000D03*
X98044000Y1270000D03*
X100584000Y1270000D03*
X24384000Y1270000D03*
X11684000Y1270000D03*
X37084000Y1270000D03*
X39624000Y1270000D03*
X57404000Y1270000D03*
X59944000Y1270000D03*
X65278000Y30226000D03*
X67818000Y30226000D03*
X55118000Y30226000D03*
X57658000Y30226000D03*
X80518000Y30226000D03*
X83058000Y30226000D03*
X27178000Y30226000D03*
X34798000Y30226000D03*
X37338000Y30226000D03*
X39878000Y30226000D03*
X42418000Y30226000D03*
X70358000Y30226000D03*
X72898000Y30226000D03*
X85598000Y30226000D03*
X88138000Y30226000D03*
X75438000Y30226000D03*
X77978000Y30226000D03*
X60198000Y30226000D03*
X62738000Y30226000D03*
X44958000Y30226000D03*
X47498000Y30226000D03*
X90678000Y30226000D03*
X29718000Y30226000D03*
X32258000Y30226000D03*
X50038000Y30226000D03*
X52578000Y30226000D03*
D33*
X60198000Y42164000D03*
X62738000Y42164000D03*
X37338000Y42164000D03*
X72898000Y42164000D03*
X70358000Y42164000D03*
X65278000Y42164000D03*
X57658000Y42164000D03*
X52578000Y42164000D03*
X27178000Y42164000D03*
X39878000Y42164000D03*
X42418000Y42164000D03*
X44958000Y42164000D03*
X47498000Y42164000D03*
X67818000Y42164000D03*
X80518000Y42164000D03*
X24638000Y42164000D03*
X32258000Y42164000D03*
X50038000Y42164000D03*
X29718000Y42164000D03*
X34798000Y42164000D03*
X55118000Y42164000D03*
X75438000Y42164000D03*
X77978000Y42164000D03*
X83058000Y42164000D03*
X62738000Y18288000D03*
X77978000Y18288000D03*
X83058000Y18288000D03*
X65278000Y18288000D03*
X70358000Y18288000D03*
X80518000Y18288000D03*
X24638000Y18288000D03*
X72898000Y18288000D03*
X60198000Y18288000D03*
X57658000Y18288000D03*
X55118000Y18288000D03*
X75438000Y18288000D03*
X29718000Y18288000D03*
X34798000Y18288000D03*
X52578000Y18288000D03*
X39878000Y18288000D03*
X37338000Y18288000D03*
X42418000Y18288000D03*
X47498000Y18288000D03*
X67818000Y18288000D03*
X27178000Y18288000D03*
X32258000Y18288000D03*
X50038000Y18288000D03*
X44958000Y18288000D03*
D32*
X111252000Y52070000D03*
X111252000Y49530000D03*
X111252000Y46990000D03*
X111252000Y44450000D03*
X111252000Y41910000D03*
X111252000Y39370000D03*
X111252000Y36830000D03*
X111252000Y34290000D03*
X111252000Y31750000D03*
X111252000Y29210000D03*
X111252000Y26670000D03*
X111252000Y24130000D03*
X111252000Y21590000D03*
X111252000Y19050000D03*
X111252000Y16510000D03*
X111252000Y13970000D03*
X111252000Y11430000D03*
X111252000Y8890000D03*
X1270000Y31750000D03*
X1270000Y21590000D03*
X1270000Y19050000D03*
X1270000Y11430000D03*
X1270000Y8890000D03*
X1270000Y46990000D03*
X1270000Y41910000D03*
X1270000Y29210000D03*
X1270000Y36830000D03*
X1270000Y44450000D03*
X1270000Y39370000D03*
X1270000Y16510000D03*
X1270000Y13970000D03*
X1270000Y34290000D03*
X1270000Y26670000D03*
X1270000Y24130000D03*
X1270000Y52070000D03*
X1270000Y49530000D03*
D33*
X85344000Y42164000D03*
X85344000Y18288000D03*
X95758000Y42176700D03*
X95758000Y39636700D03*
X95758000Y37096700D03*
X95747840Y18257520D03*
X95747840Y23337520D03*
X95747840Y20797520D03*
X23500000Y32001460D03*
X23489840Y28402280D03*
X23500000Y37081460D03*
X23500000Y39621460D03*
X23500000Y34541460D03*
X23489840Y20782280D03*
X23489840Y23322280D03*
X23500000Y30210760D03*
X23489840Y25862280D03*
D32*
X35650000Y20050000D03*
X105000000Y10000000D03*
X3150000Y49530000D03*
X3150000Y29210000D03*
X5500000Y8000000D03*
X33800000Y20050000D03*
X85600000Y25800000D03*
X82804000Y3100000D03*
X41600000Y34600000D03*
X109150000Y26680000D03*
X3500000Y7500000D03*
X110000000Y54500000D03*
X99000000Y18000000D03*
X59600000Y34650000D03*
X48200000Y34650000D03*
X16764000Y3100000D03*
X52324000Y3100000D03*
X8000000Y54500000D03*
X75800000Y25800000D03*
X85600000Y34650000D03*
X74800000Y34650000D03*
X107500000Y58500000D03*
X110000000Y56500000D03*
X18796000Y57500000D03*
X69750000Y34000000D03*
X105000000Y47500000D03*
X51700000Y34450000D03*
X100000000Y42500000D03*
X47200000Y25800000D03*
X19450000Y23850000D03*
X14800000Y23850000D03*
X110000000Y4000000D03*
X50200000Y34650000D03*
X2500000Y6000000D03*
X2500000Y4000000D03*
X23876000Y57500000D03*
X56896000Y57500000D03*
X91000000Y31700000D03*
X51700000Y19950000D03*
X4950000Y35350000D03*
X3500000Y53000000D03*
X42164000Y3100000D03*
X39600000Y34600000D03*
X57404000Y3100000D03*
X67750000Y19950000D03*
X3150000Y21590000D03*
X44704000Y3100000D03*
X94996000Y57500000D03*
X11684000Y3100000D03*
X31496000Y57500000D03*
X109150000Y47000000D03*
X98044000Y3100000D03*
X19304000Y3100000D03*
X26924000Y3100000D03*
X5500000Y2000000D03*
X2500000Y54500000D03*
X79756000Y57500000D03*
X13850000Y36500000D03*
X8000000Y4000000D03*
X2500000Y56500000D03*
X68800000Y19950000D03*
X109150000Y24140000D03*
X6850000Y25050000D03*
X3150000Y26670000D03*
X89916000Y57500000D03*
X35600000Y34500000D03*
X80264000Y3100000D03*
X109150000Y29220000D03*
X82296000Y57500000D03*
X16256000Y57500000D03*
X48200000Y25800000D03*
X8750000Y35350000D03*
X109150000Y19060000D03*
X5500000Y52500000D03*
X9700000Y35350000D03*
X105000000Y12500000D03*
X97536000Y57500000D03*
X83600000Y25800000D03*
X104500000Y56500000D03*
X85344000Y3100000D03*
X4950000Y25050000D03*
X109150000Y31760000D03*
X103124000Y3100000D03*
X36576000Y57500000D03*
X105500000Y7500000D03*
X77800000Y34650000D03*
X75184000Y3100000D03*
X61976000Y57500000D03*
X102500000Y42500000D03*
X21350000Y23850000D03*
X47200000Y34650000D03*
X37084000Y3100000D03*
X49200000Y25800000D03*
X72136000Y57500000D03*
X65024000Y3100000D03*
X21844000Y3100000D03*
X3150000Y46990000D03*
X74676000Y57500000D03*
X97500000Y42500000D03*
X105000000Y15000000D03*
X102616000Y57500000D03*
X51816000Y57500000D03*
X87884000Y3100000D03*
X3500000Y2500000D03*
X7000000Y7500000D03*
X14224000Y3100000D03*
X41656000Y57500000D03*
X49784000Y3100000D03*
X3150000Y39370000D03*
X109150000Y16520000D03*
X76800000Y25800000D03*
X104000000Y16000000D03*
X49276000Y57500000D03*
X100584000Y3100000D03*
X34036000Y57500000D03*
X87376000Y57500000D03*
X61600000Y25800000D03*
X95504000Y3100000D03*
X72644000Y3100000D03*
X105000000Y50000000D03*
X89950000Y28750000D03*
X77724000Y3100000D03*
X3150000Y13970000D03*
X74800000Y25800000D03*
X68700000Y34000000D03*
X53500000Y19950000D03*
X105000000Y45000000D03*
X88900000Y28750000D03*
X54356000Y57500000D03*
X76800000Y34650000D03*
X67650000Y34000000D03*
X67056000Y57500000D03*
X77800000Y25800000D03*
X67564000Y3100000D03*
X26416000Y57500000D03*
X15750000Y36500000D03*
X64516000Y57500000D03*
X14800000Y36500000D03*
X40600000Y25750000D03*
X104500000Y6000000D03*
X59600000Y25800000D03*
X28956000Y57500000D03*
X105500000Y53000000D03*
X62600000Y25800000D03*
X3150000Y19050000D03*
X8000000Y56500000D03*
X105500000Y58000000D03*
X105500000Y2500000D03*
X110000000Y6000000D03*
X44196000Y57500000D03*
X61600000Y34650000D03*
X97000000Y18000000D03*
X101000000Y18000000D03*
X109150000Y11440000D03*
X6850000Y35350000D03*
X88900000Y31700000D03*
X46736000Y57500000D03*
X29464000Y3100000D03*
X84600000Y25800000D03*
X8636000Y57500000D03*
X107500000Y8000000D03*
X8750000Y25050000D03*
X109150000Y41920000D03*
X3150000Y31750000D03*
X62484000Y3100000D03*
X5900000Y35350000D03*
X40600000Y34600000D03*
X39116000Y57500000D03*
X7000000Y58000000D03*
X38600000Y34600000D03*
X8000000Y6000000D03*
X100076000Y57500000D03*
X3500000Y58000000D03*
X60600000Y25800000D03*
X109150000Y49540000D03*
X7800000Y35350000D03*
X109000000Y53000000D03*
X62600000Y34650000D03*
X109150000Y34300000D03*
X84600000Y34650000D03*
X83600000Y34650000D03*
X109150000Y44460000D03*
X109150000Y21600000D03*
X5900000Y25050000D03*
X7000000Y53000000D03*
X69596000Y57500000D03*
X9144000Y3100000D03*
X92964000Y3100000D03*
X109150000Y39380000D03*
X70104000Y3100000D03*
X90424000Y3100000D03*
X92456000Y57500000D03*
X77216000Y57500000D03*
X103000000Y18000000D03*
X9700000Y25050000D03*
X59944000Y3100000D03*
X11176000Y57500000D03*
X109000000Y58000000D03*
X7000000Y2500000D03*
X38600000Y25750000D03*
X8636000Y59436000D03*
X109000000Y2500000D03*
X41600000Y25750000D03*
X107500000Y2000000D03*
X59436000Y57500000D03*
X50200000Y25800000D03*
X60600000Y34650000D03*
X13716000Y57500000D03*
X75800000Y34650000D03*
X20450000Y36500000D03*
X20400000Y23850000D03*
X69850000Y19950000D03*
X7800000Y25050000D03*
X89950000Y31700000D03*
X39600000Y25750000D03*
X104500000Y4000000D03*
X91000000Y28750000D03*
X84836000Y57500000D03*
X33800000Y34500000D03*
X13850000Y23850000D03*
X53500000Y34450000D03*
X3150000Y36830000D03*
X49200000Y34650000D03*
X54864000Y3100000D03*
X109150000Y36840000D03*
X19500000Y36500000D03*
X34544000Y3100000D03*
X39624000Y3100000D03*
X15750000Y23850000D03*
X3150000Y24130000D03*
X21400000Y36500000D03*
X3150000Y16510000D03*
X3150000Y34290000D03*
X3150000Y11430000D03*
X47244000Y3100000D03*
X21336000Y57500000D03*
X5500000Y58500000D03*
X32004000Y3100000D03*
X86600000Y25800000D03*
X109000000Y7500000D03*
X104500000Y54500000D03*
X3150000Y41910000D03*
X109150000Y13980000D03*
X86600000Y34650000D03*
X24384000Y3100000D03*
X3150000Y44450000D03*
X107500000Y52500000D03*
%TD*%
D34*
%TO.N,Net-(C1-Pad1)*%
X28924000Y50500000D02*
X15000000Y50500000D01*
%TO.N,Net-(L10-Pad1)*%
X64924000Y10000000D02*
X58924000Y10000000D01*
%TO.N,Net-(L10-Pad2)*%
X71924000Y10000000D02*
X76924000Y10000000D01*
D35*
X75922000Y10000000D02*
X78072000Y10000000D01*
X70772000Y10000000D02*
X72922000Y10000000D01*
D36*
%TO.N,Net-(C11-Pad2)*%
X71626500Y37456500D02*
X71630000Y37453000D01*
X68770000Y37456500D02*
X71626500Y37456500D01*
X65910000Y37453000D02*
X68758000Y37453000D01*
X68758000Y37453000D02*
X68770000Y37465000D01*
%TO.N,Net-(C11-Pad1)*%
X58294500Y37453000D02*
X60130500Y37453000D01*
X64006500Y37456500D02*
X64010000Y37453000D01*
X60134000Y37456500D02*
X62166000Y37456500D01*
X62166000Y37456500D02*
X64006500Y37456500D01*
X60130500Y37453000D02*
X60134000Y37456500D01*
%TO.N,Net-(C12-Pad2)*%
X65910000Y23014000D02*
X68770000Y23014000D01*
X68770000Y23014000D02*
X71630000Y23014000D01*
%TO.N,Net-(C12-Pad1)*%
X58294500Y23014000D02*
X60120000Y23014000D01*
X60134000Y23000000D02*
X62166000Y23000000D01*
X62166000Y23000000D02*
X63996000Y23000000D01*
X63996000Y23000000D02*
X64010000Y23014000D01*
X60120000Y23014000D02*
X60134000Y23000000D01*
%TO.N,Net-(C13-Pad2)*%
X77406000Y37456500D02*
X79242000Y37456500D01*
X73530000Y37453000D02*
X75370500Y37453000D01*
X75374000Y37456500D02*
X77406000Y37456500D01*
X79242000Y37456500D02*
X79245500Y37453000D01*
X75370500Y37453000D02*
X75374000Y37456500D01*
%TO.N,Net-(C14-Pad2)*%
X77406000Y23000000D02*
X79231500Y23000000D01*
X75360000Y23014000D02*
X75374000Y23000000D01*
X75374000Y23000000D02*
X77406000Y23000000D01*
X79231500Y23000000D02*
X79245500Y23014000D01*
X73530000Y23014000D02*
X75360000Y23014000D01*
%TO.N,Net-(C15-Pad2)*%
X84006500Y37453000D02*
X84010000Y37456500D01*
X82170500Y37453000D02*
X84006500Y37453000D01*
X84010000Y37456500D02*
X86042000Y37456500D01*
X92042000Y37452320D02*
X92042000Y40662000D01*
X85750000Y37450000D02*
X92042000Y37452320D01*
D34*
%TO.N,Net-(C15-Pad1)*%
X92202000Y50546000D02*
X97354000Y50546000D01*
X97354000Y50546000D02*
X97400000Y50500000D01*
X83924000Y50546000D02*
X89916000Y50546000D01*
X89916000Y50546000D02*
X92202000Y50546000D01*
D36*
X97400000Y49149000D02*
X92042000Y43791000D01*
D35*
X97400000Y50500000D02*
X97400000Y49149000D01*
D36*
%TO.N,Net-(C16-Pad2)*%
X85950000Y23000000D02*
X92042000Y22994600D01*
X83996000Y23014000D02*
X84010000Y23000000D01*
X92042000Y22994600D02*
X91542000Y22994600D01*
X82170500Y23014000D02*
X83996000Y23014000D01*
X92042000Y22994600D02*
X92042000Y19662000D01*
X84010000Y23000000D02*
X86042000Y23000000D01*
D35*
%TO.N,Net-(C16-Pad1)*%
X97400000Y10000000D02*
X97400000Y11201000D01*
D34*
X97400000Y10000000D02*
X83924000Y10000000D01*
D36*
X97400000Y11201000D02*
X92042000Y16559000D01*
%TO.N,Net-(C2-Pad1)*%
X14935000Y16815000D02*
X14949000Y10051000D01*
X12178000Y16815000D02*
X14935000Y16815000D01*
D34*
X27150000Y10000000D02*
X15000000Y10000000D01*
D36*
X14949000Y10051000D02*
X15000000Y10000000D01*
D34*
%TO.N,Net-(L2-Pad2)*%
X52924000Y50500000D02*
X46924000Y50500000D01*
%TO.N,Net-(L4-Pad2)*%
X70924000Y50546000D02*
X76924000Y50546000D01*
%TO.N,Net-(L1-Pad2)*%
X39924000Y50500000D02*
X34924000Y50500000D01*
%TO.N,Net-(L3-Pad2)*%
X58924000Y50500000D02*
X64924000Y50500000D01*
%TO.N,Net-(L7-Pad2)*%
X39924000Y10000000D02*
X34924000Y10000000D01*
%TO.N,Net-(L8-Pad2)*%
X52924000Y10000000D02*
X46924000Y10000000D01*
D36*
%TO.N,Net-(D1-Pad3)*%
X39044000Y37456500D02*
X41076000Y37456500D01*
X42912000Y37456500D02*
X42915500Y37453000D01*
X36812000Y37456500D02*
X39044000Y37456500D01*
X34326000Y37456500D02*
X36812000Y37456500D01*
X41076000Y37456500D02*
X42912000Y37456500D01*
X28500000Y37456500D02*
X34326000Y37456500D01*
%TO.N,Net-(D2-Pad3)*%
X55366000Y37456500D02*
X55369500Y37453000D01*
X47676500Y37453000D02*
X47680000Y37456500D01*
X53330000Y37456500D02*
X55366000Y37456500D01*
X51444000Y37456500D02*
X53830000Y37456500D01*
X49712000Y37456500D02*
X51944000Y37456500D01*
X47680000Y37456500D02*
X49712000Y37456500D01*
X45840500Y37453000D02*
X47676500Y37453000D01*
%TO.N,Net-(D3-Pad3)*%
X41076000Y23000000D02*
X42901500Y23000000D01*
X39044000Y23000000D02*
X41076000Y23000000D01*
X36812000Y23000000D02*
X39044000Y23000000D01*
X28500000Y23000000D02*
X34326000Y23000000D01*
X42901500Y23000000D02*
X42915500Y23014000D01*
X34326000Y23000000D02*
X36812000Y23000000D01*
%TO.N,Net-(D4-Pad3)*%
X51444000Y23000000D02*
X53830000Y23000000D01*
X53330000Y23000000D02*
X55355500Y23000000D01*
X47666000Y23014000D02*
X47680000Y23000000D01*
X49712000Y23000000D02*
X51944000Y23000000D01*
X45840500Y23014000D02*
X47666000Y23014000D01*
X55355500Y23000000D02*
X55369500Y23014000D01*
X47680000Y23000000D02*
X49712000Y23000000D01*
%TD*%
%TA.AperFunction,Conductor*%
%TO.N,Net-(C2-Pad1)*%
G36*
X25342121Y17443998D02*
G01*
X25388614Y17390342D01*
X25400000Y17338000D01*
X25400000Y11550000D01*
X28322000Y11550000D01*
X28390121Y11529998D01*
X28436614Y11476342D01*
X28448000Y11424000D01*
X28448000Y8526015D01*
X28427998Y8457894D01*
X28374342Y8411401D01*
X28321985Y8400015D01*
X25372870Y8400358D01*
X25354755Y8400360D01*
X25354738Y8386851D01*
X25354738Y8386849D01*
X25352518Y6576501D01*
X25350585Y5000000D01*
X25350214Y4697845D01*
X25330128Y4629749D01*
X25276416Y4583322D01*
X25224214Y4572000D01*
X11402501Y4572000D01*
X11393513Y4572321D01*
X11344129Y4575853D01*
X11122350Y4591715D01*
X11104567Y4594272D01*
X10843342Y4651098D01*
X10826100Y4656160D01*
X10575607Y4749589D01*
X10559260Y4757055D01*
X10324625Y4885176D01*
X10309502Y4894895D01*
X10095490Y5055103D01*
X10081904Y5066876D01*
X9892876Y5255904D01*
X9881103Y5269490D01*
X9720895Y5483502D01*
X9711176Y5498625D01*
X9583055Y5733260D01*
X9575589Y5749607D01*
X9482160Y6000100D01*
X9477097Y6017346D01*
X9420272Y6278567D01*
X9417714Y6296355D01*
X9398321Y6567513D01*
X9398000Y6576501D01*
X9398000Y9906000D01*
X6322501Y9906000D01*
X6313513Y9906321D01*
X6264129Y9909853D01*
X6042350Y9925715D01*
X6024567Y9928272D01*
X5763342Y9985098D01*
X5746100Y9990160D01*
X5495607Y10083589D01*
X5479260Y10091055D01*
X5244625Y10219176D01*
X5229502Y10228895D01*
X5015490Y10389103D01*
X5001904Y10400876D01*
X4812876Y10589904D01*
X4801103Y10603490D01*
X4640895Y10817502D01*
X4631176Y10832625D01*
X4503055Y11067260D01*
X4495589Y11083607D01*
X4402160Y11334100D01*
X4397097Y11351346D01*
X4369906Y11476342D01*
X4340272Y11612567D01*
X4337714Y11630355D01*
X4318321Y11901513D01*
X4318000Y11910501D01*
X4318000Y12727499D01*
X4318321Y12736487D01*
X4337714Y13007645D01*
X4340272Y13025433D01*
X4397098Y13286658D01*
X4402161Y13303903D01*
X4495589Y13554393D01*
X4503055Y13570740D01*
X4631176Y13805375D01*
X4640895Y13820498D01*
X4801103Y14034510D01*
X4812876Y14048096D01*
X5001904Y14237124D01*
X5015490Y14248897D01*
X5229502Y14409105D01*
X5244625Y14418824D01*
X5479260Y14546945D01*
X5495607Y14554411D01*
X5746100Y14647840D01*
X5763342Y14652902D01*
X6024567Y14709728D01*
X6042350Y14712285D01*
X6264129Y14728147D01*
X6313513Y14731679D01*
X6322501Y14732000D01*
X10668000Y14732000D01*
X10668000Y16098000D01*
X10687793Y16324227D01*
X10691606Y16345852D01*
X10747527Y16554552D01*
X10755039Y16575191D01*
X10846351Y16771010D01*
X10857333Y16790030D01*
X10981263Y16967021D01*
X10995381Y16983846D01*
X11148154Y17136619D01*
X11164979Y17150737D01*
X11341970Y17274667D01*
X11360990Y17285649D01*
X11556809Y17376961D01*
X11577448Y17384473D01*
X11621886Y17396380D01*
X11786152Y17440395D01*
X11807773Y17444207D01*
X12028525Y17463521D01*
X12039507Y17464000D01*
X25274000Y17464000D01*
X25342121Y17443998D01*
G37*
%TD.AperFunction*%
%TD*%
%TA.AperFunction,Conductor*%
%TO.N,Net-(C6-Pad2)*%
G36*
X18745731Y20584587D02*
G01*
X18750000Y20582256D01*
X18750000Y20576000D01*
X20342921Y20576000D01*
X20357029Y20575208D01*
X20505457Y20558484D01*
X20532963Y20552206D01*
X20637012Y20515797D01*
X20667216Y20505228D01*
X20692635Y20492987D01*
X20813082Y20417306D01*
X20835142Y20399713D01*
X20935713Y20299142D01*
X20953306Y20277082D01*
X21028987Y20156635D01*
X21041228Y20131216D01*
X21088205Y19996965D01*
X21094484Y19969456D01*
X21110410Y19828107D01*
X21110410Y19799893D01*
X21094484Y19658544D01*
X21088205Y19631035D01*
X21041228Y19496784D01*
X21028987Y19471365D01*
X20953306Y19350918D01*
X20935713Y19328858D01*
X20835142Y19228287D01*
X20813082Y19210694D01*
X20692635Y19135013D01*
X20667216Y19122772D01*
X20532963Y19075794D01*
X20505457Y19069516D01*
X20357029Y19052792D01*
X20342921Y19052000D01*
X11435079Y19052000D01*
X11420971Y19052792D01*
X11269873Y19069817D01*
X11242366Y19076096D01*
X11105574Y19123961D01*
X11080153Y19136203D01*
X10957438Y19213310D01*
X10935379Y19230902D01*
X10832902Y19333379D01*
X10815310Y19355438D01*
X10738203Y19478153D01*
X10725961Y19503574D01*
X10678096Y19640366D01*
X10671817Y19667874D01*
X10655590Y19811893D01*
X10655590Y19840107D01*
X10671817Y19984126D01*
X10678096Y20011634D01*
X10725961Y20148426D01*
X10738203Y20173847D01*
X10815310Y20296562D01*
X10832902Y20318621D01*
X10935379Y20421098D01*
X10957438Y20438690D01*
X11043851Y20492987D01*
X11080155Y20515798D01*
X11105574Y20528039D01*
X11242366Y20575904D01*
X11269873Y20582183D01*
X11420971Y20599208D01*
X11435079Y20600000D01*
X18685345Y20600000D01*
X18745731Y20584587D01*
G37*
%TD.AperFunction*%
%TD*%
%TA.AperFunction,Conductor*%
%TO.N,Net-(C2-Pad2)*%
G36*
X9124163Y21810393D02*
G01*
X9300740Y21793001D01*
X9324957Y21788185D01*
X9488809Y21738482D01*
X9511629Y21729029D01*
X9662631Y21648317D01*
X9683158Y21634601D01*
X9815521Y21525974D01*
X9832974Y21508521D01*
X9941601Y21376158D01*
X9955319Y21355628D01*
X10036029Y21204629D01*
X10045482Y21181810D01*
X10095185Y21017957D01*
X10100002Y20993737D01*
X10117393Y20817163D01*
X10118000Y20804813D01*
X10118000Y19007187D01*
X10117393Y18994837D01*
X10100002Y18818263D01*
X10095185Y18794043D01*
X10045482Y18630191D01*
X10036029Y18607371D01*
X9955319Y18456372D01*
X9941601Y18435842D01*
X9832974Y18303479D01*
X9815521Y18286026D01*
X9683158Y18177399D01*
X9662631Y18163683D01*
X9570417Y18114393D01*
X9511629Y18082971D01*
X9488810Y18073518D01*
X9324957Y18023815D01*
X9300740Y18018999D01*
X9124163Y18001607D01*
X9111813Y18001000D01*
X5536187Y18001000D01*
X5523837Y18001607D01*
X5347260Y18018999D01*
X5323043Y18023815D01*
X5159190Y18073518D01*
X5136371Y18082971D01*
X5077583Y18114393D01*
X4985369Y18163683D01*
X4964842Y18177399D01*
X4832479Y18286026D01*
X4815026Y18303479D01*
X4706399Y18435842D01*
X4692681Y18456372D01*
X4611971Y18607371D01*
X4602518Y18630191D01*
X4552815Y18794043D01*
X4547998Y18818263D01*
X4530607Y18994837D01*
X4530000Y19007187D01*
X4530000Y20804813D01*
X4530607Y20817163D01*
X4547998Y20993737D01*
X4552815Y21017957D01*
X4602518Y21181810D01*
X4611971Y21204629D01*
X4692681Y21355628D01*
X4706399Y21376158D01*
X4815026Y21508521D01*
X4832479Y21525974D01*
X4964842Y21634601D01*
X4985369Y21648317D01*
X5136371Y21729029D01*
X5159191Y21738482D01*
X5323043Y21788185D01*
X5347260Y21793001D01*
X5523837Y21810393D01*
X5536187Y21811000D01*
X9111813Y21811000D01*
X9124163Y21810393D01*
G37*
%TD.AperFunction*%
%TD*%
%TA.AperFunction,Conductor*%
%TO.N,Net-(C1-Pad2)*%
G36*
X9066163Y42399393D02*
G01*
X9242740Y42382001D01*
X9266957Y42377185D01*
X9430809Y42327482D01*
X9453629Y42318029D01*
X9604631Y42237317D01*
X9625158Y42223601D01*
X9757521Y42114974D01*
X9774974Y42097521D01*
X9883601Y41965158D01*
X9897319Y41944628D01*
X9978029Y41793629D01*
X9987482Y41770810D01*
X10037185Y41606957D01*
X10042002Y41582737D01*
X10059393Y41406163D01*
X10060000Y41393813D01*
X10060000Y39596187D01*
X10059393Y39583837D01*
X10042002Y39407263D01*
X10037185Y39383043D01*
X9987482Y39219191D01*
X9978029Y39196371D01*
X9897319Y39045372D01*
X9883601Y39024842D01*
X9774974Y38892479D01*
X9757521Y38875026D01*
X9625158Y38766399D01*
X9604631Y38752683D01*
X9512417Y38703393D01*
X9453629Y38671971D01*
X9430810Y38662518D01*
X9266957Y38612815D01*
X9242740Y38607999D01*
X9066163Y38590607D01*
X9053813Y38590000D01*
X5478187Y38590000D01*
X5465837Y38590607D01*
X5289260Y38607999D01*
X5265043Y38612815D01*
X5101190Y38662518D01*
X5078371Y38671971D01*
X5019583Y38703393D01*
X4927369Y38752683D01*
X4906842Y38766399D01*
X4774479Y38875026D01*
X4757026Y38892479D01*
X4648399Y39024842D01*
X4634681Y39045372D01*
X4553971Y39196371D01*
X4544518Y39219191D01*
X4494815Y39383043D01*
X4489998Y39407263D01*
X4472607Y39583837D01*
X4472000Y39596187D01*
X4472000Y41393813D01*
X4472607Y41406163D01*
X4489998Y41582737D01*
X4494815Y41606957D01*
X4544518Y41770810D01*
X4553971Y41793629D01*
X4634681Y41944628D01*
X4648399Y41965158D01*
X4757026Y42097521D01*
X4774479Y42114974D01*
X4906842Y42223601D01*
X4927369Y42237317D01*
X5078371Y42318029D01*
X5101191Y42327482D01*
X5265043Y42377185D01*
X5289260Y42382001D01*
X5465837Y42399393D01*
X5478187Y42400000D01*
X9053813Y42400000D01*
X9066163Y42399393D01*
G37*
%TD.AperFunction*%
%TD*%
%TA.AperFunction,Conductor*%
%TO.N,Net-(C5-Pad2)*%
G36*
X20867029Y41337208D02*
G01*
X21015457Y41320484D01*
X21042963Y41314206D01*
X21177216Y41267228D01*
X21202635Y41254987D01*
X21323082Y41179306D01*
X21345142Y41161713D01*
X21445713Y41061142D01*
X21463306Y41039082D01*
X21538987Y40918635D01*
X21551228Y40893216D01*
X21598205Y40758965D01*
X21604484Y40731456D01*
X21620410Y40590107D01*
X21620410Y40561893D01*
X21604484Y40420544D01*
X21598205Y40393035D01*
X21551228Y40258784D01*
X21538987Y40233365D01*
X21463306Y40112918D01*
X21445713Y40090858D01*
X21345142Y39990287D01*
X21323082Y39972694D01*
X21202635Y39897013D01*
X21177216Y39884772D01*
X21042963Y39837794D01*
X21015457Y39831516D01*
X20867029Y39814792D01*
X20852921Y39814000D01*
X16664000Y39814000D01*
X16664000Y39809144D01*
X16663458Y39809036D01*
X16619251Y39790723D01*
X16605777Y39790000D01*
X11349079Y39790000D01*
X11334971Y39790792D01*
X11183873Y39807817D01*
X11156366Y39814096D01*
X11019574Y39861961D01*
X10994153Y39874203D01*
X10969869Y39889462D01*
X10871438Y39951310D01*
X10849379Y39968902D01*
X10746902Y40071379D01*
X10729310Y40093438D01*
X10652203Y40216153D01*
X10639961Y40241574D01*
X10592096Y40378366D01*
X10585817Y40405874D01*
X10569590Y40549893D01*
X10569590Y40578107D01*
X10585817Y40722126D01*
X10592096Y40749634D01*
X10639961Y40886426D01*
X10652203Y40911847D01*
X10729310Y41034562D01*
X10746902Y41056621D01*
X10849379Y41159098D01*
X10871438Y41176690D01*
X10994153Y41253797D01*
X11019574Y41266039D01*
X11156366Y41313904D01*
X11183873Y41320183D01*
X11334971Y41337208D01*
X11349079Y41338000D01*
X20852921Y41338000D01*
X20867029Y41337208D01*
G37*
%TD.AperFunction*%
%TD*%
%TA.AperFunction,Conductor*%
%TO.N,Net-(C1-Pad1)*%
G36*
X25396121Y56113998D02*
G01*
X25442614Y56060342D01*
X25454000Y56008000D01*
X25454000Y52009626D01*
X28068000Y52009626D01*
X28136121Y51989624D01*
X28182614Y51935968D01*
X28194000Y51883626D01*
X28194000Y49126000D01*
X28173998Y49057879D01*
X28120342Y49011386D01*
X28068000Y49000000D01*
X25450000Y49000000D01*
X25450000Y43114000D01*
X25429998Y43045879D01*
X25376342Y42999386D01*
X25324000Y42988000D01*
X11911956Y42988000D01*
X11902070Y42988388D01*
X11683330Y43005603D01*
X11663801Y43008696D01*
X11455277Y43058759D01*
X11436474Y43064869D01*
X11238350Y43146934D01*
X11220733Y43155911D01*
X11037892Y43267957D01*
X11021901Y43279574D01*
X10858828Y43418852D01*
X10844850Y43432830D01*
X10705574Y43595901D01*
X10693957Y43611892D01*
X10581911Y43794733D01*
X10572934Y43812350D01*
X10490869Y44010474D01*
X10484759Y44029277D01*
X10434696Y44237801D01*
X10431603Y44257330D01*
X10414000Y44481000D01*
X10414000Y45974000D01*
X6322501Y45974000D01*
X6313513Y45974321D01*
X6264129Y45977853D01*
X6042350Y45993715D01*
X6024567Y45996272D01*
X5763342Y46053098D01*
X5746100Y46058160D01*
X5495607Y46151589D01*
X5479260Y46159055D01*
X5244625Y46287176D01*
X5229502Y46296895D01*
X5015490Y46457103D01*
X5001904Y46468876D01*
X4812876Y46657904D01*
X4801103Y46671490D01*
X4640895Y46885502D01*
X4631176Y46900625D01*
X4503055Y47135260D01*
X4495589Y47151607D01*
X4402160Y47402100D01*
X4397097Y47419346D01*
X4340272Y47680567D01*
X4337714Y47698355D01*
X4318321Y47969513D01*
X4318000Y47978501D01*
X4318000Y48795499D01*
X4318321Y48804487D01*
X4331335Y48986452D01*
X4337715Y49075650D01*
X4340272Y49093433D01*
X4397098Y49354658D01*
X4402161Y49371903D01*
X4495589Y49622393D01*
X4503055Y49638740D01*
X4631176Y49873375D01*
X4640895Y49888498D01*
X4801103Y50102510D01*
X4812876Y50116096D01*
X5001904Y50305124D01*
X5015490Y50316897D01*
X5229502Y50477105D01*
X5244625Y50486824D01*
X5479260Y50614945D01*
X5495607Y50622411D01*
X5746100Y50715840D01*
X5763342Y50720902D01*
X6024567Y50777728D01*
X6042350Y50780285D01*
X6264129Y50796147D01*
X6313513Y50799679D01*
X6322501Y50800000D01*
X9652000Y50800000D01*
X9652000Y54129499D01*
X9652321Y54138487D01*
X9671714Y54409645D01*
X9674272Y54427433D01*
X9731098Y54688658D01*
X9736161Y54705903D01*
X9829589Y54956393D01*
X9837055Y54972740D01*
X9965176Y55207375D01*
X9974895Y55222498D01*
X10135103Y55436510D01*
X10146876Y55450096D01*
X10335904Y55639124D01*
X10349490Y55650897D01*
X10563502Y55811105D01*
X10578625Y55820824D01*
X10813260Y55948945D01*
X10829607Y55956411D01*
X11080100Y56049840D01*
X11097342Y56054902D01*
X11358567Y56111728D01*
X11376350Y56114285D01*
X11598129Y56130147D01*
X11647513Y56133679D01*
X11656501Y56134000D01*
X25328000Y56134000D01*
X25396121Y56113998D01*
G37*
%TD.AperFunction*%
%TD*%
%TA.AperFunction,Conductor*%
%TO.N,GND*%
G36*
X107371765Y59997680D02*
G01*
X107376305Y59997624D01*
X107393829Y59994896D01*
X107411411Y59997195D01*
X107424466Y59997035D01*
X107446286Y59997979D01*
X107661703Y59988574D01*
X107781338Y59983350D01*
X107802977Y59981457D01*
X108170636Y59933054D01*
X108192028Y59929282D01*
X108414982Y59879855D01*
X108554082Y59849017D01*
X108575057Y59843396D01*
X108928726Y59731884D01*
X108949138Y59724455D01*
X109291736Y59582546D01*
X109311418Y59573369D01*
X109640351Y59402137D01*
X109659162Y59391276D01*
X109971928Y59192023D01*
X109989723Y59179563D01*
X110283922Y58953816D01*
X110300558Y58939856D01*
X110573974Y58689318D01*
X110589318Y58673974D01*
X110738851Y58510787D01*
X110839854Y58400561D01*
X110853816Y58383922D01*
X111079563Y58089723D01*
X111092023Y58071928D01*
X111291276Y57759162D01*
X111302137Y57740351D01*
X111473366Y57411424D01*
X111482546Y57391736D01*
X111624455Y57049138D01*
X111631884Y57028726D01*
X111743396Y56675057D01*
X111749017Y56654082D01*
X111759465Y56606953D01*
X111829282Y56292028D01*
X111833054Y56270636D01*
X111881457Y55902977D01*
X111883350Y55881338D01*
X111897615Y55554626D01*
X111897833Y55540721D01*
X111897625Y55523698D01*
X111894896Y55506171D01*
X111897196Y55488583D01*
X111897898Y55483213D01*
X111900000Y55450928D01*
X111900000Y5058223D01*
X111897680Y5028235D01*
X111897624Y5023695D01*
X111894896Y5006171D01*
X111897195Y4988589D01*
X111897035Y4975534D01*
X111897979Y4953714D01*
X111888574Y4738297D01*
X111883350Y4618662D01*
X111881457Y4597023D01*
X111833054Y4229364D01*
X111829282Y4207972D01*
X111799138Y4072000D01*
X111749479Y3848000D01*
X111749019Y3845926D01*
X111743396Y3824943D01*
X111631884Y3471274D01*
X111624455Y3450862D01*
X111482546Y3108264D01*
X111473366Y3088576D01*
X111302137Y2759649D01*
X111291276Y2740838D01*
X111092023Y2428072D01*
X111079563Y2410277D01*
X110853816Y2116078D01*
X110839856Y2099442D01*
X110589318Y1826026D01*
X110573974Y1810682D01*
X110364726Y1618942D01*
X110300561Y1560146D01*
X110283922Y1546184D01*
X109989723Y1320437D01*
X109971928Y1307977D01*
X109659162Y1108724D01*
X109640352Y1097863D01*
X109311418Y926631D01*
X109291736Y917454D01*
X108949138Y775545D01*
X108928726Y768116D01*
X108575057Y656604D01*
X108554082Y650983D01*
X108414982Y620145D01*
X108192028Y570718D01*
X108170636Y566946D01*
X107802977Y518543D01*
X107781338Y516650D01*
X107454626Y502385D01*
X107440721Y502167D01*
X107423698Y502375D01*
X107406171Y505104D01*
X107383710Y502167D01*
X107383213Y502102D01*
X107350928Y500000D01*
X5058223Y500000D01*
X5028235Y502320D01*
X5023695Y502376D01*
X5006171Y505104D01*
X4988589Y502805D01*
X4975534Y502965D01*
X4953714Y502021D01*
X4738297Y511426D01*
X4618662Y516650D01*
X4597023Y518543D01*
X4229364Y566946D01*
X4207972Y570718D01*
X3985018Y620145D01*
X3845918Y650983D01*
X3824943Y656604D01*
X3471274Y768116D01*
X3450862Y775545D01*
X3108264Y917454D01*
X3088582Y926631D01*
X2759648Y1097863D01*
X2740838Y1108724D01*
X2428072Y1307977D01*
X2410277Y1320437D01*
X2116078Y1546184D01*
X2099439Y1560146D01*
X2035274Y1618942D01*
X1826026Y1810682D01*
X1810682Y1826026D01*
X1560144Y2099442D01*
X1546184Y2116078D01*
X1320437Y2410277D01*
X1307977Y2428072D01*
X1108724Y2740838D01*
X1097863Y2759649D01*
X926634Y3088576D01*
X917454Y3108264D01*
X775545Y3450862D01*
X768116Y3471274D01*
X656604Y3824943D01*
X650981Y3845926D01*
X650522Y3848000D01*
X600862Y4072000D01*
X570718Y4207972D01*
X566946Y4229364D01*
X518543Y4597023D01*
X516650Y4618662D01*
X504193Y4903957D01*
X502476Y4943284D01*
X503235Y4976385D01*
X503396Y4978177D01*
X504991Y4987658D01*
X505142Y5000000D01*
X502515Y5018344D01*
X500000Y5053643D01*
X500000Y11910501D01*
X3818000Y11910501D01*
X3818319Y11892655D01*
X3818640Y11883667D01*
X3819595Y11865845D01*
X3838988Y11594687D01*
X3842805Y11559185D01*
X3845363Y11541397D01*
X3851699Y11506284D01*
X3881333Y11370060D01*
X3881332Y11370060D01*
X3908523Y11245064D01*
X3917344Y11210502D01*
X3922407Y11193256D01*
X3933685Y11159368D01*
X4027114Y10908875D01*
X4040779Y10875886D01*
X4048245Y10859539D01*
X4064216Y10827635D01*
X4192337Y10593000D01*
X4210550Y10562304D01*
X4220269Y10547181D01*
X4240625Y10517862D01*
X4241931Y10516117D01*
X4241945Y10516098D01*
X4352202Y10368814D01*
X4400833Y10303850D01*
X4423237Y10276049D01*
X4435010Y10262463D01*
X4436519Y10260842D01*
X4436531Y10260829D01*
X4457827Y10237957D01*
X4457845Y10237938D01*
X4459323Y10236351D01*
X4648351Y10047323D01*
X4649938Y10045845D01*
X4649957Y10045827D01*
X4672829Y10024531D01*
X4674463Y10023010D01*
X4688049Y10011237D01*
X4715850Y9988833D01*
X4717647Y9987488D01*
X4928098Y9829945D01*
X4928117Y9829931D01*
X4929862Y9828625D01*
X4959181Y9808269D01*
X4974304Y9798550D01*
X5005000Y9780337D01*
X5239635Y9652216D01*
X5241624Y9651220D01*
X5241638Y9651213D01*
X5255613Y9644217D01*
X5271539Y9636245D01*
X5287886Y9628779D01*
X5289888Y9627950D01*
X5289908Y9627941D01*
X5308319Y9620315D01*
X5320875Y9615114D01*
X5322942Y9614343D01*
X5322965Y9614334D01*
X5472766Y9558462D01*
X5571368Y9521685D01*
X5573434Y9520997D01*
X5573455Y9520990D01*
X5596886Y9513192D01*
X5605252Y9510408D01*
X5622494Y9505346D01*
X5631795Y9502972D01*
X5654921Y9497070D01*
X5654954Y9497062D01*
X5657059Y9496525D01*
X5659177Y9496064D01*
X5659195Y9496060D01*
X5916146Y9440164D01*
X5918284Y9439699D01*
X5920419Y9439314D01*
X5920448Y9439308D01*
X5951231Y9433754D01*
X5951236Y9433753D01*
X5953404Y9433362D01*
X5971187Y9430805D01*
X5973382Y9430569D01*
X5973406Y9430566D01*
X5999731Y9427736D01*
X6006681Y9426989D01*
X6228460Y9411127D01*
X6277844Y9407595D01*
X6278965Y9407535D01*
X6278964Y9407535D01*
X6294559Y9406699D01*
X6294600Y9406697D01*
X6295667Y9406640D01*
X6296742Y9406602D01*
X6296778Y9406600D01*
X6302885Y9406382D01*
X6304655Y9406319D01*
X6314110Y9406150D01*
X6321363Y9406020D01*
X6321401Y9406020D01*
X6322501Y9406000D01*
X8649000Y9406000D01*
X8744288Y9387046D01*
X8825070Y9333070D01*
X8879046Y9252288D01*
X8898000Y9157000D01*
X8898000Y6576501D01*
X8898319Y6558655D01*
X8898640Y6549667D01*
X8899595Y6531845D01*
X8918988Y6260687D01*
X8922805Y6225185D01*
X8925363Y6207397D01*
X8931699Y6172285D01*
X8988524Y5911064D01*
X8997344Y5876502D01*
X9002407Y5859256D01*
X9013685Y5825368D01*
X9107114Y5574875D01*
X9120779Y5541886D01*
X9128245Y5525539D01*
X9144216Y5493635D01*
X9272337Y5259000D01*
X9290550Y5228304D01*
X9300269Y5213181D01*
X9320625Y5183862D01*
X9321931Y5182117D01*
X9321945Y5182098D01*
X9418106Y5053643D01*
X9480833Y4969850D01*
X9503237Y4942049D01*
X9515010Y4928463D01*
X9516519Y4926842D01*
X9516531Y4926829D01*
X9537827Y4903957D01*
X9537845Y4903938D01*
X9539323Y4902351D01*
X9728351Y4713323D01*
X9729938Y4711845D01*
X9729957Y4711827D01*
X9752829Y4690531D01*
X9754463Y4689010D01*
X9768049Y4677237D01*
X9795850Y4654833D01*
X9797647Y4653488D01*
X10008098Y4495945D01*
X10008117Y4495931D01*
X10009862Y4494625D01*
X10039181Y4474269D01*
X10054304Y4464550D01*
X10085000Y4446337D01*
X10319635Y4318216D01*
X10321624Y4317220D01*
X10321638Y4317213D01*
X10335613Y4310217D01*
X10351539Y4302245D01*
X10367886Y4294779D01*
X10369888Y4293950D01*
X10369908Y4293941D01*
X10388319Y4286315D01*
X10400875Y4281114D01*
X10402942Y4280343D01*
X10402965Y4280334D01*
X10539622Y4229364D01*
X10651368Y4187685D01*
X10653434Y4186997D01*
X10653455Y4186990D01*
X10676886Y4179192D01*
X10685252Y4176408D01*
X10702494Y4171346D01*
X10711795Y4168972D01*
X10734921Y4163070D01*
X10734954Y4163062D01*
X10737059Y4162525D01*
X10739177Y4162064D01*
X10739195Y4162060D01*
X10996146Y4106164D01*
X10998284Y4105699D01*
X11000419Y4105314D01*
X11000448Y4105308D01*
X11031231Y4099754D01*
X11031236Y4099753D01*
X11033404Y4099362D01*
X11051187Y4096805D01*
X11053382Y4096569D01*
X11053406Y4096566D01*
X11079731Y4093736D01*
X11086681Y4092989D01*
X11308460Y4077127D01*
X11357844Y4073595D01*
X11358965Y4073535D01*
X11358964Y4073535D01*
X11374559Y4072699D01*
X11374600Y4072697D01*
X11375667Y4072640D01*
X11376742Y4072602D01*
X11376778Y4072600D01*
X11382885Y4072382D01*
X11384655Y4072319D01*
X11394110Y4072150D01*
X11401363Y4072020D01*
X11401401Y4072020D01*
X11402501Y4072000D01*
X25105244Y4072000D01*
X25200532Y4053046D01*
X25281314Y3999070D01*
X25335290Y3918288D01*
X25349201Y3872328D01*
X25349172Y3848360D01*
X63533563Y3848180D01*
X101575476Y3848000D01*
X101600004Y3848000D01*
X103181282Y4689010D01*
X104372346Y5322483D01*
X104372347Y5322484D01*
X104394000Y5334000D01*
X104394000Y14478000D01*
X102362000Y17272000D01*
X95088111Y17272000D01*
X94992823Y17290954D01*
X94926064Y17331945D01*
X93450764Y18596488D01*
X93390751Y18672892D01*
X93364544Y18766446D01*
X93376134Y18862907D01*
X93376827Y18864661D01*
X93376814Y18864665D01*
X93427629Y19017863D01*
X93427630Y19017867D01*
X93431910Y19030771D01*
X93439823Y19108003D01*
X93441853Y19127814D01*
X93441853Y19127822D01*
X93442500Y19134133D01*
X93442499Y19883866D01*
X93433179Y19973701D01*
X93433047Y19974971D01*
X93433046Y19974973D01*
X93431641Y19988520D01*
X93376256Y20154529D01*
X93284166Y20303345D01*
X93231084Y20356334D01*
X93177038Y20437067D01*
X93158000Y20532557D01*
X93158000Y22895492D01*
X93159432Y22915226D01*
X93159386Y22915228D01*
X93159435Y22916216D01*
X93159443Y22916298D01*
X93159975Y22927095D01*
X93161689Y22938843D01*
X93161666Y22939342D01*
X93161738Y22939836D01*
X93158266Y23014849D01*
X93158000Y23026362D01*
X93158000Y23047802D01*
X93156189Y23066787D01*
X93155320Y23079138D01*
X93152567Y23139765D01*
X93152031Y23151577D01*
X93151915Y23152059D01*
X93151892Y23152561D01*
X93149117Y23164076D01*
X93148320Y23169700D01*
X93145085Y23189034D01*
X93143975Y23194796D01*
X93142850Y23206590D01*
X93122437Y23276174D01*
X93119247Y23288142D01*
X93105071Y23347190D01*
X93102321Y23358647D01*
X93102115Y23359101D01*
X93101998Y23359587D01*
X93097131Y23370292D01*
X93095376Y23375402D01*
X93088414Y23394122D01*
X93086240Y23399556D01*
X93082903Y23410932D01*
X93077475Y23421472D01*
X93077473Y23421476D01*
X93049704Y23475393D01*
X93044307Y23486543D01*
X93019184Y23541929D01*
X93019183Y23541931D01*
X93014352Y23552581D01*
X93014064Y23552988D01*
X93013857Y23553443D01*
X93007092Y23562980D01*
X93004521Y23567461D01*
X92993984Y23584792D01*
X92990825Y23589713D01*
X92985398Y23600250D01*
X92978079Y23609567D01*
X92978075Y23609574D01*
X92940592Y23657292D01*
X92933204Y23667195D01*
X92891298Y23726381D01*
X92890939Y23726725D01*
X92890649Y23727134D01*
X92882114Y23735304D01*
X92878475Y23739526D01*
X92865181Y23754187D01*
X92861173Y23758396D01*
X92853852Y23767716D01*
X92844906Y23775479D01*
X92844903Y23775482D01*
X92799085Y23815240D01*
X92789933Y23823590D01*
X92746159Y23865569D01*
X92746153Y23865574D01*
X92737598Y23873778D01*
X92737180Y23874048D01*
X92736819Y23874394D01*
X92726843Y23880835D01*
X92722295Y23884431D01*
X92706735Y23896114D01*
X92701961Y23899519D01*
X92693012Y23907285D01*
X92630227Y23943607D01*
X92619716Y23950042D01*
X92558801Y23989451D01*
X92558340Y23989637D01*
X92557919Y23989909D01*
X92546947Y23994330D01*
X92541935Y23996933D01*
X92524300Y24005534D01*
X92518943Y24007986D01*
X92508682Y24013923D01*
X92440174Y24037713D01*
X92428584Y24042064D01*
X92372104Y24064884D01*
X92361355Y24069227D01*
X92360868Y24069323D01*
X92360403Y24069510D01*
X92349038Y24071730D01*
X92344461Y24073092D01*
X92324391Y24078508D01*
X92318705Y24079894D01*
X92307514Y24083780D01*
X92235749Y24094186D01*
X92223564Y24096264D01*
X92152387Y24110229D01*
X92151726Y24110262D01*
X92151398Y24110326D01*
X92145795Y24110600D01*
X92140501Y24110600D01*
X92120195Y24112064D01*
X92108500Y24112636D01*
X92096764Y24114338D01*
X92084925Y24113790D01*
X92084924Y24113790D01*
X92069545Y24113078D01*
X92022360Y24110894D01*
X92010644Y24110628D01*
X88243641Y24113968D01*
X86152909Y24115821D01*
X86148251Y24115880D01*
X86145795Y24116000D01*
X85950812Y24116000D01*
X85898972Y24116046D01*
X85898970Y24116046D01*
X85897787Y24116047D01*
X85897384Y24116009D01*
X85897002Y24116000D01*
X84199767Y24116000D01*
X84152040Y24120617D01*
X84105398Y24129726D01*
X84099795Y24130000D01*
X84077763Y24130000D01*
X84048064Y24131778D01*
X84043818Y24132288D01*
X84023390Y24134742D01*
X83967396Y24130777D01*
X83965204Y24130622D01*
X83947617Y24130000D01*
X83156487Y24130000D01*
X83061199Y24148954D01*
X82980571Y24202777D01*
X82961552Y24221763D01*
X82961551Y24221764D01*
X82951312Y24231985D01*
X82802336Y24323815D01*
X82788606Y24328369D01*
X82788604Y24328370D01*
X82649137Y24374629D01*
X82649136Y24374629D01*
X82636230Y24378910D01*
X82604033Y24382209D01*
X82539187Y24388853D01*
X82539179Y24388853D01*
X82532868Y24389500D01*
X81808132Y24389500D01*
X81801736Y24388836D01*
X81801729Y24388836D01*
X81717027Y24380047D01*
X81717025Y24380047D01*
X81703479Y24378641D01*
X81690566Y24374333D01*
X81690562Y24374332D01*
X81552798Y24328370D01*
X81537469Y24323256D01*
X81525169Y24315644D01*
X81525168Y24315644D01*
X81400954Y24238778D01*
X81400951Y24238776D01*
X81388654Y24231166D01*
X81378439Y24220933D01*
X81378435Y24220930D01*
X81287390Y24129726D01*
X81265015Y24107312D01*
X81173185Y23958336D01*
X81168631Y23944606D01*
X81168630Y23944604D01*
X81128492Y23823590D01*
X81118090Y23792230D01*
X81116704Y23778701D01*
X81111379Y23726725D01*
X81107500Y23688868D01*
X81107500Y23396907D01*
X81093721Y23315227D01*
X81081320Y23279514D01*
X81050762Y23068764D01*
X81051310Y23056924D01*
X81051310Y23056923D01*
X81057946Y22913559D01*
X81060608Y22856039D01*
X81063383Y22844526D01*
X81100569Y22690228D01*
X81107500Y22631889D01*
X81107500Y22339132D01*
X81108164Y22332736D01*
X81108164Y22332729D01*
X81113860Y22277836D01*
X81118359Y22234479D01*
X81122667Y22221566D01*
X81122668Y22221562D01*
X81139441Y22171288D01*
X81173744Y22068469D01*
X81181356Y22056169D01*
X81181356Y22056168D01*
X81254219Y21938424D01*
X81265834Y21919654D01*
X81276067Y21909439D01*
X81276070Y21909435D01*
X81378613Y21807071D01*
X81389688Y21796015D01*
X81538664Y21704185D01*
X81552394Y21699631D01*
X81552396Y21699630D01*
X81690968Y21653668D01*
X81704770Y21649090D01*
X81736967Y21645791D01*
X81801813Y21639147D01*
X81801821Y21639147D01*
X81808132Y21638500D01*
X82532868Y21638500D01*
X82539264Y21639164D01*
X82539271Y21639164D01*
X82623973Y21647953D01*
X82623975Y21647953D01*
X82637521Y21649359D01*
X82650434Y21653667D01*
X82650438Y21653668D01*
X82789812Y21700167D01*
X82803531Y21704744D01*
X82815832Y21712356D01*
X82940046Y21789222D01*
X82940049Y21789224D01*
X82952346Y21796834D01*
X82980379Y21824916D01*
X83061113Y21878963D01*
X83156602Y21898000D01*
X83806233Y21898000D01*
X83853959Y21893383D01*
X83900602Y21884274D01*
X83906205Y21884000D01*
X83928237Y21884000D01*
X83957936Y21882222D01*
X83962182Y21881712D01*
X83982610Y21879258D01*
X84040795Y21883378D01*
X84058383Y21884000D01*
X85949009Y21884000D01*
X90677223Y21879809D01*
X90772492Y21860770D01*
X90853226Y21806722D01*
X90907130Y21725893D01*
X90926000Y21630809D01*
X90926000Y20532529D01*
X90907046Y20437241D01*
X90853224Y20356614D01*
X90840154Y20343521D01*
X90799016Y20302311D01*
X90791425Y20289997D01*
X90791424Y20289995D01*
X90714774Y20165646D01*
X90714772Y20165642D01*
X90707186Y20153335D01*
X90652090Y19987229D01*
X90641500Y19883867D01*
X90641501Y19134134D01*
X90642165Y19127735D01*
X90642166Y19127714D01*
X90648082Y19070697D01*
X90639064Y18973962D01*
X90593712Y18888041D01*
X90518932Y18826016D01*
X90426109Y18797330D01*
X90400412Y18796000D01*
X88392000Y18796000D01*
X86795709Y17607311D01*
X86680150Y17521259D01*
X86592404Y17479550D01*
X86531526Y17471970D01*
X26068982Y17450240D01*
X25973690Y17469160D01*
X25892889Y17523107D01*
X25846618Y17588470D01*
X25843430Y17598049D01*
X25766489Y17717772D01*
X25760671Y17724487D01*
X25760666Y17724493D01*
X25725825Y17764701D01*
X25719996Y17771428D01*
X25693673Y17794237D01*
X25625900Y17852963D01*
X25625899Y17852964D01*
X25612441Y17864625D01*
X25596241Y17872023D01*
X25596240Y17872024D01*
X25491077Y17920050D01*
X25482986Y17923745D01*
X25414865Y17943747D01*
X25344973Y17953796D01*
X25282801Y17962735D01*
X25282796Y17962735D01*
X25274000Y17964000D01*
X12039507Y17964000D01*
X12030472Y17963803D01*
X12019080Y17963555D01*
X12019051Y17963554D01*
X12017719Y17963525D01*
X12006737Y17963046D01*
X12005388Y17962958D01*
X12005377Y17962957D01*
X12001991Y17962735D01*
X11984946Y17961618D01*
X11983547Y17961496D01*
X11983526Y17961494D01*
X11766901Y17942541D01*
X11766894Y17942540D01*
X11764194Y17942304D01*
X11761525Y17941953D01*
X11761510Y17941951D01*
X11739046Y17938993D01*
X11720957Y17936612D01*
X11718317Y17936147D01*
X11718307Y17936145D01*
X11710146Y17934706D01*
X11699336Y17932800D01*
X11696724Y17932221D01*
X11696714Y17932219D01*
X11659402Y17923948D01*
X11659387Y17923944D01*
X11656742Y17923358D01*
X11654118Y17922655D01*
X11654098Y17922650D01*
X11562046Y17897984D01*
X11497599Y17889499D01*
X10878134Y17889499D01*
X10871737Y17888835D01*
X10871731Y17888835D01*
X10773480Y17878641D01*
X10773168Y17881648D01*
X10699035Y17880439D01*
X10608682Y17916150D01*
X10538872Y17983720D01*
X10500234Y18072862D01*
X10498650Y18170004D01*
X10507284Y18203797D01*
X10513910Y18223772D01*
X10524500Y18327134D01*
X10524500Y18448917D01*
X10543454Y18544205D01*
X10597430Y18624987D01*
X10678212Y18678963D01*
X10773500Y18697917D01*
X10798856Y18696622D01*
X10808705Y18695613D01*
X10885035Y18675194D01*
X10885480Y18674995D01*
X10888634Y18673476D01*
X10940436Y18652019D01*
X10943713Y18650872D01*
X10943727Y18650867D01*
X11073938Y18605305D01*
X11073945Y18605303D01*
X11077228Y18604154D01*
X11107428Y18595453D01*
X11127733Y18589603D01*
X11127743Y18589600D01*
X11131094Y18588635D01*
X11145864Y18585263D01*
X11155191Y18583134D01*
X11155205Y18583131D01*
X11158601Y18582356D01*
X11162052Y18581770D01*
X11162060Y18581768D01*
X11186246Y18577658D01*
X11213890Y18572961D01*
X11217373Y18572569D01*
X11217377Y18572568D01*
X11363262Y18556130D01*
X11363295Y18556127D01*
X11364988Y18555936D01*
X11377807Y18554855D01*
X11391221Y18553723D01*
X11391255Y18553721D01*
X11392946Y18553578D01*
X11397159Y18553341D01*
X11405302Y18552884D01*
X11405327Y18552883D01*
X11407054Y18552786D01*
X11408810Y18552737D01*
X11408828Y18552736D01*
X11433361Y18552048D01*
X11433374Y18552048D01*
X11435079Y18552000D01*
X20342921Y18552000D01*
X20344626Y18552048D01*
X20344639Y18552048D01*
X20369172Y18552736D01*
X20369190Y18552737D01*
X20370946Y18552786D01*
X20372673Y18552883D01*
X20372698Y18552884D01*
X20380841Y18553341D01*
X20385054Y18553578D01*
X20386745Y18553721D01*
X20386779Y18553723D01*
X20402774Y18555072D01*
X20413012Y18555936D01*
X20414736Y18556130D01*
X20414764Y18556133D01*
X20492045Y18564841D01*
X20561440Y18572660D01*
X20616716Y18582052D01*
X20621457Y18583134D01*
X20640810Y18587551D01*
X20640818Y18587553D01*
X20644222Y18588330D01*
X20678674Y18598255D01*
X20694742Y18602884D01*
X20694747Y18602886D01*
X20698105Y18603853D01*
X20701407Y18605009D01*
X20701415Y18605011D01*
X20829058Y18649676D01*
X20829066Y18649679D01*
X20832358Y18650831D01*
X20884156Y18672287D01*
X20890193Y18675194D01*
X20906436Y18683016D01*
X20906446Y18683021D01*
X20909575Y18684528D01*
X20958649Y18711650D01*
X21015765Y18747538D01*
X21075183Y18784872D01*
X21165950Y18819518D01*
X21181951Y18821706D01*
X21207521Y18824359D01*
X21220434Y18828667D01*
X21220438Y18828668D01*
X21359812Y18875167D01*
X21373531Y18879744D01*
X21386939Y18888041D01*
X21510046Y18964222D01*
X21510049Y18964224D01*
X21522346Y18971834D01*
X21532561Y18982067D01*
X21532565Y18982070D01*
X21635763Y19085448D01*
X21635764Y19085449D01*
X21645985Y19095688D01*
X21737815Y19244664D01*
X21792910Y19410770D01*
X21803500Y19514132D01*
X21803500Y20238868D01*
X21795855Y20312552D01*
X21794047Y20329973D01*
X21794047Y20329975D01*
X21792641Y20343521D01*
X21737256Y20509531D01*
X21645166Y20658346D01*
X21634933Y20668561D01*
X21634930Y20668565D01*
X21531552Y20771763D01*
X21531551Y20771764D01*
X21521312Y20781985D01*
X21372336Y20873815D01*
X21358606Y20878369D01*
X21358604Y20878370D01*
X21219137Y20924629D01*
X21219136Y20924629D01*
X21206230Y20928910D01*
X21174033Y20932209D01*
X21109187Y20938853D01*
X21109179Y20938853D01*
X21102868Y20939500D01*
X20972826Y20939500D01*
X20877538Y20958454D01*
X20832358Y20977169D01*
X20802154Y20987738D01*
X20698105Y21024147D01*
X20644222Y21039670D01*
X20640818Y21040447D01*
X20640810Y21040449D01*
X20620129Y21045169D01*
X20616716Y21045948D01*
X20561440Y21055340D01*
X20483321Y21064142D01*
X20414764Y21071867D01*
X20414736Y21071870D01*
X20413012Y21072064D01*
X20402774Y21072928D01*
X20386779Y21074277D01*
X20386745Y21074279D01*
X20385054Y21074422D01*
X20380841Y21074659D01*
X20372698Y21075116D01*
X20372673Y21075117D01*
X20370946Y21075214D01*
X20369190Y21075263D01*
X20369172Y21075264D01*
X20344639Y21075952D01*
X20344626Y21075952D01*
X20342921Y21076000D01*
X18873455Y21076000D01*
X18824389Y21082163D01*
X18824186Y21081094D01*
X18816534Y21082545D01*
X18809001Y21084468D01*
X18801288Y21085437D01*
X18801287Y21085437D01*
X18778867Y21088253D01*
X18685345Y21100000D01*
X11435079Y21100000D01*
X11433374Y21099952D01*
X11433361Y21099952D01*
X11408828Y21099264D01*
X11408810Y21099263D01*
X11407054Y21099214D01*
X11405327Y21099117D01*
X11405302Y21099116D01*
X11397159Y21098659D01*
X11392946Y21098422D01*
X11391255Y21098279D01*
X11391221Y21098277D01*
X11377807Y21097145D01*
X11364988Y21096064D01*
X11363295Y21095873D01*
X11363262Y21095870D01*
X11217377Y21079432D01*
X11217373Y21079431D01*
X11213890Y21079039D01*
X11187284Y21074518D01*
X11162060Y21070232D01*
X11162052Y21070230D01*
X11158601Y21069644D01*
X11155205Y21068869D01*
X11155191Y21068866D01*
X11145864Y21066737D01*
X11131094Y21063365D01*
X11127743Y21062400D01*
X11127733Y21062397D01*
X11107428Y21056547D01*
X11077228Y21047846D01*
X11073945Y21046697D01*
X11073938Y21046695D01*
X10943727Y21001133D01*
X10943713Y21001128D01*
X10940436Y20999981D01*
X10937223Y20998650D01*
X10937220Y20998649D01*
X10911837Y20988135D01*
X10816549Y20969182D01*
X10721261Y20988137D01*
X10640480Y21042114D01*
X10586504Y21122896D01*
X10575017Y21157665D01*
X10574407Y21160101D01*
X10574398Y21160133D01*
X10573656Y21163096D01*
X10523953Y21326949D01*
X10507414Y21373170D01*
X10497961Y21395989D01*
X10496659Y21398742D01*
X10478297Y21437564D01*
X10478287Y21437584D01*
X10476990Y21440326D01*
X10396280Y21591325D01*
X10371051Y21633417D01*
X10357333Y21653947D01*
X10328107Y21693354D01*
X10219480Y21825717D01*
X10186527Y21862074D01*
X10169074Y21879527D01*
X10132717Y21912480D01*
X10123976Y21919654D01*
X10002742Y22019147D01*
X10000354Y22021107D01*
X9960947Y22050333D01*
X9940420Y22064049D01*
X9898329Y22089278D01*
X9747327Y22169990D01*
X9702982Y22190964D01*
X9680162Y22200417D01*
X9677288Y22201445D01*
X9677276Y22201450D01*
X9636823Y22215925D01*
X9636809Y22215930D01*
X9633949Y22216953D01*
X9531510Y22248027D01*
X9473013Y22265772D01*
X9472993Y22265778D01*
X9470097Y22266656D01*
X9446396Y22272592D01*
X9425461Y22277836D01*
X9425446Y22277839D01*
X9422481Y22278582D01*
X9419496Y22279176D01*
X9419481Y22279179D01*
X9401256Y22282803D01*
X9401255Y22282803D01*
X9398264Y22283398D01*
X9395261Y22283843D01*
X9395240Y22283847D01*
X9369346Y22287687D01*
X9349750Y22290593D01*
X9237361Y22301663D01*
X9174678Y22307837D01*
X9174659Y22307839D01*
X9173173Y22307985D01*
X9171683Y22308095D01*
X9171659Y22308097D01*
X9150202Y22309680D01*
X9150184Y22309681D01*
X9148708Y22309790D01*
X9147229Y22309863D01*
X9147224Y22309863D01*
X9137846Y22310324D01*
X9137835Y22310324D01*
X9136358Y22310397D01*
X9134885Y22310433D01*
X9134863Y22310434D01*
X9120948Y22310776D01*
X9111813Y22311000D01*
X5536187Y22311000D01*
X5527052Y22310776D01*
X5513137Y22310434D01*
X5513115Y22310433D01*
X5511642Y22310397D01*
X5510165Y22310324D01*
X5510154Y22310324D01*
X5500776Y22309863D01*
X5500771Y22309863D01*
X5499292Y22309790D01*
X5497816Y22309681D01*
X5497798Y22309680D01*
X5476341Y22308097D01*
X5476317Y22308095D01*
X5474827Y22307985D01*
X5473341Y22307839D01*
X5473322Y22307837D01*
X5410639Y22301663D01*
X5298250Y22290593D01*
X5278654Y22287687D01*
X5252760Y22283847D01*
X5252739Y22283843D01*
X5249736Y22283398D01*
X5246745Y22282803D01*
X5246744Y22282803D01*
X5228519Y22279179D01*
X5228504Y22279176D01*
X5225519Y22278582D01*
X5222554Y22277839D01*
X5222539Y22277836D01*
X5201604Y22272592D01*
X5177903Y22266656D01*
X5175007Y22265778D01*
X5174987Y22265772D01*
X5116490Y22248027D01*
X5014051Y22216953D01*
X5011191Y22215930D01*
X5011177Y22215925D01*
X4970724Y22201450D01*
X4970712Y22201445D01*
X4967838Y22200417D01*
X4945018Y22190964D01*
X4900673Y22169990D01*
X4749671Y22089278D01*
X4707580Y22064049D01*
X4687053Y22050333D01*
X4647646Y22021107D01*
X4645258Y22019147D01*
X4524025Y21919654D01*
X4515283Y21912480D01*
X4478926Y21879527D01*
X4461473Y21862074D01*
X4428520Y21825717D01*
X4319893Y21693354D01*
X4290667Y21653947D01*
X4276949Y21633417D01*
X4251720Y21591325D01*
X4171010Y21440326D01*
X4169713Y21437584D01*
X4169703Y21437564D01*
X4151341Y21398742D01*
X4150039Y21395989D01*
X4140586Y21373170D01*
X4124047Y21326949D01*
X4074344Y21163096D01*
X4062420Y21115489D01*
X4057603Y21091269D01*
X4050406Y21042746D01*
X4045027Y20988135D01*
X4033768Y20873815D01*
X4033015Y20866172D01*
X4031210Y20841708D01*
X4030603Y20829358D01*
X4030000Y20804813D01*
X4030000Y19007187D01*
X4030603Y18982642D01*
X4031210Y18970292D01*
X4033015Y18945828D01*
X4033165Y18944306D01*
X4033168Y18944270D01*
X4038774Y18887356D01*
X4050406Y18769254D01*
X4057603Y18720731D01*
X4062420Y18696511D01*
X4074344Y18648903D01*
X4075232Y18645976D01*
X4112779Y18522196D01*
X4123500Y18449917D01*
X4123500Y18327134D01*
X4134359Y18222481D01*
X4138667Y18209568D01*
X4138668Y18209564D01*
X4184276Y18072862D01*
X4189744Y18056471D01*
X4197354Y18044174D01*
X4197355Y18044171D01*
X4248384Y17961710D01*
X4281834Y17907655D01*
X4405689Y17784016D01*
X4418003Y17776426D01*
X4418005Y17776424D01*
X4525299Y17710288D01*
X4554666Y17692186D01*
X4636069Y17665185D01*
X4707864Y17641371D01*
X4707868Y17641370D01*
X4720772Y17637090D01*
X4734300Y17635704D01*
X4817815Y17627147D01*
X4817823Y17627147D01*
X4824134Y17626500D01*
X4883016Y17626500D01*
X4967533Y17610756D01*
X4967830Y17611586D01*
X5014051Y17595047D01*
X5177904Y17545344D01*
X5225519Y17533418D01*
X5228499Y17532825D01*
X5228514Y17532822D01*
X5246744Y17529197D01*
X5249736Y17528602D01*
X5252739Y17528157D01*
X5252760Y17528153D01*
X5278654Y17524313D01*
X5298250Y17521407D01*
X5410639Y17510337D01*
X5473322Y17504163D01*
X5473341Y17504161D01*
X5474827Y17504015D01*
X5476317Y17503905D01*
X5476341Y17503903D01*
X5497798Y17502320D01*
X5497816Y17502319D01*
X5499292Y17502210D01*
X5500771Y17502137D01*
X5500776Y17502137D01*
X5510154Y17501676D01*
X5510165Y17501676D01*
X5511642Y17501603D01*
X5513115Y17501567D01*
X5513137Y17501566D01*
X5527052Y17501224D01*
X5536187Y17501000D01*
X9111813Y17501000D01*
X9120948Y17501224D01*
X9134863Y17501566D01*
X9134885Y17501567D01*
X9136358Y17501603D01*
X9137835Y17501676D01*
X9137846Y17501676D01*
X9147224Y17502137D01*
X9147229Y17502137D01*
X9148708Y17502210D01*
X9150184Y17502319D01*
X9150202Y17502320D01*
X9171659Y17503903D01*
X9171683Y17503905D01*
X9173173Y17504015D01*
X9174659Y17504161D01*
X9174678Y17504163D01*
X9237361Y17510337D01*
X9349750Y17521407D01*
X9369346Y17524313D01*
X9395240Y17528153D01*
X9395261Y17528157D01*
X9398264Y17528602D01*
X9401256Y17529197D01*
X9419486Y17532822D01*
X9419501Y17532825D01*
X9422481Y17533418D01*
X9470096Y17545344D01*
X9633949Y17595047D01*
X9680170Y17611586D01*
X9680467Y17610756D01*
X9764984Y17626500D01*
X9823866Y17626500D01*
X9830262Y17627164D01*
X9830269Y17627164D01*
X9928519Y17637359D01*
X9928831Y17634351D01*
X10002940Y17635566D01*
X10093298Y17599864D01*
X10163114Y17532301D01*
X10201761Y17443164D01*
X10203354Y17346022D01*
X10194716Y17312204D01*
X10188090Y17292229D01*
X10177500Y17188867D01*
X10177501Y16439134D01*
X10185046Y16366418D01*
X10185428Y16319019D01*
X10169903Y16141579D01*
X10168000Y16098000D01*
X10168000Y15568056D01*
X10149046Y15472768D01*
X10095070Y15391986D01*
X10014288Y15338010D01*
X9919000Y15319056D01*
X9893625Y15320353D01*
X9871661Y15322603D01*
X9830185Y15326853D01*
X9830177Y15326853D01*
X9823866Y15327500D01*
X4824134Y15327500D01*
X4817738Y15326836D01*
X4817731Y15326836D01*
X4733029Y15318047D01*
X4733027Y15318047D01*
X4719481Y15316641D01*
X4706568Y15312333D01*
X4706564Y15312332D01*
X4567190Y15265833D01*
X4553471Y15261256D01*
X4541174Y15253646D01*
X4541171Y15253645D01*
X4457419Y15201817D01*
X4404655Y15169166D01*
X4281016Y15045311D01*
X4189186Y14896334D01*
X4134090Y14730228D01*
X4123500Y14626866D01*
X4123500Y13982489D01*
X4104546Y13887201D01*
X4093042Y13863156D01*
X4064216Y13810365D01*
X4048245Y13778461D01*
X4040779Y13762114D01*
X4027114Y13729125D01*
X3933686Y13478635D01*
X3922410Y13444754D01*
X3917347Y13427509D01*
X3908525Y13392941D01*
X3851699Y13131716D01*
X3845363Y13096603D01*
X3842805Y13078815D01*
X3838988Y13043313D01*
X3819595Y12772155D01*
X3818640Y12754333D01*
X3818319Y12745345D01*
X3818000Y12727499D01*
X3818000Y11910501D01*
X500000Y11910501D01*
X500000Y23000000D01*
X26969783Y23000000D01*
X26988623Y22760621D01*
X26990905Y22751114D01*
X26990906Y22751110D01*
X27029178Y22591697D01*
X27044677Y22527137D01*
X27136567Y22305296D01*
X27141674Y22296963D01*
X27141676Y22296958D01*
X27201552Y22199249D01*
X27262028Y22100561D01*
X27417973Y21917973D01*
X27425416Y21911616D01*
X27484949Y21860770D01*
X27600561Y21762028D01*
X27608897Y21756920D01*
X27796958Y21641676D01*
X27796963Y21641674D01*
X27805296Y21636567D01*
X28027137Y21544677D01*
X28091697Y21529178D01*
X28251110Y21490906D01*
X28251114Y21490905D01*
X28260621Y21488623D01*
X28500000Y21469783D01*
X28739379Y21488623D01*
X28748886Y21490905D01*
X28748890Y21490906D01*
X28908303Y21529178D01*
X28972863Y21544677D01*
X29194704Y21636567D01*
X29203037Y21641674D01*
X29203042Y21641676D01*
X29391100Y21756918D01*
X29391103Y21756920D01*
X29399439Y21762028D01*
X29472401Y21824343D01*
X29557165Y21871813D01*
X29634110Y21884000D01*
X41943538Y21884000D01*
X42038826Y21865046D01*
X42119456Y21811221D01*
X42134688Y21796015D01*
X42283664Y21704185D01*
X42297394Y21699631D01*
X42297396Y21699630D01*
X42435968Y21653668D01*
X42449770Y21649090D01*
X42481967Y21645791D01*
X42546813Y21639147D01*
X42546821Y21639147D01*
X42553132Y21638500D01*
X43277868Y21638500D01*
X43284264Y21639164D01*
X43284271Y21639164D01*
X43368973Y21647953D01*
X43368975Y21647953D01*
X43382521Y21649359D01*
X43395434Y21653667D01*
X43395438Y21653668D01*
X43534812Y21700167D01*
X43548531Y21704744D01*
X43560832Y21712356D01*
X43685046Y21789222D01*
X43685049Y21789224D01*
X43697346Y21796834D01*
X43707561Y21807067D01*
X43707565Y21807070D01*
X43810763Y21910448D01*
X43810764Y21910449D01*
X43820985Y21920688D01*
X43912815Y22069664D01*
X43919798Y22090715D01*
X43963629Y22222863D01*
X43963629Y22222864D01*
X43967910Y22235770D01*
X43972296Y22278582D01*
X43977853Y22332813D01*
X43977853Y22332821D01*
X43978500Y22339132D01*
X43978500Y22635257D01*
X43990353Y22711168D01*
X44007231Y22763894D01*
X44007232Y22763898D01*
X44010842Y22775176D01*
X44036242Y22986610D01*
X44030425Y23068764D01*
X44720762Y23068764D01*
X44721310Y23056924D01*
X44721310Y23056923D01*
X44727946Y22913559D01*
X44730608Y22856039D01*
X44733383Y22844526D01*
X44770569Y22690228D01*
X44777500Y22631889D01*
X44777500Y22339132D01*
X44778164Y22332736D01*
X44778164Y22332729D01*
X44783860Y22277836D01*
X44788359Y22234479D01*
X44792667Y22221566D01*
X44792668Y22221562D01*
X44809441Y22171288D01*
X44843744Y22068469D01*
X44851356Y22056169D01*
X44851356Y22056168D01*
X44924219Y21938424D01*
X44935834Y21919654D01*
X44946067Y21909439D01*
X44946070Y21909435D01*
X45048613Y21807071D01*
X45059688Y21796015D01*
X45208664Y21704185D01*
X45222394Y21699631D01*
X45222396Y21699630D01*
X45360968Y21653668D01*
X45374770Y21649090D01*
X45406967Y21645791D01*
X45471813Y21639147D01*
X45471821Y21639147D01*
X45478132Y21638500D01*
X46202868Y21638500D01*
X46209264Y21639164D01*
X46209271Y21639164D01*
X46293973Y21647953D01*
X46293975Y21647953D01*
X46307521Y21649359D01*
X46320434Y21653667D01*
X46320438Y21653668D01*
X46459812Y21700167D01*
X46473531Y21704744D01*
X46485832Y21712356D01*
X46610046Y21789222D01*
X46610049Y21789224D01*
X46622346Y21796834D01*
X46650379Y21824916D01*
X46731113Y21878963D01*
X46826602Y21898000D01*
X47476233Y21898000D01*
X47523959Y21893383D01*
X47570602Y21884274D01*
X47576205Y21884000D01*
X47598237Y21884000D01*
X47627936Y21882222D01*
X47632182Y21881712D01*
X47652610Y21879258D01*
X47710795Y21883378D01*
X47728383Y21884000D01*
X54397538Y21884000D01*
X54492826Y21865046D01*
X54573456Y21811221D01*
X54588688Y21796015D01*
X54737664Y21704185D01*
X54751394Y21699631D01*
X54751396Y21699630D01*
X54889968Y21653668D01*
X54903770Y21649090D01*
X54935967Y21645791D01*
X55000813Y21639147D01*
X55000821Y21639147D01*
X55007132Y21638500D01*
X55731868Y21638500D01*
X55738264Y21639164D01*
X55738271Y21639164D01*
X55822973Y21647953D01*
X55822975Y21647953D01*
X55836521Y21649359D01*
X55849434Y21653667D01*
X55849438Y21653668D01*
X55988812Y21700167D01*
X56002531Y21704744D01*
X56014832Y21712356D01*
X56139046Y21789222D01*
X56139049Y21789224D01*
X56151346Y21796834D01*
X56161561Y21807067D01*
X56161565Y21807070D01*
X56264763Y21910448D01*
X56264764Y21910449D01*
X56274985Y21920688D01*
X56366815Y22069664D01*
X56373798Y22090715D01*
X56417629Y22222863D01*
X56417629Y22222864D01*
X56421910Y22235770D01*
X56426296Y22278582D01*
X56431853Y22332813D01*
X56431853Y22332821D01*
X56432500Y22339132D01*
X56432500Y22635257D01*
X56444353Y22711168D01*
X56461231Y22763894D01*
X56461232Y22763898D01*
X56464842Y22775176D01*
X56490242Y22986610D01*
X56484425Y23068764D01*
X57174762Y23068764D01*
X57175310Y23056924D01*
X57175310Y23056923D01*
X57181946Y22913559D01*
X57184608Y22856039D01*
X57187383Y22844526D01*
X57224569Y22690228D01*
X57231500Y22631889D01*
X57231500Y22339132D01*
X57232164Y22332736D01*
X57232164Y22332729D01*
X57237860Y22277836D01*
X57242359Y22234479D01*
X57246667Y22221566D01*
X57246668Y22221562D01*
X57263441Y22171288D01*
X57297744Y22068469D01*
X57305356Y22056169D01*
X57305356Y22056168D01*
X57378219Y21938424D01*
X57389834Y21919654D01*
X57400067Y21909439D01*
X57400070Y21909435D01*
X57502613Y21807071D01*
X57513688Y21796015D01*
X57662664Y21704185D01*
X57676394Y21699631D01*
X57676396Y21699630D01*
X57814968Y21653668D01*
X57828770Y21649090D01*
X57860967Y21645791D01*
X57925813Y21639147D01*
X57925821Y21639147D01*
X57932132Y21638500D01*
X58656868Y21638500D01*
X58663264Y21639164D01*
X58663271Y21639164D01*
X58747973Y21647953D01*
X58747975Y21647953D01*
X58761521Y21649359D01*
X58774434Y21653667D01*
X58774438Y21653668D01*
X58913812Y21700167D01*
X58927531Y21704744D01*
X58939832Y21712356D01*
X59064046Y21789222D01*
X59064049Y21789224D01*
X59076346Y21796834D01*
X59104379Y21824916D01*
X59185113Y21878963D01*
X59280602Y21898000D01*
X59930233Y21898000D01*
X59977959Y21893383D01*
X60024602Y21884274D01*
X60030205Y21884000D01*
X60052237Y21884000D01*
X60081936Y21882222D01*
X60086182Y21881712D01*
X60106610Y21879258D01*
X60164795Y21883378D01*
X60182383Y21884000D01*
X63325492Y21884000D01*
X63420780Y21865046D01*
X63428704Y21861559D01*
X63440666Y21854186D01*
X63454400Y21849631D01*
X63454399Y21849631D01*
X63593864Y21803371D01*
X63593868Y21803370D01*
X63606772Y21799090D01*
X63620300Y21797704D01*
X63703815Y21789147D01*
X63703823Y21789147D01*
X63710134Y21788500D01*
X64309866Y21788500D01*
X64316262Y21789164D01*
X64316269Y21789164D01*
X64400971Y21797953D01*
X64400973Y21797953D01*
X64414519Y21799359D01*
X64427432Y21803667D01*
X64427436Y21803668D01*
X64566810Y21850167D01*
X64580529Y21854744D01*
X64592826Y21862354D01*
X64592829Y21862355D01*
X64682706Y21917973D01*
X64729345Y21946834D01*
X64783789Y22001373D01*
X64864523Y22055420D01*
X64959795Y22074457D01*
X65055100Y22055586D01*
X65135927Y22001680D01*
X65191689Y21946016D01*
X65204003Y21938426D01*
X65204005Y21938424D01*
X65269586Y21898000D01*
X65340666Y21854186D01*
X65419649Y21827988D01*
X65493864Y21803371D01*
X65493868Y21803370D01*
X65506772Y21799090D01*
X65520300Y21797704D01*
X65603815Y21789147D01*
X65603823Y21789147D01*
X65610134Y21788500D01*
X66209866Y21788500D01*
X66216262Y21789164D01*
X66216269Y21789164D01*
X66300971Y21797953D01*
X66300973Y21797953D01*
X66314519Y21799359D01*
X66327432Y21803667D01*
X66327436Y21803668D01*
X66466810Y21850167D01*
X66480529Y21854744D01*
X66492829Y21862355D01*
X66505929Y21868492D01*
X66506678Y21866893D01*
X66581215Y21894762D01*
X66621242Y21898000D01*
X70919010Y21898000D01*
X71014298Y21879046D01*
X71045254Y21863222D01*
X71048345Y21861781D01*
X71060666Y21854186D01*
X71139649Y21827988D01*
X71213864Y21803371D01*
X71213868Y21803370D01*
X71226772Y21799090D01*
X71240300Y21797704D01*
X71323815Y21789147D01*
X71323823Y21789147D01*
X71330134Y21788500D01*
X71929866Y21788500D01*
X71936262Y21789164D01*
X71936269Y21789164D01*
X72020971Y21797953D01*
X72020973Y21797953D01*
X72034519Y21799359D01*
X72047432Y21803667D01*
X72047436Y21803668D01*
X72186810Y21850167D01*
X72200529Y21854744D01*
X72212826Y21862354D01*
X72212829Y21862355D01*
X72302706Y21917973D01*
X72349345Y21946834D01*
X72403789Y22001373D01*
X72484523Y22055420D01*
X72579795Y22074457D01*
X72675100Y22055586D01*
X72755927Y22001680D01*
X72811689Y21946016D01*
X72824003Y21938426D01*
X72824005Y21938424D01*
X72889586Y21898000D01*
X72960666Y21854186D01*
X73039649Y21827988D01*
X73113864Y21803371D01*
X73113868Y21803370D01*
X73126772Y21799090D01*
X73140300Y21797704D01*
X73223815Y21789147D01*
X73223823Y21789147D01*
X73230134Y21788500D01*
X73829866Y21788500D01*
X73836262Y21789164D01*
X73836269Y21789164D01*
X73920971Y21797953D01*
X73920973Y21797953D01*
X73934519Y21799359D01*
X73947432Y21803667D01*
X73947436Y21803668D01*
X74086810Y21850167D01*
X74100529Y21854744D01*
X74112829Y21862355D01*
X74125929Y21868492D01*
X74126678Y21866893D01*
X74201215Y21894762D01*
X74241242Y21898000D01*
X75170233Y21898000D01*
X75217959Y21893383D01*
X75264602Y21884274D01*
X75270205Y21884000D01*
X75292237Y21884000D01*
X75321936Y21882222D01*
X75326182Y21881712D01*
X75346610Y21879258D01*
X75404795Y21883378D01*
X75422383Y21884000D01*
X78273538Y21884000D01*
X78368826Y21865046D01*
X78449456Y21811221D01*
X78464688Y21796015D01*
X78613664Y21704185D01*
X78627394Y21699631D01*
X78627396Y21699630D01*
X78765968Y21653668D01*
X78779770Y21649090D01*
X78811967Y21645791D01*
X78876813Y21639147D01*
X78876821Y21639147D01*
X78883132Y21638500D01*
X79607868Y21638500D01*
X79614264Y21639164D01*
X79614271Y21639164D01*
X79698973Y21647953D01*
X79698975Y21647953D01*
X79712521Y21649359D01*
X79725434Y21653667D01*
X79725438Y21653668D01*
X79864812Y21700167D01*
X79878531Y21704744D01*
X79890832Y21712356D01*
X80015046Y21789222D01*
X80015049Y21789224D01*
X80027346Y21796834D01*
X80037561Y21807067D01*
X80037565Y21807070D01*
X80140763Y21910448D01*
X80140764Y21910449D01*
X80150985Y21920688D01*
X80242815Y22069664D01*
X80249798Y22090715D01*
X80293629Y22222863D01*
X80293629Y22222864D01*
X80297910Y22235770D01*
X80302296Y22278582D01*
X80307853Y22332813D01*
X80307853Y22332821D01*
X80308500Y22339132D01*
X80308500Y22635257D01*
X80320353Y22711168D01*
X80337231Y22763894D01*
X80337232Y22763898D01*
X80340842Y22775176D01*
X80366242Y22986610D01*
X80356768Y23120409D01*
X80352038Y23187214D01*
X80352038Y23187217D01*
X80351201Y23199031D01*
X80316928Y23327387D01*
X80308500Y23391623D01*
X80308500Y23688868D01*
X80307030Y23703042D01*
X80299047Y23779973D01*
X80299047Y23779975D01*
X80297641Y23793521D01*
X80292301Y23809529D01*
X80246833Y23945812D01*
X80242256Y23959531D01*
X80223626Y23989637D01*
X80157778Y24096046D01*
X80157776Y24096049D01*
X80150166Y24108346D01*
X80139933Y24118561D01*
X80139930Y24118565D01*
X80036552Y24221763D01*
X80036551Y24221764D01*
X80026312Y24231985D01*
X79877336Y24323815D01*
X79863606Y24328369D01*
X79863604Y24328370D01*
X79724137Y24374629D01*
X79724136Y24374629D01*
X79711230Y24378910D01*
X79679033Y24382209D01*
X79614187Y24388853D01*
X79614179Y24388853D01*
X79607868Y24389500D01*
X78883132Y24389500D01*
X78876736Y24388836D01*
X78876729Y24388836D01*
X78792027Y24380047D01*
X78792025Y24380047D01*
X78778479Y24378641D01*
X78765566Y24374333D01*
X78765562Y24374332D01*
X78627798Y24328370D01*
X78612469Y24323256D01*
X78463654Y24231166D01*
X78453440Y24220934D01*
X78453431Y24220927D01*
X78421643Y24189083D01*
X78340909Y24135037D01*
X78245421Y24116000D01*
X75563767Y24116000D01*
X75516040Y24120617D01*
X75469398Y24129726D01*
X75463795Y24130000D01*
X75441763Y24130000D01*
X75412064Y24131778D01*
X75407818Y24132288D01*
X75387390Y24134742D01*
X75331396Y24130777D01*
X75329204Y24130622D01*
X75311617Y24130000D01*
X74240990Y24130000D01*
X74145702Y24148954D01*
X74114746Y24164778D01*
X74111654Y24166220D01*
X74099334Y24173814D01*
X74012015Y24202777D01*
X73946136Y24224629D01*
X73946132Y24224630D01*
X73933228Y24228910D01*
X73906768Y24231621D01*
X73836185Y24238853D01*
X73836177Y24238853D01*
X73829866Y24239500D01*
X73230134Y24239500D01*
X73223738Y24238836D01*
X73223731Y24238836D01*
X73139029Y24230047D01*
X73139027Y24230047D01*
X73125481Y24228641D01*
X73112568Y24224333D01*
X73112564Y24224332D01*
X72974800Y24178370D01*
X72959471Y24173256D01*
X72947174Y24165646D01*
X72947171Y24165645D01*
X72866662Y24115824D01*
X72810655Y24081166D01*
X72775466Y24045916D01*
X72756211Y24026627D01*
X72675477Y23972580D01*
X72580205Y23953543D01*
X72484900Y23972414D01*
X72404072Y24026320D01*
X72403765Y24026627D01*
X72348311Y24081984D01*
X72335997Y24089574D01*
X72335995Y24089576D01*
X72211654Y24166220D01*
X72211653Y24166220D01*
X72199334Y24173814D01*
X72112015Y24202777D01*
X72046136Y24224629D01*
X72046132Y24224630D01*
X72033228Y24228910D01*
X72006768Y24231621D01*
X71936185Y24238853D01*
X71936177Y24238853D01*
X71929866Y24239500D01*
X71330134Y24239500D01*
X71323738Y24238836D01*
X71323731Y24238836D01*
X71239029Y24230047D01*
X71239027Y24230047D01*
X71225481Y24228641D01*
X71212568Y24224333D01*
X71212564Y24224332D01*
X71074800Y24178370D01*
X71059471Y24173256D01*
X71047171Y24165645D01*
X71034071Y24159508D01*
X71033322Y24161107D01*
X70958785Y24133238D01*
X70918758Y24130000D01*
X70261807Y24130000D01*
X70204210Y24136753D01*
X70193198Y24139371D01*
X70178580Y24144851D01*
X70117377Y24151500D01*
X68800880Y24151500D01*
X67482624Y24151499D01*
X67475922Y24150771D01*
X67436939Y24146537D01*
X67436937Y24146536D01*
X67421420Y24144851D01*
X67406805Y24139372D01*
X67395789Y24136753D01*
X67338193Y24130000D01*
X66620990Y24130000D01*
X66525702Y24148954D01*
X66494746Y24164778D01*
X66491654Y24166220D01*
X66479334Y24173814D01*
X66392015Y24202777D01*
X66326136Y24224629D01*
X66326132Y24224630D01*
X66313228Y24228910D01*
X66286768Y24231621D01*
X66216185Y24238853D01*
X66216177Y24238853D01*
X66209866Y24239500D01*
X65610134Y24239500D01*
X65603738Y24238836D01*
X65603731Y24238836D01*
X65519029Y24230047D01*
X65519027Y24230047D01*
X65505481Y24228641D01*
X65492568Y24224333D01*
X65492564Y24224332D01*
X65354800Y24178370D01*
X65339471Y24173256D01*
X65327174Y24165646D01*
X65327171Y24165645D01*
X65246662Y24115824D01*
X65190655Y24081166D01*
X65155466Y24045916D01*
X65136211Y24026627D01*
X65055477Y23972580D01*
X64960205Y23953543D01*
X64864900Y23972414D01*
X64784072Y24026320D01*
X64783765Y24026627D01*
X64728311Y24081984D01*
X64715997Y24089574D01*
X64715995Y24089576D01*
X64591654Y24166220D01*
X64591653Y24166220D01*
X64579334Y24173814D01*
X64492015Y24202777D01*
X64426136Y24224629D01*
X64426132Y24224630D01*
X64413228Y24228910D01*
X64386768Y24231621D01*
X64316185Y24238853D01*
X64316177Y24238853D01*
X64309866Y24239500D01*
X63710134Y24239500D01*
X63703738Y24238836D01*
X63703731Y24238836D01*
X63619029Y24230047D01*
X63619027Y24230047D01*
X63605481Y24228641D01*
X63592568Y24224333D01*
X63592564Y24224332D01*
X63454800Y24178370D01*
X63439471Y24173256D01*
X63427174Y24165646D01*
X63427171Y24165645D01*
X63407161Y24153262D01*
X63316159Y24119238D01*
X63276134Y24116000D01*
X60323767Y24116000D01*
X60276040Y24120617D01*
X60229398Y24129726D01*
X60223795Y24130000D01*
X60201763Y24130000D01*
X60172064Y24131778D01*
X60167818Y24132288D01*
X60147390Y24134742D01*
X60091396Y24130777D01*
X60089204Y24130622D01*
X60071617Y24130000D01*
X59280487Y24130000D01*
X59185199Y24148954D01*
X59104571Y24202777D01*
X59085552Y24221763D01*
X59085551Y24221764D01*
X59075312Y24231985D01*
X58926336Y24323815D01*
X58912606Y24328369D01*
X58912604Y24328370D01*
X58773137Y24374629D01*
X58773136Y24374629D01*
X58760230Y24378910D01*
X58728033Y24382209D01*
X58663187Y24388853D01*
X58663179Y24388853D01*
X58656868Y24389500D01*
X57932132Y24389500D01*
X57925736Y24388836D01*
X57925729Y24388836D01*
X57841027Y24380047D01*
X57841025Y24380047D01*
X57827479Y24378641D01*
X57814566Y24374333D01*
X57814562Y24374332D01*
X57676798Y24328370D01*
X57661469Y24323256D01*
X57649169Y24315644D01*
X57649168Y24315644D01*
X57524954Y24238778D01*
X57524951Y24238776D01*
X57512654Y24231166D01*
X57502439Y24220933D01*
X57502435Y24220930D01*
X57411390Y24129726D01*
X57389015Y24107312D01*
X57297185Y23958336D01*
X57292631Y23944606D01*
X57292630Y23944604D01*
X57252492Y23823590D01*
X57242090Y23792230D01*
X57240704Y23778701D01*
X57235379Y23726725D01*
X57231500Y23688868D01*
X57231500Y23396907D01*
X57217721Y23315227D01*
X57205320Y23279514D01*
X57174762Y23068764D01*
X56484425Y23068764D01*
X56480768Y23120409D01*
X56476038Y23187214D01*
X56476038Y23187217D01*
X56475201Y23199031D01*
X56440928Y23327387D01*
X56432500Y23391623D01*
X56432500Y23688868D01*
X56431030Y23703042D01*
X56423047Y23779973D01*
X56423047Y23779975D01*
X56421641Y23793521D01*
X56416301Y23809529D01*
X56370833Y23945812D01*
X56366256Y23959531D01*
X56347626Y23989637D01*
X56281778Y24096046D01*
X56281776Y24096049D01*
X56274166Y24108346D01*
X56263933Y24118561D01*
X56263930Y24118565D01*
X56160552Y24221763D01*
X56160551Y24221764D01*
X56150312Y24231985D01*
X56001336Y24323815D01*
X55987606Y24328369D01*
X55987604Y24328370D01*
X55848137Y24374629D01*
X55848136Y24374629D01*
X55835230Y24378910D01*
X55803033Y24382209D01*
X55738187Y24388853D01*
X55738179Y24388853D01*
X55731868Y24389500D01*
X55007132Y24389500D01*
X55000736Y24388836D01*
X55000729Y24388836D01*
X54916027Y24380047D01*
X54916025Y24380047D01*
X54902479Y24378641D01*
X54889566Y24374333D01*
X54889562Y24374332D01*
X54751798Y24328370D01*
X54736469Y24323256D01*
X54587654Y24231166D01*
X54577440Y24220934D01*
X54577431Y24220927D01*
X54545643Y24189083D01*
X54464909Y24135037D01*
X54369421Y24116000D01*
X47869767Y24116000D01*
X47822040Y24120617D01*
X47775398Y24129726D01*
X47769795Y24130000D01*
X47747763Y24130000D01*
X47718064Y24131778D01*
X47713818Y24132288D01*
X47693390Y24134742D01*
X47637396Y24130777D01*
X47635204Y24130622D01*
X47617617Y24130000D01*
X46826487Y24130000D01*
X46731199Y24148954D01*
X46650571Y24202777D01*
X46631552Y24221763D01*
X46631551Y24221764D01*
X46621312Y24231985D01*
X46472336Y24323815D01*
X46458606Y24328369D01*
X46458604Y24328370D01*
X46319137Y24374629D01*
X46319136Y24374629D01*
X46306230Y24378910D01*
X46274033Y24382209D01*
X46209187Y24388853D01*
X46209179Y24388853D01*
X46202868Y24389500D01*
X45478132Y24389500D01*
X45471736Y24388836D01*
X45471729Y24388836D01*
X45387027Y24380047D01*
X45387025Y24380047D01*
X45373479Y24378641D01*
X45360566Y24374333D01*
X45360562Y24374332D01*
X45222798Y24328370D01*
X45207469Y24323256D01*
X45195169Y24315644D01*
X45195168Y24315644D01*
X45070954Y24238778D01*
X45070951Y24238776D01*
X45058654Y24231166D01*
X45048439Y24220933D01*
X45048435Y24220930D01*
X44957390Y24129726D01*
X44935015Y24107312D01*
X44843185Y23958336D01*
X44838631Y23944606D01*
X44838630Y23944604D01*
X44798492Y23823590D01*
X44788090Y23792230D01*
X44786704Y23778701D01*
X44781379Y23726725D01*
X44777500Y23688868D01*
X44777500Y23396907D01*
X44763721Y23315227D01*
X44751320Y23279514D01*
X44720762Y23068764D01*
X44030425Y23068764D01*
X44026768Y23120409D01*
X44022038Y23187214D01*
X44022038Y23187217D01*
X44021201Y23199031D01*
X43986928Y23327387D01*
X43978500Y23391623D01*
X43978500Y23688868D01*
X43977030Y23703042D01*
X43969047Y23779973D01*
X43969047Y23779975D01*
X43967641Y23793521D01*
X43962301Y23809529D01*
X43916833Y23945812D01*
X43912256Y23959531D01*
X43893626Y23989637D01*
X43827778Y24096046D01*
X43827776Y24096049D01*
X43820166Y24108346D01*
X43809933Y24118561D01*
X43809930Y24118565D01*
X43706552Y24221763D01*
X43706551Y24221764D01*
X43696312Y24231985D01*
X43547336Y24323815D01*
X43533606Y24328369D01*
X43533604Y24328370D01*
X43394137Y24374629D01*
X43394136Y24374629D01*
X43381230Y24378910D01*
X43349033Y24382209D01*
X43284187Y24388853D01*
X43284179Y24388853D01*
X43277868Y24389500D01*
X42553132Y24389500D01*
X42546736Y24388836D01*
X42546729Y24388836D01*
X42462027Y24380047D01*
X42462025Y24380047D01*
X42448479Y24378641D01*
X42435566Y24374333D01*
X42435562Y24374332D01*
X42297798Y24328370D01*
X42282469Y24323256D01*
X42133654Y24231166D01*
X42123440Y24220934D01*
X42123431Y24220927D01*
X42091643Y24189083D01*
X42010909Y24135037D01*
X41915421Y24116000D01*
X29634110Y24116000D01*
X29538822Y24134954D01*
X29472401Y24175656D01*
X29399439Y24237972D01*
X29272689Y24315644D01*
X29203042Y24358324D01*
X29203037Y24358326D01*
X29194704Y24363433D01*
X28972863Y24455323D01*
X28908303Y24470822D01*
X28748890Y24509094D01*
X28748886Y24509095D01*
X28739379Y24511377D01*
X28500000Y24530217D01*
X28260621Y24511377D01*
X28251114Y24509095D01*
X28251110Y24509094D01*
X28091697Y24470822D01*
X28027137Y24455323D01*
X27805296Y24363433D01*
X27796963Y24358326D01*
X27796958Y24358324D01*
X27727311Y24315644D01*
X27600561Y24237972D01*
X27593125Y24231621D01*
X27478038Y24133327D01*
X27417973Y24082027D01*
X27411616Y24074584D01*
X27370657Y24026627D01*
X27262028Y23899439D01*
X27246303Y23873778D01*
X27141676Y23703042D01*
X27141674Y23703037D01*
X27136567Y23694704D01*
X27044677Y23472863D01*
X27042394Y23463353D01*
X26997457Y23276174D01*
X26988623Y23239379D01*
X26969783Y23000000D01*
X500000Y23000000D01*
X500000Y37456500D01*
X26969783Y37456500D01*
X26988623Y37217121D01*
X26990905Y37207614D01*
X26990906Y37207610D01*
X27002077Y37161079D01*
X27044677Y36983637D01*
X27048417Y36974607D01*
X27048418Y36974605D01*
X27074444Y36911774D01*
X27136567Y36761796D01*
X27141674Y36753463D01*
X27141676Y36753458D01*
X27181606Y36688299D01*
X27262028Y36557061D01*
X27313882Y36496348D01*
X27402729Y36392322D01*
X27417973Y36374473D01*
X27425416Y36368116D01*
X27496398Y36307492D01*
X27600561Y36218528D01*
X27608897Y36213420D01*
X27796958Y36098176D01*
X27796963Y36098174D01*
X27805296Y36093067D01*
X28027137Y36001177D01*
X28091697Y35985678D01*
X28251110Y35947406D01*
X28251114Y35947405D01*
X28260621Y35945123D01*
X28500000Y35926283D01*
X28739379Y35945123D01*
X28748886Y35947405D01*
X28748890Y35947406D01*
X28908303Y35985678D01*
X28972863Y36001177D01*
X29194704Y36093067D01*
X29203037Y36098174D01*
X29203042Y36098176D01*
X29391100Y36213418D01*
X29391103Y36213420D01*
X29399439Y36218528D01*
X29472401Y36280843D01*
X29557165Y36328313D01*
X29634110Y36340500D01*
X41926007Y36340500D01*
X42021295Y36321546D01*
X42101923Y36267723D01*
X42134688Y36235015D01*
X42283664Y36143185D01*
X42297394Y36138631D01*
X42297396Y36138630D01*
X42434765Y36093067D01*
X42449770Y36088090D01*
X42481967Y36084791D01*
X42546813Y36078147D01*
X42546821Y36078147D01*
X42553132Y36077500D01*
X43277868Y36077500D01*
X43284264Y36078164D01*
X43284271Y36078164D01*
X43368973Y36086953D01*
X43368975Y36086953D01*
X43382521Y36088359D01*
X43395434Y36092667D01*
X43395438Y36092668D01*
X43534812Y36139167D01*
X43548531Y36143744D01*
X43560832Y36151356D01*
X43685046Y36228222D01*
X43685049Y36228224D01*
X43697346Y36235834D01*
X43707561Y36246067D01*
X43707565Y36246070D01*
X43810763Y36349448D01*
X43810764Y36349449D01*
X43820985Y36359688D01*
X43912815Y36508664D01*
X43927910Y36554172D01*
X43963629Y36661863D01*
X43963629Y36661864D01*
X43967910Y36674770D01*
X43971209Y36706967D01*
X43977853Y36771813D01*
X43977853Y36771821D01*
X43978500Y36778132D01*
X43978500Y37064149D01*
X43991901Y37138070D01*
X43990621Y37138415D01*
X43993708Y37149855D01*
X43997869Y37160955D01*
X44033565Y37370894D01*
X44033307Y37382737D01*
X44030579Y37507764D01*
X44720762Y37507764D01*
X44721310Y37495924D01*
X44721310Y37495923D01*
X44728392Y37342922D01*
X44730608Y37295039D01*
X44751679Y37207610D01*
X44770569Y37129228D01*
X44777500Y37070889D01*
X44777500Y36778132D01*
X44778164Y36771736D01*
X44778164Y36771729D01*
X44786821Y36688299D01*
X44788359Y36673479D01*
X44792667Y36660566D01*
X44792668Y36660562D01*
X44813937Y36596812D01*
X44843744Y36507469D01*
X44851356Y36495169D01*
X44851356Y36495168D01*
X44926455Y36373811D01*
X44935834Y36358654D01*
X44946067Y36348439D01*
X44946070Y36348435D01*
X45048052Y36246631D01*
X45059688Y36235015D01*
X45208664Y36143185D01*
X45222394Y36138631D01*
X45222396Y36138630D01*
X45359765Y36093067D01*
X45374770Y36088090D01*
X45406967Y36084791D01*
X45471813Y36078147D01*
X45471821Y36078147D01*
X45478132Y36077500D01*
X46202868Y36077500D01*
X46209264Y36078164D01*
X46209271Y36078164D01*
X46293973Y36086953D01*
X46293975Y36086953D01*
X46307521Y36088359D01*
X46320434Y36092667D01*
X46320438Y36092668D01*
X46459812Y36139167D01*
X46473531Y36143744D01*
X46485832Y36151356D01*
X46610046Y36228222D01*
X46610049Y36228224D01*
X46622346Y36235834D01*
X46650379Y36263916D01*
X46731113Y36317963D01*
X46826602Y36337000D01*
X47572509Y36337000D01*
X47584929Y36336544D01*
X47594394Y36334935D01*
X47606233Y36335193D01*
X47606237Y36335193D01*
X47686339Y36336941D01*
X47691770Y36337000D01*
X47729702Y36337000D01*
X47735601Y36337563D01*
X47741507Y36337844D01*
X47741509Y36337801D01*
X47750872Y36338349D01*
X47759450Y36338536D01*
X47802590Y36339477D01*
X47802598Y36339477D01*
X47807297Y36339580D01*
X47808399Y36339817D01*
X47820057Y36340500D01*
X54380007Y36340500D01*
X54475295Y36321546D01*
X54555923Y36267723D01*
X54588688Y36235015D01*
X54737664Y36143185D01*
X54751394Y36138631D01*
X54751396Y36138630D01*
X54888765Y36093067D01*
X54903770Y36088090D01*
X54935967Y36084791D01*
X55000813Y36078147D01*
X55000821Y36078147D01*
X55007132Y36077500D01*
X55731868Y36077500D01*
X55738264Y36078164D01*
X55738271Y36078164D01*
X55822973Y36086953D01*
X55822975Y36086953D01*
X55836521Y36088359D01*
X55849434Y36092667D01*
X55849438Y36092668D01*
X55988812Y36139167D01*
X56002531Y36143744D01*
X56014832Y36151356D01*
X56139046Y36228222D01*
X56139049Y36228224D01*
X56151346Y36235834D01*
X56161561Y36246067D01*
X56161565Y36246070D01*
X56264763Y36349448D01*
X56264764Y36349449D01*
X56274985Y36359688D01*
X56366815Y36508664D01*
X56381910Y36554172D01*
X56417629Y36661863D01*
X56417629Y36661864D01*
X56421910Y36674770D01*
X56425209Y36706967D01*
X56431853Y36771813D01*
X56431853Y36771821D01*
X56432500Y36778132D01*
X56432500Y37064149D01*
X56445901Y37138070D01*
X56444621Y37138415D01*
X56447708Y37149855D01*
X56451869Y37160955D01*
X56487565Y37370894D01*
X56487307Y37382737D01*
X56484579Y37507764D01*
X57174762Y37507764D01*
X57175310Y37495924D01*
X57175310Y37495923D01*
X57182392Y37342922D01*
X57184608Y37295039D01*
X57205679Y37207610D01*
X57224569Y37129228D01*
X57231500Y37070889D01*
X57231500Y36778132D01*
X57232164Y36771736D01*
X57232164Y36771729D01*
X57240821Y36688299D01*
X57242359Y36673479D01*
X57246667Y36660566D01*
X57246668Y36660562D01*
X57267937Y36596812D01*
X57297744Y36507469D01*
X57305356Y36495169D01*
X57305356Y36495168D01*
X57380455Y36373811D01*
X57389834Y36358654D01*
X57400067Y36348439D01*
X57400070Y36348435D01*
X57502052Y36246631D01*
X57513688Y36235015D01*
X57662664Y36143185D01*
X57676394Y36138631D01*
X57676396Y36138630D01*
X57813765Y36093067D01*
X57828770Y36088090D01*
X57860967Y36084791D01*
X57925813Y36078147D01*
X57925821Y36078147D01*
X57932132Y36077500D01*
X58656868Y36077500D01*
X58663264Y36078164D01*
X58663271Y36078164D01*
X58747973Y36086953D01*
X58747975Y36086953D01*
X58761521Y36088359D01*
X58774434Y36092667D01*
X58774438Y36092668D01*
X58913812Y36139167D01*
X58927531Y36143744D01*
X58939832Y36151356D01*
X59064046Y36228222D01*
X59064049Y36228224D01*
X59076346Y36235834D01*
X59104379Y36263916D01*
X59185113Y36317963D01*
X59280602Y36337000D01*
X60026509Y36337000D01*
X60038929Y36336544D01*
X60048394Y36334935D01*
X60060233Y36335193D01*
X60060237Y36335193D01*
X60140339Y36336941D01*
X60145770Y36337000D01*
X60183702Y36337000D01*
X60189601Y36337563D01*
X60195507Y36337844D01*
X60195509Y36337801D01*
X60204872Y36338349D01*
X60213450Y36338536D01*
X60256590Y36339477D01*
X60256598Y36339477D01*
X60261297Y36339580D01*
X60262399Y36339817D01*
X60274057Y36340500D01*
X63293332Y36340500D01*
X63388620Y36321546D01*
X63423987Y36303467D01*
X63440666Y36293186D01*
X63517433Y36267723D01*
X63593864Y36242371D01*
X63593868Y36242370D01*
X63606772Y36238090D01*
X63620300Y36236704D01*
X63703815Y36228147D01*
X63703823Y36228147D01*
X63710134Y36227500D01*
X64309866Y36227500D01*
X64316262Y36228164D01*
X64316269Y36228164D01*
X64400971Y36236953D01*
X64400973Y36236953D01*
X64414519Y36238359D01*
X64427432Y36242667D01*
X64427436Y36242668D01*
X64566810Y36289167D01*
X64580529Y36293744D01*
X64592826Y36301354D01*
X64592829Y36301355D01*
X64679335Y36354887D01*
X64729345Y36385834D01*
X64783789Y36440373D01*
X64864523Y36494420D01*
X64959795Y36513457D01*
X65055100Y36494586D01*
X65135927Y36440680D01*
X65191689Y36385016D01*
X65204003Y36377426D01*
X65204005Y36377424D01*
X65320051Y36305893D01*
X65340666Y36293186D01*
X65417433Y36267723D01*
X65493864Y36242371D01*
X65493868Y36242370D01*
X65506772Y36238090D01*
X65520300Y36236704D01*
X65603815Y36228147D01*
X65603823Y36228147D01*
X65610134Y36227500D01*
X66209866Y36227500D01*
X66216262Y36228164D01*
X66216269Y36228164D01*
X66300971Y36236953D01*
X66300973Y36236953D01*
X66314519Y36238359D01*
X66327432Y36242667D01*
X66327436Y36242668D01*
X66466810Y36289167D01*
X66480529Y36293744D01*
X66492829Y36301355D01*
X66505929Y36307492D01*
X66506678Y36305893D01*
X66581215Y36333762D01*
X66621242Y36337000D01*
X67045557Y36337000D01*
X67140845Y36318046D01*
X67165132Y36306410D01*
X67172980Y36302113D01*
X67187176Y36291474D01*
X67203788Y36285247D01*
X67203789Y36285246D01*
X67306804Y36246628D01*
X67306805Y36246628D01*
X67321420Y36241149D01*
X67382623Y36234500D01*
X68699120Y36234500D01*
X70017376Y36234501D01*
X70078580Y36241149D01*
X70212824Y36291474D01*
X70227020Y36302113D01*
X70241261Y36309910D01*
X70333945Y36339044D01*
X70360836Y36340500D01*
X70913332Y36340500D01*
X71008620Y36321546D01*
X71043987Y36303467D01*
X71060666Y36293186D01*
X71137433Y36267723D01*
X71213864Y36242371D01*
X71213868Y36242370D01*
X71226772Y36238090D01*
X71240300Y36236704D01*
X71323815Y36228147D01*
X71323823Y36228147D01*
X71330134Y36227500D01*
X71929866Y36227500D01*
X71936262Y36228164D01*
X71936269Y36228164D01*
X72020971Y36236953D01*
X72020973Y36236953D01*
X72034519Y36238359D01*
X72047432Y36242667D01*
X72047436Y36242668D01*
X72186810Y36289167D01*
X72200529Y36293744D01*
X72212826Y36301354D01*
X72212829Y36301355D01*
X72299335Y36354887D01*
X72349345Y36385834D01*
X72403789Y36440373D01*
X72484523Y36494420D01*
X72579795Y36513457D01*
X72675100Y36494586D01*
X72755927Y36440680D01*
X72811689Y36385016D01*
X72824003Y36377426D01*
X72824005Y36377424D01*
X72940051Y36305893D01*
X72960666Y36293186D01*
X73037433Y36267723D01*
X73113864Y36242371D01*
X73113868Y36242370D01*
X73126772Y36238090D01*
X73140300Y36236704D01*
X73223815Y36228147D01*
X73223823Y36228147D01*
X73230134Y36227500D01*
X73829866Y36227500D01*
X73836262Y36228164D01*
X73836269Y36228164D01*
X73920971Y36236953D01*
X73920973Y36236953D01*
X73934519Y36238359D01*
X73947432Y36242667D01*
X73947436Y36242668D01*
X74086810Y36289167D01*
X74100529Y36293744D01*
X74112829Y36301355D01*
X74125929Y36307492D01*
X74126678Y36305893D01*
X74201215Y36333762D01*
X74241242Y36337000D01*
X75266509Y36337000D01*
X75278929Y36336544D01*
X75288394Y36334935D01*
X75300233Y36335193D01*
X75300237Y36335193D01*
X75380339Y36336941D01*
X75385770Y36337000D01*
X75423702Y36337000D01*
X75429601Y36337563D01*
X75435507Y36337844D01*
X75435509Y36337801D01*
X75444872Y36338349D01*
X75453450Y36338536D01*
X75496590Y36339477D01*
X75496598Y36339477D01*
X75501297Y36339580D01*
X75502399Y36339817D01*
X75514057Y36340500D01*
X78256007Y36340500D01*
X78351295Y36321546D01*
X78431923Y36267723D01*
X78464688Y36235015D01*
X78613664Y36143185D01*
X78627394Y36138631D01*
X78627396Y36138630D01*
X78764765Y36093067D01*
X78779770Y36088090D01*
X78811967Y36084791D01*
X78876813Y36078147D01*
X78876821Y36078147D01*
X78883132Y36077500D01*
X79607868Y36077500D01*
X79614264Y36078164D01*
X79614271Y36078164D01*
X79698973Y36086953D01*
X79698975Y36086953D01*
X79712521Y36088359D01*
X79725434Y36092667D01*
X79725438Y36092668D01*
X79864812Y36139167D01*
X79878531Y36143744D01*
X79890832Y36151356D01*
X80015046Y36228222D01*
X80015049Y36228224D01*
X80027346Y36235834D01*
X80037561Y36246067D01*
X80037565Y36246070D01*
X80140763Y36349448D01*
X80140764Y36349449D01*
X80150985Y36359688D01*
X80242815Y36508664D01*
X80257910Y36554172D01*
X80293629Y36661863D01*
X80293629Y36661864D01*
X80297910Y36674770D01*
X80301209Y36706967D01*
X80307853Y36771813D01*
X80307853Y36771821D01*
X80308500Y36778132D01*
X80308500Y37064149D01*
X80321901Y37138070D01*
X80320621Y37138415D01*
X80323708Y37149855D01*
X80327869Y37160955D01*
X80363565Y37370894D01*
X80363307Y37382737D01*
X80359179Y37571949D01*
X80359178Y37571954D01*
X80358920Y37583797D01*
X80314100Y37791980D01*
X80316493Y37792495D01*
X80308500Y37844460D01*
X80308500Y38127868D01*
X80305214Y38159542D01*
X80299047Y38218973D01*
X80299047Y38218975D01*
X80297641Y38232521D01*
X80292301Y38248529D01*
X80246833Y38384812D01*
X80242256Y38398531D01*
X80234181Y38411580D01*
X80157778Y38535046D01*
X80157776Y38535049D01*
X80150166Y38547346D01*
X80139933Y38557561D01*
X80139930Y38557565D01*
X80036552Y38660763D01*
X80036551Y38660764D01*
X80026312Y38670985D01*
X79877336Y38762815D01*
X79863606Y38767369D01*
X79863604Y38767370D01*
X79724137Y38813629D01*
X79724136Y38813629D01*
X79711230Y38817910D01*
X79679033Y38821209D01*
X79614187Y38827853D01*
X79614179Y38827853D01*
X79607868Y38828500D01*
X78883132Y38828500D01*
X78876736Y38827836D01*
X78876729Y38827836D01*
X78792027Y38819047D01*
X78792025Y38819047D01*
X78778479Y38817641D01*
X78765566Y38813333D01*
X78765562Y38813332D01*
X78636274Y38770198D01*
X78612469Y38762256D01*
X78600169Y38754644D01*
X78600168Y38754644D01*
X78475954Y38677778D01*
X78475951Y38677776D01*
X78463654Y38670166D01*
X78453436Y38659930D01*
X78453435Y38659929D01*
X78439116Y38645585D01*
X78358382Y38591537D01*
X78262892Y38572500D01*
X75477991Y38572500D01*
X75465571Y38572956D01*
X75456106Y38574565D01*
X75444267Y38574307D01*
X75444263Y38574307D01*
X75364161Y38572559D01*
X75358730Y38572500D01*
X75320798Y38572500D01*
X75314899Y38571937D01*
X75308993Y38571656D01*
X75308991Y38571699D01*
X75299628Y38571151D01*
X75291050Y38570964D01*
X75247910Y38570023D01*
X75247902Y38570023D01*
X75243203Y38569920D01*
X75242101Y38569683D01*
X75230443Y38569000D01*
X74240990Y38569000D01*
X74145702Y38587954D01*
X74114746Y38603778D01*
X74111654Y38605220D01*
X74099334Y38612814D01*
X74012015Y38641777D01*
X73946136Y38663629D01*
X73946132Y38663630D01*
X73933228Y38667910D01*
X73911209Y38670166D01*
X73836185Y38677853D01*
X73836177Y38677853D01*
X73829866Y38678500D01*
X73230134Y38678500D01*
X73223738Y38677836D01*
X73223731Y38677836D01*
X73139029Y38669047D01*
X73139027Y38669047D01*
X73125481Y38667641D01*
X73112568Y38663333D01*
X73112564Y38663332D01*
X72974800Y38617370D01*
X72959471Y38612256D01*
X72947174Y38604646D01*
X72947171Y38604645D01*
X72884979Y38566159D01*
X72810655Y38520166D01*
X72800437Y38509930D01*
X72756211Y38465627D01*
X72675477Y38411580D01*
X72580205Y38392543D01*
X72484900Y38411414D01*
X72404072Y38465320D01*
X72403765Y38465627D01*
X72348311Y38520984D01*
X72335997Y38528574D01*
X72335995Y38528576D01*
X72211654Y38605220D01*
X72211653Y38605220D01*
X72199334Y38612814D01*
X72112015Y38641777D01*
X72046136Y38663629D01*
X72046132Y38663630D01*
X72033228Y38667910D01*
X72011209Y38670166D01*
X71936185Y38677853D01*
X71936177Y38677853D01*
X71929866Y38678500D01*
X71330134Y38678500D01*
X71323738Y38677836D01*
X71323731Y38677836D01*
X71239029Y38669047D01*
X71239027Y38669047D01*
X71225481Y38667641D01*
X71212568Y38663333D01*
X71212564Y38663332D01*
X71074800Y38617370D01*
X71059471Y38612256D01*
X71047171Y38604645D01*
X71034071Y38598508D01*
X71032769Y38601286D01*
X70964446Y38575739D01*
X70924414Y38572500D01*
X68935267Y38572500D01*
X68893527Y38576023D01*
X68891492Y38576369D01*
X68852106Y38583066D01*
X68840268Y38582808D01*
X68840264Y38582808D01*
X68651053Y38578679D01*
X68651049Y38578678D01*
X68639203Y38578420D01*
X68627620Y38575926D01*
X68627609Y38575925D01*
X68621354Y38574578D01*
X68568947Y38569000D01*
X66620990Y38569000D01*
X66525702Y38587954D01*
X66494746Y38603778D01*
X66491654Y38605220D01*
X66479334Y38612814D01*
X66392015Y38641777D01*
X66326136Y38663629D01*
X66326132Y38663630D01*
X66313228Y38667910D01*
X66291209Y38670166D01*
X66216185Y38677853D01*
X66216177Y38677853D01*
X66209866Y38678500D01*
X65610134Y38678500D01*
X65603738Y38677836D01*
X65603731Y38677836D01*
X65519029Y38669047D01*
X65519027Y38669047D01*
X65505481Y38667641D01*
X65492568Y38663333D01*
X65492564Y38663332D01*
X65354800Y38617370D01*
X65339471Y38612256D01*
X65327174Y38604646D01*
X65327171Y38604645D01*
X65264979Y38566159D01*
X65190655Y38520166D01*
X65180437Y38509930D01*
X65136211Y38465627D01*
X65055477Y38411580D01*
X64960205Y38392543D01*
X64864900Y38411414D01*
X64784072Y38465320D01*
X64783765Y38465627D01*
X64728311Y38520984D01*
X64715997Y38528574D01*
X64715995Y38528576D01*
X64591654Y38605220D01*
X64591653Y38605220D01*
X64579334Y38612814D01*
X64492015Y38641777D01*
X64426136Y38663629D01*
X64426132Y38663630D01*
X64413228Y38667910D01*
X64391209Y38670166D01*
X64316185Y38677853D01*
X64316177Y38677853D01*
X64309866Y38678500D01*
X63710134Y38678500D01*
X63703738Y38677836D01*
X63703731Y38677836D01*
X63619029Y38669047D01*
X63619027Y38669047D01*
X63605481Y38667641D01*
X63592568Y38663333D01*
X63592564Y38663332D01*
X63454800Y38617370D01*
X63439471Y38612256D01*
X63427171Y38604645D01*
X63414071Y38598508D01*
X63412769Y38601286D01*
X63344446Y38575739D01*
X63304414Y38572500D01*
X60237991Y38572500D01*
X60225571Y38572956D01*
X60216106Y38574565D01*
X60204267Y38574307D01*
X60204263Y38574307D01*
X60124161Y38572559D01*
X60118730Y38572500D01*
X60080798Y38572500D01*
X60074899Y38571937D01*
X60068993Y38571656D01*
X60068991Y38571699D01*
X60059628Y38571151D01*
X60051050Y38570964D01*
X60007910Y38570023D01*
X60007902Y38570023D01*
X60003203Y38569920D01*
X60002101Y38569683D01*
X59990443Y38569000D01*
X59280487Y38569000D01*
X59185199Y38587954D01*
X59104571Y38641777D01*
X59085552Y38660763D01*
X59085551Y38660764D01*
X59075312Y38670985D01*
X58926336Y38762815D01*
X58912606Y38767369D01*
X58912604Y38767370D01*
X58773137Y38813629D01*
X58773136Y38813629D01*
X58760230Y38817910D01*
X58728033Y38821209D01*
X58663187Y38827853D01*
X58663179Y38827853D01*
X58656868Y38828500D01*
X57932132Y38828500D01*
X57925736Y38827836D01*
X57925729Y38827836D01*
X57841027Y38819047D01*
X57841025Y38819047D01*
X57827479Y38817641D01*
X57814566Y38813333D01*
X57814562Y38813332D01*
X57685274Y38770198D01*
X57661469Y38762256D01*
X57649169Y38754644D01*
X57649168Y38754644D01*
X57524954Y38677778D01*
X57524951Y38677776D01*
X57512654Y38670166D01*
X57502439Y38659933D01*
X57502435Y38659930D01*
X57400248Y38557565D01*
X57389015Y38546312D01*
X57297185Y38397336D01*
X57292631Y38383606D01*
X57292630Y38383604D01*
X57247828Y38248529D01*
X57242090Y38231230D01*
X57240704Y38217701D01*
X57232164Y38134344D01*
X57231500Y38127868D01*
X57231500Y37835907D01*
X57217721Y37754227D01*
X57205320Y37718514D01*
X57203619Y37706780D01*
X57185787Y37583797D01*
X57174762Y37507764D01*
X56484579Y37507764D01*
X56483179Y37571949D01*
X56483178Y37571954D01*
X56482920Y37583797D01*
X56438100Y37791980D01*
X56440493Y37792495D01*
X56432500Y37844460D01*
X56432500Y38127868D01*
X56429214Y38159542D01*
X56423047Y38218973D01*
X56423047Y38218975D01*
X56421641Y38232521D01*
X56416301Y38248529D01*
X56370833Y38384812D01*
X56366256Y38398531D01*
X56358181Y38411580D01*
X56281778Y38535046D01*
X56281776Y38535049D01*
X56274166Y38547346D01*
X56263933Y38557561D01*
X56263930Y38557565D01*
X56160552Y38660763D01*
X56160551Y38660764D01*
X56150312Y38670985D01*
X56001336Y38762815D01*
X55987606Y38767369D01*
X55987604Y38767370D01*
X55848137Y38813629D01*
X55848136Y38813629D01*
X55835230Y38817910D01*
X55803033Y38821209D01*
X55738187Y38827853D01*
X55738179Y38827853D01*
X55731868Y38828500D01*
X55007132Y38828500D01*
X55000736Y38827836D01*
X55000729Y38827836D01*
X54916027Y38819047D01*
X54916025Y38819047D01*
X54902479Y38817641D01*
X54889566Y38813333D01*
X54889562Y38813332D01*
X54760274Y38770198D01*
X54736469Y38762256D01*
X54724169Y38754644D01*
X54724168Y38754644D01*
X54599954Y38677778D01*
X54599951Y38677776D01*
X54587654Y38670166D01*
X54577436Y38659930D01*
X54577435Y38659929D01*
X54563116Y38645585D01*
X54482382Y38591537D01*
X54386892Y38572500D01*
X47783991Y38572500D01*
X47771571Y38572956D01*
X47762106Y38574565D01*
X47750267Y38574307D01*
X47750263Y38574307D01*
X47670161Y38572559D01*
X47664730Y38572500D01*
X47626798Y38572500D01*
X47620899Y38571937D01*
X47614993Y38571656D01*
X47614991Y38571699D01*
X47605628Y38571151D01*
X47597050Y38570964D01*
X47553910Y38570023D01*
X47553902Y38570023D01*
X47549203Y38569920D01*
X47548101Y38569683D01*
X47536443Y38569000D01*
X46826487Y38569000D01*
X46731199Y38587954D01*
X46650571Y38641777D01*
X46631552Y38660763D01*
X46631551Y38660764D01*
X46621312Y38670985D01*
X46472336Y38762815D01*
X46458606Y38767369D01*
X46458604Y38767370D01*
X46319137Y38813629D01*
X46319136Y38813629D01*
X46306230Y38817910D01*
X46274033Y38821209D01*
X46209187Y38827853D01*
X46209179Y38827853D01*
X46202868Y38828500D01*
X45478132Y38828500D01*
X45471736Y38827836D01*
X45471729Y38827836D01*
X45387027Y38819047D01*
X45387025Y38819047D01*
X45373479Y38817641D01*
X45360566Y38813333D01*
X45360562Y38813332D01*
X45231274Y38770198D01*
X45207469Y38762256D01*
X45195169Y38754644D01*
X45195168Y38754644D01*
X45070954Y38677778D01*
X45070951Y38677776D01*
X45058654Y38670166D01*
X45048439Y38659933D01*
X45048435Y38659930D01*
X44946248Y38557565D01*
X44935015Y38546312D01*
X44843185Y38397336D01*
X44838631Y38383606D01*
X44838630Y38383604D01*
X44793828Y38248529D01*
X44788090Y38231230D01*
X44786704Y38217701D01*
X44778164Y38134344D01*
X44777500Y38127868D01*
X44777500Y37835907D01*
X44763721Y37754227D01*
X44751320Y37718514D01*
X44749619Y37706780D01*
X44731787Y37583797D01*
X44720762Y37507764D01*
X44030579Y37507764D01*
X44029179Y37571949D01*
X44029178Y37571954D01*
X44028920Y37583797D01*
X43984100Y37791980D01*
X43986493Y37792495D01*
X43978500Y37844460D01*
X43978500Y38127868D01*
X43975214Y38159542D01*
X43969047Y38218973D01*
X43969047Y38218975D01*
X43967641Y38232521D01*
X43962301Y38248529D01*
X43916833Y38384812D01*
X43912256Y38398531D01*
X43904181Y38411580D01*
X43827778Y38535046D01*
X43827776Y38535049D01*
X43820166Y38547346D01*
X43809933Y38557561D01*
X43809930Y38557565D01*
X43706552Y38660763D01*
X43706551Y38660764D01*
X43696312Y38670985D01*
X43547336Y38762815D01*
X43533606Y38767369D01*
X43533604Y38767370D01*
X43394137Y38813629D01*
X43394136Y38813629D01*
X43381230Y38817910D01*
X43349033Y38821209D01*
X43284187Y38827853D01*
X43284179Y38827853D01*
X43277868Y38828500D01*
X42553132Y38828500D01*
X42546736Y38827836D01*
X42546729Y38827836D01*
X42462027Y38819047D01*
X42462025Y38819047D01*
X42448479Y38817641D01*
X42435566Y38813333D01*
X42435562Y38813332D01*
X42306274Y38770198D01*
X42282469Y38762256D01*
X42270169Y38754644D01*
X42270168Y38754644D01*
X42145954Y38677778D01*
X42145951Y38677776D01*
X42133654Y38670166D01*
X42123436Y38659930D01*
X42123435Y38659929D01*
X42109116Y38645585D01*
X42028382Y38591537D01*
X41932892Y38572500D01*
X29634110Y38572500D01*
X29538822Y38591454D01*
X29472401Y38632156D01*
X29399439Y38694472D01*
X29355287Y38721528D01*
X29203042Y38814824D01*
X29203037Y38814826D01*
X29194704Y38819933D01*
X28972863Y38911823D01*
X28908303Y38927322D01*
X28748890Y38965594D01*
X28748886Y38965595D01*
X28739379Y38967877D01*
X28500000Y38986717D01*
X28260621Y38967877D01*
X28251114Y38965595D01*
X28251110Y38965594D01*
X28091697Y38927322D01*
X28027137Y38911823D01*
X27805296Y38819933D01*
X27796963Y38814826D01*
X27796958Y38814824D01*
X27788556Y38809675D01*
X27600561Y38694472D01*
X27593125Y38688121D01*
X27439078Y38556552D01*
X27417973Y38538527D01*
X27411616Y38531084D01*
X27375263Y38488520D01*
X27262028Y38355939D01*
X27256920Y38347603D01*
X27141676Y38159542D01*
X27141674Y38159537D01*
X27136567Y38151204D01*
X27044677Y37929363D01*
X27042394Y37919853D01*
X27011695Y37791980D01*
X26988623Y37695879D01*
X26969783Y37456500D01*
X500000Y37456500D01*
X500000Y47978501D01*
X3818000Y47978501D01*
X3818319Y47960655D01*
X3818640Y47951667D01*
X3819595Y47933845D01*
X3838988Y47662687D01*
X3842805Y47627185D01*
X3845363Y47609397D01*
X3851699Y47574285D01*
X3908524Y47313064D01*
X3917344Y47278502D01*
X3922407Y47261256D01*
X3933685Y47227368D01*
X4027114Y46976875D01*
X4040779Y46943886D01*
X4041694Y46941883D01*
X4042995Y46939034D01*
X4065500Y46835589D01*
X4065500Y45784134D01*
X4066164Y45777738D01*
X4066164Y45777731D01*
X4074141Y45700856D01*
X4076359Y45679481D01*
X4131744Y45513471D01*
X4223834Y45364655D01*
X4347689Y45241016D01*
X4360003Y45233426D01*
X4360005Y45233424D01*
X4484346Y45156780D01*
X4496666Y45149186D01*
X4578069Y45122185D01*
X4649864Y45098371D01*
X4649868Y45098370D01*
X4662772Y45094090D01*
X4676300Y45092704D01*
X4759815Y45084147D01*
X4759823Y45084147D01*
X4766134Y45083500D01*
X9665000Y45083500D01*
X9760288Y45064546D01*
X9841070Y45010570D01*
X9895046Y44929788D01*
X9914000Y44834500D01*
X9914000Y44481000D01*
X9915541Y44441771D01*
X9933144Y44218101D01*
X9937758Y44179115D01*
X9940851Y44159586D01*
X9948511Y44121077D01*
X9998574Y43912553D01*
X10009235Y43874756D01*
X10015345Y43855953D01*
X10028929Y43819134D01*
X10110994Y43621010D01*
X10127438Y43585341D01*
X10136415Y43567724D01*
X10145752Y43551052D01*
X10175775Y43458656D01*
X10177501Y43429385D01*
X10177501Y43200134D01*
X10188359Y43095480D01*
X10192671Y43082556D01*
X10195546Y43069244D01*
X10193576Y43068819D01*
X10203514Y42990179D01*
X10177881Y42896466D01*
X10118337Y42819696D01*
X10033947Y42771557D01*
X9937559Y42759376D01*
X9895616Y42767680D01*
X9895423Y42766780D01*
X9882136Y42769629D01*
X9869228Y42773910D01*
X9852366Y42775638D01*
X9772185Y42783853D01*
X9772177Y42783853D01*
X9765866Y42784500D01*
X9679110Y42784500D01*
X9595222Y42799057D01*
X9575949Y42805953D01*
X9496541Y42830041D01*
X9415013Y42854772D01*
X9414993Y42854778D01*
X9412097Y42855656D01*
X9388396Y42861592D01*
X9367461Y42866836D01*
X9367446Y42866839D01*
X9364481Y42867582D01*
X9361496Y42868176D01*
X9361481Y42868179D01*
X9343256Y42871803D01*
X9343255Y42871803D01*
X9340264Y42872398D01*
X9337261Y42872843D01*
X9337240Y42872847D01*
X9311346Y42876687D01*
X9291750Y42879593D01*
X9179361Y42890663D01*
X9116678Y42896837D01*
X9116659Y42896839D01*
X9115173Y42896985D01*
X9113683Y42897095D01*
X9113659Y42897097D01*
X9092202Y42898680D01*
X9092184Y42898681D01*
X9090708Y42898790D01*
X9089229Y42898863D01*
X9089224Y42898863D01*
X9079846Y42899324D01*
X9079835Y42899324D01*
X9078358Y42899397D01*
X9076885Y42899433D01*
X9076863Y42899434D01*
X9062948Y42899776D01*
X9053813Y42900000D01*
X5478187Y42900000D01*
X5469052Y42899776D01*
X5455137Y42899434D01*
X5455115Y42899433D01*
X5453642Y42899397D01*
X5452165Y42899324D01*
X5452154Y42899324D01*
X5442776Y42898863D01*
X5442771Y42898863D01*
X5441292Y42898790D01*
X5439816Y42898681D01*
X5439798Y42898680D01*
X5418341Y42897097D01*
X5418317Y42897095D01*
X5416827Y42896985D01*
X5415341Y42896839D01*
X5415322Y42896837D01*
X5352639Y42890663D01*
X5240250Y42879593D01*
X5220654Y42876687D01*
X5194760Y42872847D01*
X5194739Y42872843D01*
X5191736Y42872398D01*
X5188745Y42871803D01*
X5188744Y42871803D01*
X5170519Y42868179D01*
X5170504Y42868176D01*
X5167519Y42867582D01*
X5164554Y42866839D01*
X5164539Y42866836D01*
X5143604Y42861592D01*
X5119903Y42855656D01*
X5117007Y42854778D01*
X5116987Y42854772D01*
X5035459Y42830041D01*
X4956051Y42805953D01*
X4936778Y42799057D01*
X4852890Y42784500D01*
X4766134Y42784500D01*
X4759738Y42783836D01*
X4759731Y42783836D01*
X4675029Y42775047D01*
X4675027Y42775047D01*
X4661481Y42773641D01*
X4648568Y42769333D01*
X4648564Y42769332D01*
X4509190Y42722833D01*
X4495471Y42718256D01*
X4483174Y42710646D01*
X4483171Y42710645D01*
X4404845Y42662175D01*
X4346655Y42626166D01*
X4336437Y42615930D01*
X4237001Y42516320D01*
X4223016Y42502311D01*
X4215426Y42489997D01*
X4215424Y42489995D01*
X4152266Y42387533D01*
X4131186Y42353334D01*
X4076090Y42187228D01*
X4065500Y42083866D01*
X4065500Y41951082D01*
X4054779Y41878803D01*
X4022990Y41774004D01*
X4016344Y41752096D01*
X4004420Y41704489D01*
X3999603Y41680269D01*
X3992406Y41631746D01*
X3992108Y41628718D01*
X3980692Y41512807D01*
X3975015Y41455172D01*
X3973210Y41430708D01*
X3972603Y41418358D01*
X3972000Y41393813D01*
X3972000Y39596187D01*
X3972603Y39571642D01*
X3973210Y39559292D01*
X3975015Y39534828D01*
X3975165Y39533306D01*
X3975168Y39533270D01*
X3981040Y39473650D01*
X3992406Y39358254D01*
X3999603Y39309731D01*
X4004420Y39285511D01*
X4016344Y39237903D01*
X4017222Y39235007D01*
X4017228Y39234987D01*
X4041959Y39153459D01*
X4066047Y39074051D01*
X4082583Y39027838D01*
X4092036Y39005018D01*
X4113010Y38960674D01*
X4193720Y38809675D01*
X4206449Y38788438D01*
X4217381Y38770198D01*
X4217393Y38770180D01*
X4218949Y38767583D01*
X4232667Y38747053D01*
X4261893Y38707646D01*
X4286357Y38677836D01*
X4367946Y38578420D01*
X4370520Y38575283D01*
X4403473Y38538926D01*
X4420926Y38521473D01*
X4457283Y38488520D01*
X4589646Y38379893D01*
X4629053Y38350667D01*
X4633639Y38347603D01*
X4647026Y38338657D01*
X4647042Y38338647D01*
X4649580Y38336951D01*
X4652222Y38335367D01*
X4652229Y38335363D01*
X4689021Y38313310D01*
X4689039Y38313300D01*
X4691668Y38311724D01*
X4694360Y38310285D01*
X4694376Y38310276D01*
X4783874Y38262438D01*
X4783890Y38262430D01*
X4842678Y38231008D01*
X4860674Y38222496D01*
X4884257Y38211341D01*
X4884277Y38211332D01*
X4887011Y38210039D01*
X4909830Y38200586D01*
X4912705Y38199557D01*
X4912716Y38199553D01*
X4938500Y38190327D01*
X4956051Y38184047D01*
X5119904Y38134344D01*
X5167519Y38122418D01*
X5170499Y38121825D01*
X5170514Y38121822D01*
X5188744Y38118197D01*
X5191736Y38117602D01*
X5194739Y38117157D01*
X5194760Y38117153D01*
X5220654Y38113313D01*
X5240250Y38110407D01*
X5352639Y38099337D01*
X5415322Y38093163D01*
X5415341Y38093161D01*
X5416827Y38093015D01*
X5418317Y38092905D01*
X5418341Y38092903D01*
X5439798Y38091320D01*
X5439816Y38091319D01*
X5441292Y38091210D01*
X5442771Y38091137D01*
X5442776Y38091137D01*
X5452154Y38090676D01*
X5452165Y38090676D01*
X5453642Y38090603D01*
X5455115Y38090567D01*
X5455137Y38090566D01*
X5469052Y38090224D01*
X5478187Y38090000D01*
X9053813Y38090000D01*
X9062948Y38090224D01*
X9076863Y38090566D01*
X9076885Y38090567D01*
X9078358Y38090603D01*
X9079835Y38090676D01*
X9079846Y38090676D01*
X9089224Y38091137D01*
X9089229Y38091137D01*
X9090708Y38091210D01*
X9092184Y38091319D01*
X9092202Y38091320D01*
X9113659Y38092903D01*
X9113683Y38092905D01*
X9115173Y38093015D01*
X9116659Y38093161D01*
X9116678Y38093163D01*
X9179361Y38099337D01*
X9291750Y38110407D01*
X9311346Y38113313D01*
X9337240Y38117153D01*
X9337261Y38117157D01*
X9340264Y38117602D01*
X9343256Y38118197D01*
X9361486Y38121822D01*
X9361501Y38121825D01*
X9364481Y38122418D01*
X9412096Y38134344D01*
X9575949Y38184047D01*
X9593500Y38190327D01*
X9619284Y38199553D01*
X9619295Y38199557D01*
X9622170Y38200586D01*
X9644989Y38210039D01*
X9647723Y38211332D01*
X9647743Y38211341D01*
X9671326Y38222496D01*
X9689322Y38231008D01*
X9748110Y38262430D01*
X9748126Y38262438D01*
X9837624Y38310276D01*
X9837640Y38310285D01*
X9840332Y38311724D01*
X9842961Y38313300D01*
X9842979Y38313310D01*
X9879771Y38335363D01*
X9879778Y38335367D01*
X9882420Y38336951D01*
X9884958Y38338647D01*
X9884974Y38338657D01*
X9898361Y38347603D01*
X9902947Y38350667D01*
X9942354Y38379893D01*
X10074717Y38488520D01*
X10111074Y38521473D01*
X10128527Y38538926D01*
X10161480Y38575283D01*
X10164055Y38578420D01*
X10245643Y38677836D01*
X10270107Y38707646D01*
X10299333Y38747053D01*
X10313051Y38767583D01*
X10314607Y38770180D01*
X10314619Y38770198D01*
X10325551Y38788438D01*
X10338280Y38809675D01*
X10418990Y38960674D01*
X10439964Y39005018D01*
X10449417Y39027838D01*
X10465953Y39074051D01*
X10514715Y39234801D01*
X10560513Y39320485D01*
X10635615Y39382120D01*
X10728586Y39410323D01*
X10825273Y39400801D01*
X10848280Y39392569D01*
X10851219Y39391351D01*
X10851235Y39391345D01*
X10854436Y39390019D01*
X10857713Y39388872D01*
X10857727Y39388867D01*
X10987938Y39343305D01*
X10987945Y39343303D01*
X10991228Y39342154D01*
X11018604Y39334267D01*
X11041733Y39327603D01*
X11041743Y39327600D01*
X11045094Y39326635D01*
X11059864Y39323263D01*
X11069191Y39321134D01*
X11069205Y39321131D01*
X11072601Y39320356D01*
X11076052Y39319770D01*
X11076060Y39319768D01*
X11099866Y39315723D01*
X11127890Y39310961D01*
X11131373Y39310569D01*
X11131377Y39310568D01*
X11277262Y39294130D01*
X11277295Y39294127D01*
X11278988Y39293936D01*
X11291807Y39292855D01*
X11305221Y39291723D01*
X11305255Y39291721D01*
X11306946Y39291578D01*
X11311025Y39291349D01*
X11319302Y39290884D01*
X11319327Y39290883D01*
X11321054Y39290786D01*
X11322810Y39290737D01*
X11322828Y39290736D01*
X11347361Y39290048D01*
X11347374Y39290048D01*
X11349079Y39290000D01*
X16605777Y39290000D01*
X16607403Y39290044D01*
X16607435Y39290044D01*
X16630902Y39290673D01*
X16630928Y39290674D01*
X16632568Y39290718D01*
X16640336Y39291135D01*
X16644332Y39291349D01*
X16644350Y39291350D01*
X16646042Y39291441D01*
X16647725Y39291577D01*
X16647731Y39291577D01*
X16662193Y39292742D01*
X16662195Y39292742D01*
X16672716Y39293590D01*
X16722361Y39306263D01*
X16783949Y39314000D01*
X20852921Y39314000D01*
X20854626Y39314048D01*
X20854639Y39314048D01*
X20879172Y39314736D01*
X20879190Y39314737D01*
X20880946Y39314786D01*
X20882673Y39314883D01*
X20882698Y39314884D01*
X20890841Y39315341D01*
X20895054Y39315578D01*
X20896745Y39315721D01*
X20896779Y39315723D01*
X20912774Y39317072D01*
X20923012Y39317936D01*
X20924736Y39318130D01*
X20924764Y39318133D01*
X21008808Y39327603D01*
X21071440Y39334660D01*
X21126716Y39344052D01*
X21131193Y39345074D01*
X21150810Y39349551D01*
X21150818Y39349553D01*
X21154222Y39350330D01*
X21192238Y39361282D01*
X21204742Y39364884D01*
X21204747Y39364886D01*
X21208105Y39365853D01*
X21211407Y39367009D01*
X21211415Y39367011D01*
X21339058Y39411676D01*
X21339066Y39411679D01*
X21342358Y39412831D01*
X21394156Y39434287D01*
X21397298Y39435800D01*
X21416436Y39445016D01*
X21416446Y39445021D01*
X21419575Y39446528D01*
X21468649Y39473650D01*
X21471596Y39475502D01*
X21471605Y39475507D01*
X21586146Y39547477D01*
X21586156Y39547484D01*
X21589096Y39549331D01*
X21604695Y39560399D01*
X21631976Y39579756D01*
X21631985Y39579763D01*
X21634835Y39581785D01*
X21656895Y39599378D01*
X21698695Y39636734D01*
X21799266Y39737305D01*
X21836622Y39779105D01*
X21854215Y39801165D01*
X21886669Y39846904D01*
X21901813Y39871005D01*
X21960493Y39964395D01*
X21960498Y39964404D01*
X21962350Y39967351D01*
X21989472Y40016425D01*
X21998640Y40035463D01*
X22000208Y40038718D01*
X22000213Y40038729D01*
X22001713Y40041844D01*
X22023169Y40093643D01*
X22059219Y40196665D01*
X22068997Y40224610D01*
X22068998Y40224614D01*
X22070146Y40227894D01*
X22085668Y40281770D01*
X22091947Y40309279D01*
X22101340Y40364562D01*
X22112784Y40466133D01*
X22116873Y40502419D01*
X22116874Y40502435D01*
X22117266Y40505911D01*
X22120410Y40561893D01*
X22120410Y40590107D01*
X22117266Y40646089D01*
X22101340Y40787438D01*
X22091947Y40842721D01*
X22085668Y40870230D01*
X22070146Y40924106D01*
X22023169Y41058357D01*
X22001713Y41110156D01*
X21989472Y41135575D01*
X21962350Y41184649D01*
X21946783Y41209424D01*
X21888523Y41302146D01*
X21888516Y41302156D01*
X21886669Y41305096D01*
X21875725Y41320520D01*
X21856244Y41347976D01*
X21856237Y41347985D01*
X21854215Y41350835D01*
X21836622Y41372895D01*
X21799266Y41414695D01*
X21698695Y41515266D01*
X21656895Y41552622D01*
X21634835Y41570215D01*
X21631985Y41572237D01*
X21631976Y41572244D01*
X21591939Y41600652D01*
X21591933Y41600656D01*
X21589096Y41602669D01*
X21586156Y41604516D01*
X21586146Y41604523D01*
X21471605Y41676493D01*
X21471596Y41676498D01*
X21468649Y41678350D01*
X21419575Y41705472D01*
X21416446Y41706979D01*
X21416436Y41706984D01*
X21397298Y41716200D01*
X21397295Y41716201D01*
X21394156Y41717713D01*
X21342358Y41739169D01*
X21339066Y41740321D01*
X21339058Y41740324D01*
X21211415Y41784989D01*
X21211407Y41784991D01*
X21208105Y41786147D01*
X21204747Y41787114D01*
X21204742Y41787116D01*
X21188674Y41791745D01*
X21154222Y41801670D01*
X21150818Y41802447D01*
X21150810Y41802449D01*
X21130129Y41807169D01*
X21126716Y41807948D01*
X21071440Y41817340D01*
X21002045Y41825159D01*
X20924764Y41833867D01*
X20924736Y41833870D01*
X20923012Y41834064D01*
X20912774Y41834928D01*
X20896779Y41836277D01*
X20896745Y41836279D01*
X20895054Y41836422D01*
X20890841Y41836659D01*
X20882698Y41837116D01*
X20882673Y41837117D01*
X20880946Y41837214D01*
X20879190Y41837263D01*
X20879172Y41837264D01*
X20854639Y41837952D01*
X20854626Y41837952D01*
X20852921Y41838000D01*
X11349079Y41838000D01*
X11347374Y41837952D01*
X11347361Y41837952D01*
X11322828Y41837264D01*
X11322810Y41837263D01*
X11321054Y41837214D01*
X11319327Y41837117D01*
X11319302Y41837116D01*
X11311159Y41836659D01*
X11306946Y41836422D01*
X11305255Y41836279D01*
X11305221Y41836277D01*
X11291807Y41835145D01*
X11278988Y41834064D01*
X11277295Y41833873D01*
X11277262Y41833870D01*
X11131377Y41817432D01*
X11131373Y41817431D01*
X11127890Y41817039D01*
X11100246Y41812342D01*
X11076060Y41808232D01*
X11076052Y41808230D01*
X11072601Y41807644D01*
X11069205Y41806869D01*
X11069191Y41806866D01*
X11059864Y41804737D01*
X11045094Y41801365D01*
X11041743Y41800400D01*
X11041733Y41800397D01*
X11021428Y41794547D01*
X10991228Y41785846D01*
X10987945Y41784697D01*
X10987938Y41784695D01*
X10857727Y41739133D01*
X10857713Y41739128D01*
X10854436Y41737981D01*
X10811092Y41720027D01*
X10715807Y41701074D01*
X10620519Y41720028D01*
X10539737Y41774004D01*
X10485760Y41854785D01*
X10477543Y41877744D01*
X10477237Y41878752D01*
X10466500Y41951082D01*
X10466500Y42083866D01*
X10455641Y42188519D01*
X10451332Y42201435D01*
X10448454Y42214761D01*
X10450424Y42215186D01*
X10440487Y42293820D01*
X10466120Y42387533D01*
X10525664Y42464303D01*
X10610054Y42512442D01*
X10706442Y42524623D01*
X10748383Y42516320D01*
X10748576Y42517220D01*
X10761863Y42514371D01*
X10774771Y42510090D01*
X10788299Y42508704D01*
X10871814Y42500147D01*
X10871822Y42500147D01*
X10878133Y42499500D01*
X11731448Y42499500D01*
X11750983Y42498732D01*
X11862841Y42489929D01*
X11882461Y42488773D01*
X11886748Y42488605D01*
X11891044Y42488436D01*
X11891058Y42488436D01*
X11892347Y42488385D01*
X11907395Y42488090D01*
X11910732Y42488024D01*
X11910735Y42488024D01*
X11911956Y42488000D01*
X25324000Y42488000D01*
X25430280Y42499426D01*
X25436798Y42500844D01*
X25436805Y42500845D01*
X25476100Y42509393D01*
X25476105Y42509394D01*
X25482622Y42510812D01*
X25584049Y42544570D01*
X25703772Y42621511D01*
X25710487Y42627329D01*
X25710493Y42627334D01*
X25750701Y42662175D01*
X25757428Y42668004D01*
X25804938Y42722833D01*
X25838963Y42762100D01*
X25838964Y42762101D01*
X25850625Y42775559D01*
X25886897Y42854983D01*
X25943721Y42933785D01*
X26026378Y42984844D01*
X26113190Y43000543D01*
X47280815Y43017894D01*
X86358161Y43049925D01*
X86453464Y43031049D01*
X86519892Y42990424D01*
X87252839Y42365654D01*
X88368454Y41414695D01*
X88392000Y41394624D01*
X88411725Y41394684D01*
X88411727Y41394684D01*
X89674226Y41398543D01*
X90349740Y41400608D01*
X90445085Y41381945D01*
X90526031Y41328216D01*
X90580254Y41247600D01*
X90599500Y41151609D01*
X90599501Y40790874D01*
X90599501Y40466134D01*
X90600165Y40459737D01*
X90600165Y40459731D01*
X90608953Y40375029D01*
X90610359Y40361480D01*
X90614671Y40348556D01*
X90614671Y40348555D01*
X90638074Y40278409D01*
X90665744Y40195471D01*
X90757834Y40046655D01*
X90849817Y39954833D01*
X90852916Y39951739D01*
X90906963Y39871005D01*
X90926000Y39775516D01*
X90926000Y38816816D01*
X90907046Y38721528D01*
X90853070Y38640746D01*
X90772288Y38586770D01*
X90677093Y38567816D01*
X87605143Y38566684D01*
X86206596Y38566168D01*
X86169143Y38569784D01*
X86169100Y38569426D01*
X86160200Y38570507D01*
X86151398Y38572226D01*
X86145795Y38572500D01*
X84113991Y38572500D01*
X84101571Y38572956D01*
X84092106Y38574565D01*
X84080267Y38574307D01*
X84080263Y38574307D01*
X84000161Y38572559D01*
X83994730Y38572500D01*
X83956798Y38572500D01*
X83950899Y38571937D01*
X83944993Y38571656D01*
X83944991Y38571699D01*
X83935628Y38571151D01*
X83927050Y38570964D01*
X83883910Y38570023D01*
X83883902Y38570023D01*
X83879203Y38569920D01*
X83878101Y38569683D01*
X83866443Y38569000D01*
X83156487Y38569000D01*
X83061199Y38587954D01*
X82980571Y38641777D01*
X82961552Y38660763D01*
X82961551Y38660764D01*
X82951312Y38670985D01*
X82802336Y38762815D01*
X82788606Y38767369D01*
X82788604Y38767370D01*
X82649137Y38813629D01*
X82649136Y38813629D01*
X82636230Y38817910D01*
X82604033Y38821209D01*
X82539187Y38827853D01*
X82539179Y38827853D01*
X82532868Y38828500D01*
X81808132Y38828500D01*
X81801736Y38827836D01*
X81801729Y38827836D01*
X81717027Y38819047D01*
X81717025Y38819047D01*
X81703479Y38817641D01*
X81690566Y38813333D01*
X81690562Y38813332D01*
X81561274Y38770198D01*
X81537469Y38762256D01*
X81525169Y38754644D01*
X81525168Y38754644D01*
X81400954Y38677778D01*
X81400951Y38677776D01*
X81388654Y38670166D01*
X81378439Y38659933D01*
X81378435Y38659930D01*
X81276248Y38557565D01*
X81265015Y38546312D01*
X81173185Y38397336D01*
X81168631Y38383606D01*
X81168630Y38383604D01*
X81123828Y38248529D01*
X81118090Y38231230D01*
X81116704Y38217701D01*
X81108164Y38134344D01*
X81107500Y38127868D01*
X81107500Y37835907D01*
X81093721Y37754227D01*
X81081320Y37718514D01*
X81079619Y37706780D01*
X81061787Y37583797D01*
X81050762Y37507764D01*
X81051310Y37495924D01*
X81051310Y37495923D01*
X81058392Y37342922D01*
X81060608Y37295039D01*
X81081679Y37207610D01*
X81100569Y37129228D01*
X81107500Y37070889D01*
X81107500Y36778132D01*
X81108164Y36771736D01*
X81108164Y36771729D01*
X81116821Y36688299D01*
X81118359Y36673479D01*
X81122667Y36660566D01*
X81122668Y36660562D01*
X81143937Y36596812D01*
X81173744Y36507469D01*
X81181356Y36495169D01*
X81181356Y36495168D01*
X81256455Y36373811D01*
X81265834Y36358654D01*
X81276067Y36348439D01*
X81276070Y36348435D01*
X81378052Y36246631D01*
X81389688Y36235015D01*
X81538664Y36143185D01*
X81552394Y36138631D01*
X81552396Y36138630D01*
X81689765Y36093067D01*
X81704770Y36088090D01*
X81736967Y36084791D01*
X81801813Y36078147D01*
X81801821Y36078147D01*
X81808132Y36077500D01*
X82532868Y36077500D01*
X82539264Y36078164D01*
X82539271Y36078164D01*
X82623973Y36086953D01*
X82623975Y36086953D01*
X82637521Y36088359D01*
X82650434Y36092667D01*
X82650438Y36092668D01*
X82789812Y36139167D01*
X82803531Y36143744D01*
X82815832Y36151356D01*
X82940046Y36228222D01*
X82940049Y36228224D01*
X82952346Y36235834D01*
X82980379Y36263916D01*
X83061113Y36317963D01*
X83156602Y36337000D01*
X83902509Y36337000D01*
X83914929Y36336544D01*
X83924394Y36334935D01*
X83936233Y36335193D01*
X83936237Y36335193D01*
X84016339Y36336941D01*
X84021770Y36337000D01*
X84059702Y36337000D01*
X84065601Y36337563D01*
X84071507Y36337844D01*
X84071509Y36337801D01*
X84080872Y36338349D01*
X84089450Y36338536D01*
X84132590Y36339477D01*
X84132598Y36339477D01*
X84137297Y36339580D01*
X84138399Y36339817D01*
X84150057Y36340500D01*
X85584825Y36340500D01*
X85623279Y36336787D01*
X85623308Y36337028D01*
X85632203Y36335951D01*
X85641013Y36334234D01*
X85646617Y36333962D01*
X85649665Y36333963D01*
X85649670Y36333963D01*
X91943656Y36336284D01*
X91963671Y36334844D01*
X91963672Y36334862D01*
X91975506Y36334283D01*
X91987236Y36332582D01*
X92045258Y36335268D01*
X92062508Y36336066D01*
X92073929Y36336332D01*
X92079508Y36336334D01*
X92095613Y36336340D01*
X92101497Y36336904D01*
X92101506Y36336904D01*
X92114929Y36338190D01*
X92127151Y36339058D01*
X92180679Y36341536D01*
X92188122Y36341880D01*
X92199961Y36342428D01*
X92211485Y36345206D01*
X92216512Y36345921D01*
X92237577Y36349449D01*
X92242602Y36350419D01*
X92254395Y36351548D01*
X92324312Y36372088D01*
X92336141Y36375248D01*
X92395461Y36389544D01*
X92395463Y36389545D01*
X92406987Y36392322D01*
X92417778Y36397228D01*
X92422575Y36398880D01*
X92442660Y36406354D01*
X92447351Y36408233D01*
X92458715Y36411571D01*
X92523469Y36444951D01*
X92534495Y36450295D01*
X92590053Y36475556D01*
X92590061Y36475561D01*
X92600843Y36480463D01*
X92610501Y36487314D01*
X92614884Y36489834D01*
X92633211Y36500982D01*
X92637468Y36503717D01*
X92647997Y36509145D01*
X92657308Y36516464D01*
X92657312Y36516467D01*
X92705275Y36554172D01*
X92715099Y36561511D01*
X92764866Y36596812D01*
X92764873Y36596818D01*
X92774534Y36603671D01*
X92782729Y36612231D01*
X92786548Y36615528D01*
X92802451Y36629953D01*
X92806098Y36633429D01*
X92815415Y36640753D01*
X92863164Y36695820D01*
X92871389Y36704848D01*
X92921794Y36757501D01*
X92928225Y36767461D01*
X92931344Y36771410D01*
X92944240Y36788592D01*
X92947162Y36792692D01*
X92954925Y36801645D01*
X92991382Y36864717D01*
X92997761Y36875153D01*
X93037309Y36936401D01*
X93041737Y36947388D01*
X93044053Y36951856D01*
X93053466Y36971166D01*
X93055565Y36975755D01*
X93061495Y36986014D01*
X93085367Y37054840D01*
X93089666Y37066316D01*
X93112482Y37122930D01*
X93116910Y37133917D01*
X93119182Y37145550D01*
X93120611Y37150376D01*
X93126182Y37171037D01*
X93127391Y37176006D01*
X93131277Y37187208D01*
X93135603Y37217121D01*
X93141702Y37259291D01*
X93143754Y37271374D01*
X93156007Y37334119D01*
X93156007Y37334121D01*
X93157726Y37342922D01*
X93158000Y37348525D01*
X93158000Y37354073D01*
X93159538Y37375453D01*
X93160062Y37386240D01*
X93161758Y37397969D01*
X93159483Y37446742D01*
X93158271Y37472706D01*
X93158000Y37484311D01*
X93158000Y39859545D01*
X93176954Y39954833D01*
X93224276Y40025721D01*
X93223798Y40026099D01*
X93228516Y40032073D01*
X93230779Y40035463D01*
X93232763Y40037450D01*
X93232764Y40037451D01*
X93242984Y40047689D01*
X93250576Y40060005D01*
X93327226Y40184354D01*
X93327228Y40184358D01*
X93334814Y40196665D01*
X93344083Y40224610D01*
X93385629Y40349863D01*
X93385630Y40349867D01*
X93389910Y40362771D01*
X93400500Y40466133D01*
X93400499Y41215866D01*
X93391548Y41302146D01*
X93391047Y41306971D01*
X93391046Y41306973D01*
X93389641Y41320520D01*
X93373415Y41369155D01*
X93361238Y41465543D01*
X93386874Y41559255D01*
X93433911Y41624391D01*
X94714228Y42899397D01*
X94923133Y43107435D01*
X95004026Y43161244D01*
X95098836Y43180000D01*
X102362000Y43180000D01*
X102372995Y43193731D01*
X103870952Y45064546D01*
X104395773Y45720000D01*
X104395770Y45737627D01*
X104394005Y55347477D01*
X104394005Y55347479D01*
X104394000Y55372000D01*
X101600000Y56658000D01*
X25454000Y56658000D01*
X25454000Y56653121D01*
X25418834Y56646126D01*
X25397496Y56637288D01*
X25333136Y56633262D01*
X25328000Y56634000D01*
X11656501Y56634000D01*
X11655401Y56633980D01*
X11655363Y56633980D01*
X11648110Y56633850D01*
X11638655Y56633681D01*
X11629667Y56633360D01*
X11628582Y56633302D01*
X11628540Y56633300D01*
X11620755Y56632882D01*
X11611843Y56632405D01*
X11610808Y56632331D01*
X11610760Y56632328D01*
X11562459Y56628873D01*
X11342856Y56613167D01*
X11342836Y56613165D01*
X11340680Y56613011D01*
X11305187Y56609195D01*
X11287404Y56606638D01*
X11285236Y56606247D01*
X11285231Y56606246D01*
X11254448Y56600692D01*
X11254419Y56600686D01*
X11252284Y56600301D01*
X11250151Y56599837D01*
X11250146Y56599836D01*
X10993195Y56543940D01*
X10993177Y56543936D01*
X10991059Y56543475D01*
X10988954Y56542938D01*
X10988921Y56542930D01*
X10965795Y56537028D01*
X10956494Y56534654D01*
X10939252Y56529592D01*
X10937119Y56528882D01*
X10907455Y56519010D01*
X10907434Y56519003D01*
X10905368Y56518315D01*
X10806766Y56481538D01*
X10656965Y56425666D01*
X10656942Y56425657D01*
X10654875Y56424886D01*
X10642319Y56419685D01*
X10623908Y56412059D01*
X10623888Y56412050D01*
X10621886Y56411221D01*
X10605539Y56403755D01*
X10589613Y56395783D01*
X10575638Y56388787D01*
X10575624Y56388780D01*
X10573635Y56387784D01*
X10339000Y56259663D01*
X10308304Y56241450D01*
X10293181Y56231731D01*
X10263862Y56211375D01*
X10262117Y56210069D01*
X10262098Y56210055D01*
X10114814Y56099798D01*
X10049850Y56051167D01*
X10022049Y56028763D01*
X10008463Y56016990D01*
X10006842Y56015481D01*
X10006829Y56015469D01*
X9983957Y55994173D01*
X9983938Y55994155D01*
X9982351Y55992677D01*
X9793323Y55803649D01*
X9791845Y55802062D01*
X9791827Y55802043D01*
X9770531Y55779171D01*
X9769010Y55777537D01*
X9757237Y55763951D01*
X9734833Y55736150D01*
X9733488Y55734353D01*
X9575945Y55523902D01*
X9575931Y55523883D01*
X9574625Y55522138D01*
X9554269Y55492819D01*
X9544550Y55477696D01*
X9543427Y55475804D01*
X9543420Y55475792D01*
X9532859Y55457992D01*
X9526337Y55447000D01*
X9398216Y55212365D01*
X9382245Y55180461D01*
X9374779Y55164114D01*
X9361114Y55131125D01*
X9267686Y54880635D01*
X9256410Y54846754D01*
X9251347Y54829509D01*
X9242525Y54794941D01*
X9185699Y54533716D01*
X9179363Y54498603D01*
X9176805Y54480815D01*
X9172988Y54445313D01*
X9153595Y54174155D01*
X9152640Y54156333D01*
X9152319Y54147345D01*
X9152000Y54129499D01*
X9152000Y51549000D01*
X9133046Y51453712D01*
X9079070Y51372930D01*
X8998288Y51318954D01*
X8903000Y51300000D01*
X6322501Y51300000D01*
X6321401Y51299980D01*
X6321363Y51299980D01*
X6314110Y51299850D01*
X6304655Y51299681D01*
X6295667Y51299360D01*
X6294582Y51299302D01*
X6294540Y51299300D01*
X6286755Y51298883D01*
X6277843Y51298405D01*
X6276808Y51298331D01*
X6276760Y51298328D01*
X6228459Y51294873D01*
X6008856Y51279167D01*
X6008836Y51279165D01*
X6006680Y51279011D01*
X5971187Y51275195D01*
X5953404Y51272638D01*
X5951236Y51272247D01*
X5951231Y51272246D01*
X5920448Y51266692D01*
X5920419Y51266686D01*
X5918284Y51266301D01*
X5916151Y51265837D01*
X5916146Y51265836D01*
X5659195Y51209940D01*
X5659177Y51209936D01*
X5657059Y51209475D01*
X5654954Y51208938D01*
X5654921Y51208930D01*
X5631795Y51203028D01*
X5622494Y51200654D01*
X5605252Y51195592D01*
X5603119Y51194882D01*
X5573455Y51185010D01*
X5573434Y51185003D01*
X5571368Y51184315D01*
X5472766Y51147538D01*
X5322965Y51091666D01*
X5322942Y51091657D01*
X5320875Y51090886D01*
X5308319Y51085685D01*
X5289908Y51078059D01*
X5289888Y51078050D01*
X5287886Y51077221D01*
X5271539Y51069755D01*
X5255613Y51061783D01*
X5241638Y51054787D01*
X5241624Y51054780D01*
X5239635Y51053784D01*
X5005000Y50925663D01*
X4974304Y50907450D01*
X4959181Y50897731D01*
X4929862Y50877375D01*
X4928117Y50876069D01*
X4928098Y50876055D01*
X4780814Y50765798D01*
X4715850Y50717167D01*
X4688049Y50694763D01*
X4674463Y50682990D01*
X4672842Y50681481D01*
X4672829Y50681469D01*
X4649957Y50660173D01*
X4649938Y50660155D01*
X4648351Y50658677D01*
X4459323Y50469649D01*
X4457845Y50468062D01*
X4457827Y50468043D01*
X4436531Y50445171D01*
X4435010Y50443537D01*
X4423237Y50429951D01*
X4400833Y50402150D01*
X4399488Y50400353D01*
X4241945Y50189902D01*
X4241931Y50189883D01*
X4240625Y50188138D01*
X4220269Y50158819D01*
X4210550Y50143696D01*
X4192337Y50113000D01*
X4064216Y49878365D01*
X4048245Y49846461D01*
X4040779Y49830114D01*
X4027114Y49797125D01*
X3933686Y49546635D01*
X3922410Y49512754D01*
X3917347Y49495509D01*
X3908525Y49460941D01*
X3851699Y49199716D01*
X3851314Y49197581D01*
X3851308Y49197552D01*
X3845754Y49166769D01*
X3845362Y49164596D01*
X3842805Y49146813D01*
X3838989Y49111322D01*
X3832609Y49022124D01*
X3829752Y49022328D01*
X3829751Y49022325D01*
X3832609Y49022121D01*
X3819595Y48840156D01*
X3818640Y48822333D01*
X3818319Y48813345D01*
X3818000Y48795499D01*
X3818000Y47978501D01*
X500000Y47978501D01*
X500000Y55437193D01*
X502622Y55468583D01*
X502536Y55468591D01*
X503396Y55478177D01*
X504991Y55487658D01*
X505142Y55500000D01*
X503779Y55509518D01*
X503153Y55519131D01*
X503769Y55519171D01*
X502214Y55550705D01*
X516650Y55881337D01*
X518543Y55902977D01*
X566946Y56270636D01*
X570718Y56292028D01*
X640535Y56606953D01*
X650983Y56654082D01*
X656604Y56675057D01*
X768116Y57028726D01*
X775545Y57049138D01*
X917454Y57391736D01*
X926634Y57411424D01*
X1097863Y57740351D01*
X1108724Y57759162D01*
X1307977Y58071928D01*
X1320437Y58089723D01*
X1546184Y58383922D01*
X1560146Y58400561D01*
X1661149Y58510787D01*
X1810682Y58673974D01*
X1826026Y58689318D01*
X2099442Y58939856D01*
X2116078Y58953816D01*
X2410277Y59179563D01*
X2428072Y59192023D01*
X2740838Y59391276D01*
X2759649Y59402137D01*
X3088582Y59573369D01*
X3108264Y59582546D01*
X3450862Y59724455D01*
X3471274Y59731884D01*
X3824943Y59843396D01*
X3845918Y59849017D01*
X3985018Y59879855D01*
X4207972Y59929282D01*
X4229364Y59933054D01*
X4597023Y59981457D01*
X4618662Y59983350D01*
X4945374Y59997615D01*
X4959279Y59997833D01*
X4976302Y59997625D01*
X4993829Y59994896D01*
X5016787Y59997898D01*
X5049072Y60000000D01*
X107341777Y60000000D01*
X107371765Y59997680D01*
G37*
%TD.AperFunction*%
%TD*%
M02*
