%TF.GenerationSoftware,KiCad,Pcbnew,8.0.6*%
%TF.CreationDate,2024-11-13T10:13:59+01:00*%
%TF.ProjectId,5uH_LISN,3575485f-4c49-4534-9e2e-6b696361645f,V1 R0*%
%TF.SameCoordinates,Original*%
%TF.FileFunction,Paste,Bot*%
%TF.FilePolarity,Positive*%
%FSLAX46Y46*%
G04 Gerber Fmt 4.6, Leading zero omitted, Abs format (unit mm)*
G04 Created by KiCad (PCBNEW 8.0.6) date 2024-11-13 10:13:59*
%MOMM*%
%LPD*%
G01*
G04 APERTURE LIST*
G04 Aperture macros list*
%AMRoundRect*
0 Rectangle with rounded corners*
0 $1 Rounding radius*
0 $2 $3 $4 $5 $6 $7 $8 $9 X,Y pos of 4 corners*
0 Add a 4 corners polygon primitive as box body*
4,1,4,$2,$3,$4,$5,$6,$7,$8,$9,$2,$3,0*
0 Add four circle primitives for the rounded corners*
1,1,$1+$1,$2,$3*
1,1,$1+$1,$4,$5*
1,1,$1+$1,$6,$7*
1,1,$1+$1,$8,$9*
0 Add four rect primitives between the rounded corners*
20,1,$1+$1,$2,$3,$4,$5,0*
20,1,$1+$1,$4,$5,$6,$7,0*
20,1,$1+$1,$6,$7,$8,$9,0*
20,1,$1+$1,$8,$9,$2,$3,0*%
G04 Aperture macros list end*
%ADD10RoundRect,0.250000X-2.450000X0.650000X-2.450000X-0.650000X2.450000X-0.650000X2.450000X0.650000X0*%
%ADD11RoundRect,0.250000X2.450000X-0.650000X2.450000X0.650000X-2.450000X0.650000X-2.450000X-0.650000X0*%
%ADD12RoundRect,0.249999X-1.100001X0.325001X-1.100001X-0.325001X1.100001X-0.325001X1.100001X0.325001X0*%
%ADD13RoundRect,0.249999X1.100001X-0.325001X1.100001X0.325001X-1.100001X0.325001X-1.100001X-0.325001X0*%
%ADD14R,0.914400X0.914400*%
%ADD15R,2.540000X1.016000*%
%ADD16RoundRect,0.249998X0.450002X-0.262502X0.450002X0.262502X-0.450002X0.262502X-0.450002X-0.262502X0*%
%ADD17RoundRect,0.249998X-0.450002X0.262502X-0.450002X-0.262502X0.450002X-0.262502X0.450002X0.262502X0*%
%ADD18RoundRect,0.249999X-2.125001X0.275001X-2.125001X-0.275001X2.125001X-0.275001X2.125001X0.275001X0*%
%ADD19RoundRect,0.249999X2.125001X-0.275001X2.125001X0.275001X-2.125001X0.275001X-2.125001X-0.275001X0*%
%ADD20RoundRect,0.249997X-0.312503X-0.625003X0.312503X-0.625003X0.312503X0.625003X-0.312503X0.625003X0*%
%ADD21RoundRect,0.249997X-0.625003X0.312503X-0.625003X-0.312503X0.625003X-0.312503X0.625003X0.312503X0*%
%ADD22RoundRect,0.249997X0.625003X-0.312503X0.625003X0.312503X-0.625003X0.312503X-0.625003X-0.312503X0*%
%ADD23RoundRect,0.250000X-0.250000X-0.475000X0.250000X-0.475000X0.250000X0.475000X-0.250000X0.475000X0*%
%ADD24RoundRect,0.249999X-0.650001X0.325001X-0.650001X-0.325001X0.650001X-0.325001X0.650001X0.325001X0*%
%ADD25RoundRect,0.249999X0.650001X-0.325001X0.650001X0.325001X-0.650001X0.325001X-0.650001X-0.325001X0*%
%ADD26R,3.600000X1.050000*%
%ADD27R,3.000000X3.000000*%
G04 APERTURE END LIST*
D10*
%TO.C,C1*%
X7266000Y46484000D03*
X7266000Y41384000D03*
%TD*%
D11*
%TO.C,C2*%
X7324000Y13927000D03*
X7324000Y19027000D03*
%TD*%
D12*
%TO.C,C5*%
X17628000Y43575000D03*
X17628000Y40625000D03*
%TD*%
D13*
%TO.C,C6*%
X12028000Y16814000D03*
X12028000Y19764000D03*
%TD*%
D12*
%TO.C,C7*%
X12028000Y43575000D03*
X12028000Y40625000D03*
%TD*%
D13*
%TO.C,C8*%
X17628000Y16864000D03*
X17628000Y19814000D03*
%TD*%
D14*
%TO.C,D1*%
X35589000Y35384000D03*
X33811000Y35384000D03*
X34700000Y37416000D03*
%TD*%
%TO.C,D2*%
X53489000Y35334000D03*
X51711000Y35334000D03*
X52600000Y37366000D03*
%TD*%
%TO.C,D3*%
X35589000Y20934000D03*
X33811000Y20934000D03*
X34700000Y22966000D03*
%TD*%
%TO.C,D4*%
X53489000Y20834000D03*
X51711000Y20834000D03*
X52600000Y22866000D03*
%TD*%
D15*
%TO.C,L6*%
X68700000Y37243000D03*
X68700000Y34957000D03*
%TD*%
D16*
%TO.C,R1*%
X39044000Y35631500D03*
X39044000Y37456500D03*
%TD*%
D17*
%TO.C,R2*%
X39044000Y24825000D03*
X39044000Y23000000D03*
%TD*%
D18*
%TO.C,R3*%
X7266000Y39303000D03*
X7266000Y36353000D03*
%TD*%
D19*
%TO.C,R4*%
X7324000Y21098000D03*
X7324000Y24048000D03*
%TD*%
D16*
%TO.C,R5*%
X41076000Y35631500D03*
X41076000Y37456500D03*
%TD*%
D17*
%TO.C,R6*%
X41076000Y24825000D03*
X41076000Y23000000D03*
%TD*%
D20*
%TO.C,R7*%
X42915500Y37453000D03*
X45840500Y37453000D03*
%TD*%
%TO.C,R8*%
X42915500Y23014000D03*
X45840500Y23014000D03*
%TD*%
D21*
%TO.C,R9*%
X20428000Y40512500D03*
X20428000Y37587500D03*
%TD*%
D22*
%TO.C,R10*%
X14828000Y19876500D03*
X14828000Y22801500D03*
%TD*%
D16*
%TO.C,R11*%
X47680000Y35631500D03*
X47680000Y37456500D03*
%TD*%
D17*
%TO.C,R12*%
X47680000Y24825000D03*
X47680000Y23000000D03*
%TD*%
D21*
%TO.C,R13*%
X14828000Y40512500D03*
X14828000Y37587500D03*
%TD*%
D22*
%TO.C,R14*%
X20428000Y19876500D03*
X20428000Y22801500D03*
%TD*%
D16*
%TO.C,R15*%
X49712000Y35631500D03*
X49712000Y37456500D03*
%TD*%
D17*
%TO.C,R16*%
X49712000Y24825000D03*
X49712000Y23000000D03*
%TD*%
D23*
%TO.C,C11*%
X64010000Y37453000D03*
X65910000Y37453000D03*
%TD*%
%TO.C,C12*%
X64010000Y23014000D03*
X65910000Y23014000D03*
%TD*%
%TO.C,C13*%
X71630000Y37453000D03*
X73530000Y37453000D03*
%TD*%
%TO.C,C14*%
X71630000Y23014000D03*
X73530000Y23014000D03*
%TD*%
D24*
%TO.C,C15*%
X92000000Y43791000D03*
X92000000Y40841000D03*
%TD*%
D25*
%TO.C,C16*%
X92042000Y16559000D03*
X92042000Y19509000D03*
%TD*%
D20*
%TO.C,R17*%
X55369500Y37453000D03*
X58294500Y37453000D03*
%TD*%
%TO.C,R18*%
X55369500Y23014000D03*
X58294500Y23014000D03*
%TD*%
D16*
%TO.C,R19*%
X60134000Y35631500D03*
X60134000Y37456500D03*
%TD*%
D17*
%TO.C,R20*%
X60134000Y24825000D03*
X60134000Y23000000D03*
%TD*%
D16*
%TO.C,R21*%
X62166000Y35631500D03*
X62166000Y37456500D03*
%TD*%
D17*
%TO.C,R22*%
X62166000Y24825000D03*
X62166000Y23000000D03*
%TD*%
D16*
%TO.C,R23*%
X75374000Y35631500D03*
X75374000Y37456500D03*
%TD*%
D17*
%TO.C,R24*%
X75374000Y24825000D03*
X75374000Y23000000D03*
%TD*%
D16*
%TO.C,R25*%
X77406000Y35631500D03*
X77406000Y37456500D03*
%TD*%
D17*
%TO.C,R26*%
X77406000Y24825000D03*
X77406000Y23000000D03*
%TD*%
D20*
%TO.C,R27*%
X79245500Y37453000D03*
X82170500Y37453000D03*
%TD*%
%TO.C,R28*%
X79245500Y23014000D03*
X82170500Y23014000D03*
%TD*%
D16*
%TO.C,R29*%
X86042000Y35637500D03*
X86042000Y37462500D03*
%TD*%
D17*
%TO.C,R30*%
X86042000Y24825000D03*
X86042000Y23000000D03*
%TD*%
D16*
%TO.C,R31*%
X84010000Y35637500D03*
X84010000Y37462500D03*
%TD*%
D17*
%TO.C,R32*%
X84010000Y24825000D03*
X84010000Y23000000D03*
%TD*%
D26*
%TO.C,GD1*%
X89924000Y32602000D03*
X89924000Y37452000D03*
%TD*%
%TO.C,GD2*%
X89924000Y27850000D03*
X89924000Y23000000D03*
%TD*%
D27*
%TO.C,L8*%
X40700000Y10000000D03*
X46300000Y10000000D03*
%TD*%
%TO.C,L7*%
X28700000Y10000000D03*
X34300000Y10000000D03*
%TD*%
%TO.C,L11*%
X77700000Y10000000D03*
X83300000Y10000000D03*
%TD*%
%TO.C,L10*%
X65200000Y10000000D03*
X70800000Y10000000D03*
%TD*%
%TO.C,L4*%
X65200000Y50500000D03*
X70800000Y50500000D03*
%TD*%
D15*
%TO.C,L12*%
X68800000Y23143000D03*
X68800000Y20857000D03*
%TD*%
D27*
%TO.C,L2*%
X40700000Y50500000D03*
X46300000Y50500000D03*
%TD*%
%TO.C,L1*%
X29300000Y50500000D03*
X34900000Y50500000D03*
%TD*%
%TO.C,L3*%
X53200000Y50500000D03*
X58800000Y50500000D03*
%TD*%
%TO.C,L9*%
X53200000Y10000000D03*
X58800000Y10000000D03*
%TD*%
%TO.C,L5*%
X77700000Y50500000D03*
X83300000Y50500000D03*
%TD*%
M02*
