%TF.GenerationSoftware,KiCad,Pcbnew,8.0.6*%
%TF.CreationDate,2024-11-13T10:13:59+01:00*%
%TF.ProjectId,5uH_LISN,3575485f-4c49-4534-9e2e-6b696361645f,V1 R0*%
%TF.SameCoordinates,Original*%
%TF.FileFunction,Legend,Bot*%
%TF.FilePolarity,Positive*%
%FSLAX46Y46*%
G04 Gerber Fmt 4.6, Leading zero omitted, Abs format (unit mm)*
G04 Created by KiCad (PCBNEW 8.0.6) date 2024-11-13 10:13:59*
%MOMM*%
%LPD*%
G01*
G04 APERTURE LIST*
G04 Aperture macros list*
%AMRoundRect*
0 Rectangle with rounded corners*
0 $1 Rounding radius*
0 $2 $3 $4 $5 $6 $7 $8 $9 X,Y pos of 4 corners*
0 Add a 4 corners polygon primitive as box body*
4,1,4,$2,$3,$4,$5,$6,$7,$8,$9,$2,$3,0*
0 Add four circle primitives for the rounded corners*
1,1,$1+$1,$2,$3*
1,1,$1+$1,$4,$5*
1,1,$1+$1,$6,$7*
1,1,$1+$1,$8,$9*
0 Add four rect primitives between the rounded corners*
20,1,$1+$1,$2,$3,$4,$5,0*
20,1,$1+$1,$4,$5,$6,$7,0*
20,1,$1+$1,$6,$7,$8,$9,0*
20,1,$1+$1,$8,$9,$2,$3,0*%
G04 Aperture macros list end*
%ADD10C,0.200000*%
%ADD11C,0.120000*%
%ADD12C,0.119380*%
%ADD13C,0.127000*%
%ADD14C,4.000000*%
%ADD15C,3.700000*%
%ADD16C,2.150000*%
%ADD17C,2.350000*%
%ADD18C,10.203200*%
%ADD19C,8.203200*%
%ADD20RoundRect,0.263889X-2.486111X0.686111X-2.486111X-0.686111X2.486111X-0.686111X2.486111X0.686111X0*%
%ADD21RoundRect,0.263889X2.486111X-0.686111X2.486111X0.686111X-2.486111X0.686111X-2.486111X-0.686111X0*%
%ADD22RoundRect,0.271738X-1.128262X0.353262X-1.128262X-0.353262X1.128262X-0.353262X1.128262X0.353262X0*%
%ADD23RoundRect,0.271738X1.128262X-0.353262X1.128262X0.353262X-1.128262X0.353262X-1.128262X-0.353262X0*%
%ADD24RoundRect,0.050000X-0.457200X-0.457200X0.457200X-0.457200X0.457200X0.457200X-0.457200X0.457200X0*%
%ADD25RoundRect,0.101600X1.270000X0.508000X-1.270000X0.508000X-1.270000X-0.508000X1.270000X-0.508000X0*%
%ADD26RoundRect,0.274388X0.475612X-0.288112X0.475612X0.288112X-0.475612X0.288112X-0.475612X-0.288112X0*%
%ADD27RoundRect,0.274388X-0.475612X0.288112X-0.475612X-0.288112X0.475612X-0.288112X0.475612X0.288112X0*%
%ADD28RoundRect,0.273808X-2.151192X0.301192X-2.151192X-0.301192X2.151192X-0.301192X2.151192X0.301192X0*%
%ADD29RoundRect,0.273808X2.151192X-0.301192X2.151192X0.301192X-2.151192X0.301192X-2.151192X-0.301192X0*%
%ADD30RoundRect,0.272219X-0.340281X-0.652781X0.340281X-0.652781X0.340281X0.652781X-0.340281X0.652781X0*%
%ADD31RoundRect,0.272219X-0.652781X0.340281X-0.652781X-0.340281X0.652781X-0.340281X0.652781X0.340281X0*%
%ADD32RoundRect,0.272219X0.652781X-0.340281X0.652781X0.340281X-0.652781X0.340281X-0.652781X-0.340281X0*%
%ADD33RoundRect,0.275000X-0.275000X-0.500000X0.275000X-0.500000X0.275000X0.500000X-0.275000X0.500000X0*%
%ADD34RoundRect,0.271738X-0.678262X0.353262X-0.678262X-0.353262X0.678262X-0.353262X0.678262X0.353262X0*%
%ADD35RoundRect,0.271738X0.678262X-0.353262X0.678262X0.353262X-0.678262X0.353262X-0.678262X-0.353262X0*%
%ADD36RoundRect,0.050000X1.800000X-0.525000X1.800000X0.525000X-1.800000X0.525000X-1.800000X-0.525000X0*%
%ADD37RoundRect,0.050000X-1.800000X0.525000X-1.800000X-0.525000X1.800000X-0.525000X1.800000X0.525000X0*%
%ADD38RoundRect,0.101600X1.500000X1.500000X-1.500000X1.500000X-1.500000X-1.500000X1.500000X-1.500000X0*%
G04 APERTURE END LIST*
D10*
X23761904Y56032781D02*
X23428571Y55032781D01*
X23428571Y55032781D02*
X23095238Y56032781D01*
X22238095Y55032781D02*
X22809523Y55032781D01*
X22523809Y55032781D02*
X22523809Y56032781D01*
X22523809Y56032781D02*
X22619047Y55889924D01*
X22619047Y55889924D02*
X22714285Y55794686D01*
X22714285Y55794686D02*
X22809523Y55747067D01*
X20476190Y55032781D02*
X20809523Y55508972D01*
X21047618Y55032781D02*
X21047618Y56032781D01*
X21047618Y56032781D02*
X20666666Y56032781D01*
X20666666Y56032781D02*
X20571428Y55985162D01*
X20571428Y55985162D02*
X20523809Y55937543D01*
X20523809Y55937543D02*
X20476190Y55842305D01*
X20476190Y55842305D02*
X20476190Y55699448D01*
X20476190Y55699448D02*
X20523809Y55604210D01*
X20523809Y55604210D02*
X20571428Y55556591D01*
X20571428Y55556591D02*
X20666666Y55508972D01*
X20666666Y55508972D02*
X21047618Y55508972D01*
X19857142Y56032781D02*
X19761904Y56032781D01*
X19761904Y56032781D02*
X19666666Y55985162D01*
X19666666Y55985162D02*
X19619047Y55937543D01*
X19619047Y55937543D02*
X19571428Y55842305D01*
X19571428Y55842305D02*
X19523809Y55651829D01*
X19523809Y55651829D02*
X19523809Y55413734D01*
X19523809Y55413734D02*
X19571428Y55223258D01*
X19571428Y55223258D02*
X19619047Y55128020D01*
X19619047Y55128020D02*
X19666666Y55080400D01*
X19666666Y55080400D02*
X19761904Y55032781D01*
X19761904Y55032781D02*
X19857142Y55032781D01*
X19857142Y55032781D02*
X19952380Y55080400D01*
X19952380Y55080400D02*
X19999999Y55128020D01*
X19999999Y55128020D02*
X20047618Y55223258D01*
X20047618Y55223258D02*
X20095237Y55413734D01*
X20095237Y55413734D02*
X20095237Y55651829D01*
X20095237Y55651829D02*
X20047618Y55842305D01*
X20047618Y55842305D02*
X19999999Y55937543D01*
X19999999Y55937543D02*
X19952380Y55985162D01*
X19952380Y55985162D02*
X19857142Y56032781D01*
X17809523Y55032781D02*
X18380951Y55032781D01*
X18095237Y55032781D02*
X18095237Y56032781D01*
X18095237Y56032781D02*
X18190475Y55889924D01*
X18190475Y55889924D02*
X18285713Y55794686D01*
X18285713Y55794686D02*
X18380951Y55747067D01*
X17428570Y55937543D02*
X17380951Y55985162D01*
X17380951Y55985162D02*
X17285713Y56032781D01*
X17285713Y56032781D02*
X17047618Y56032781D01*
X17047618Y56032781D02*
X16952380Y55985162D01*
X16952380Y55985162D02*
X16904761Y55937543D01*
X16904761Y55937543D02*
X16857142Y55842305D01*
X16857142Y55842305D02*
X16857142Y55747067D01*
X16857142Y55747067D02*
X16904761Y55604210D01*
X16904761Y55604210D02*
X17476189Y55032781D01*
X17476189Y55032781D02*
X16857142Y55032781D01*
X16428570Y55032781D02*
X16428570Y56032781D01*
X16428570Y56032781D02*
X16190475Y56032781D01*
X16190475Y56032781D02*
X16047618Y55985162D01*
X16047618Y55985162D02*
X15952380Y55889924D01*
X15952380Y55889924D02*
X15904761Y55794686D01*
X15904761Y55794686D02*
X15857142Y55604210D01*
X15857142Y55604210D02*
X15857142Y55461353D01*
X15857142Y55461353D02*
X15904761Y55270877D01*
X15904761Y55270877D02*
X15952380Y55175639D01*
X15952380Y55175639D02*
X16047618Y55080400D01*
X16047618Y55080400D02*
X16190475Y55032781D01*
X16190475Y55032781D02*
X16428570Y55032781D01*
X15047618Y55080400D02*
X15142856Y55032781D01*
X15142856Y55032781D02*
X15333332Y55032781D01*
X15333332Y55032781D02*
X15428570Y55080400D01*
X15428570Y55080400D02*
X15476189Y55175639D01*
X15476189Y55175639D02*
X15476189Y55556591D01*
X15476189Y55556591D02*
X15428570Y55651829D01*
X15428570Y55651829D02*
X15333332Y55699448D01*
X15333332Y55699448D02*
X15142856Y55699448D01*
X15142856Y55699448D02*
X15047618Y55651829D01*
X15047618Y55651829D02*
X14999999Y55556591D01*
X14999999Y55556591D02*
X14999999Y55461353D01*
X14999999Y55461353D02*
X15476189Y55366115D01*
X14142856Y55080400D02*
X14238094Y55032781D01*
X14238094Y55032781D02*
X14428570Y55032781D01*
X14428570Y55032781D02*
X14523808Y55080400D01*
X14523808Y55080400D02*
X14571427Y55128020D01*
X14571427Y55128020D02*
X14619046Y55223258D01*
X14619046Y55223258D02*
X14619046Y55508972D01*
X14619046Y55508972D02*
X14571427Y55604210D01*
X14571427Y55604210D02*
X14523808Y55651829D01*
X14523808Y55651829D02*
X14428570Y55699448D01*
X14428570Y55699448D02*
X14238094Y55699448D01*
X14238094Y55699448D02*
X14142856Y55651829D01*
X13761903Y55937543D02*
X13714284Y55985162D01*
X13714284Y55985162D02*
X13619046Y56032781D01*
X13619046Y56032781D02*
X13380951Y56032781D01*
X13380951Y56032781D02*
X13285713Y55985162D01*
X13285713Y55985162D02*
X13238094Y55937543D01*
X13238094Y55937543D02*
X13190475Y55842305D01*
X13190475Y55842305D02*
X13190475Y55747067D01*
X13190475Y55747067D02*
X13238094Y55604210D01*
X13238094Y55604210D02*
X13809522Y55032781D01*
X13809522Y55032781D02*
X13190475Y55032781D01*
X12571427Y56032781D02*
X12476189Y56032781D01*
X12476189Y56032781D02*
X12380951Y55985162D01*
X12380951Y55985162D02*
X12333332Y55937543D01*
X12333332Y55937543D02*
X12285713Y55842305D01*
X12285713Y55842305D02*
X12238094Y55651829D01*
X12238094Y55651829D02*
X12238094Y55413734D01*
X12238094Y55413734D02*
X12285713Y55223258D01*
X12285713Y55223258D02*
X12333332Y55128020D01*
X12333332Y55128020D02*
X12380951Y55080400D01*
X12380951Y55080400D02*
X12476189Y55032781D01*
X12476189Y55032781D02*
X12571427Y55032781D01*
X12571427Y55032781D02*
X12666665Y55080400D01*
X12666665Y55080400D02*
X12714284Y55128020D01*
X12714284Y55128020D02*
X12761903Y55223258D01*
X12761903Y55223258D02*
X12809522Y55413734D01*
X12809522Y55413734D02*
X12809522Y55651829D01*
X12809522Y55651829D02*
X12761903Y55842305D01*
X12761903Y55842305D02*
X12714284Y55937543D01*
X12714284Y55937543D02*
X12666665Y55985162D01*
X12666665Y55985162D02*
X12571427Y56032781D01*
X11857141Y55937543D02*
X11809522Y55985162D01*
X11809522Y55985162D02*
X11714284Y56032781D01*
X11714284Y56032781D02*
X11476189Y56032781D01*
X11476189Y56032781D02*
X11380951Y55985162D01*
X11380951Y55985162D02*
X11333332Y55937543D01*
X11333332Y55937543D02*
X11285713Y55842305D01*
X11285713Y55842305D02*
X11285713Y55747067D01*
X11285713Y55747067D02*
X11333332Y55604210D01*
X11333332Y55604210D02*
X11904760Y55032781D01*
X11904760Y55032781D02*
X11285713Y55032781D01*
X10333332Y55032781D02*
X10904760Y55032781D01*
X10619046Y55032781D02*
X10619046Y56032781D01*
X10619046Y56032781D02*
X10714284Y55889924D01*
X10714284Y55889924D02*
X10809522Y55794686D01*
X10809522Y55794686D02*
X10904760Y55747067D01*
D11*
%TO.C,C1*%
X9876000Y45349748D02*
X9876000Y42518252D01*
X4656000Y45349748D02*
X4656000Y42518252D01*
%TO.C,C2*%
X9934000Y15061252D02*
X9934000Y17892748D01*
X4714000Y15061252D02*
X4714000Y17892748D01*
%TO.C,C5*%
X16268000Y42811252D02*
X16268000Y41388748D01*
X18988000Y42811252D02*
X18988000Y41388748D01*
%TO.C,C6*%
X10668000Y17577748D02*
X10668000Y19000252D01*
X13388000Y17577748D02*
X13388000Y19000252D01*
%TO.C,C7*%
X10668000Y42811252D02*
X10668000Y41388748D01*
X13388000Y42811252D02*
X13388000Y41388748D01*
%TO.C,C8*%
X16268000Y17627748D02*
X16268000Y19050252D01*
X18988000Y17627748D02*
X18988000Y19050252D01*
D12*
%TO.C,D1*%
X33176000Y36019000D02*
X36224000Y36019000D01*
X36224000Y36781000D02*
X33176000Y36781000D01*
X33176000Y36781000D02*
X33176000Y36019000D01*
X36224000Y36019000D02*
X36224000Y36781000D01*
%TO.C,D2*%
X51076000Y35969000D02*
X54124000Y35969000D01*
X54124000Y36731000D02*
X51076000Y36731000D01*
X54124000Y35969000D02*
X54124000Y36731000D01*
X51076000Y36731000D02*
X51076000Y35969000D01*
%TO.C,D3*%
X36224000Y21569000D02*
X36224000Y22331000D01*
X36224000Y22331000D02*
X33176000Y22331000D01*
X33176000Y21569000D02*
X36224000Y21569000D01*
X33176000Y22331000D02*
X33176000Y21569000D01*
%TO.C,D4*%
X54124000Y22231000D02*
X51076000Y22231000D01*
X51076000Y21469000D02*
X54124000Y21469000D01*
X51076000Y22231000D02*
X51076000Y21469000D01*
X54124000Y21469000D02*
X54124000Y22231000D01*
D13*
%TO.C,L6*%
X70605000Y38005000D02*
X66795000Y38005000D01*
X70605000Y34195000D02*
X70605000Y38005000D01*
X66795000Y34195000D02*
X70605000Y34195000D01*
X66795000Y38005000D02*
X66795000Y34195000D01*
D11*
%TO.C,R1*%
X38309000Y36316936D02*
X38309000Y36771064D01*
X39779000Y36316936D02*
X39779000Y36771064D01*
%TO.C,R2*%
X38309000Y24139564D02*
X38309000Y23685436D01*
X39779000Y24139564D02*
X39779000Y23685436D01*
%TO.C,R3*%
X4856000Y38605064D02*
X4856000Y37050936D01*
X9676000Y38605064D02*
X9676000Y37050936D01*
%TO.C,R4*%
X4914000Y21795936D02*
X4914000Y23350064D01*
X9734000Y21795936D02*
X9734000Y23350064D01*
%TO.C,R5*%
X40341000Y36316936D02*
X40341000Y36771064D01*
X41811000Y36316936D02*
X41811000Y36771064D01*
%TO.C,R6*%
X41811000Y24139564D02*
X41811000Y23685436D01*
X40341000Y24139564D02*
X40341000Y23685436D01*
%TO.C,R7*%
X43650936Y38363000D02*
X45105064Y38363000D01*
X43650936Y36543000D02*
X45105064Y36543000D01*
%TO.C,R8*%
X43650936Y22104000D02*
X45105064Y22104000D01*
X43650936Y23924000D02*
X45105064Y23924000D01*
%TO.C,R9*%
X19518000Y39777064D02*
X19518000Y38322936D01*
X21338000Y39777064D02*
X21338000Y38322936D01*
%TO.C,R10*%
X13918000Y20611936D02*
X13918000Y22066064D01*
X15738000Y20611936D02*
X15738000Y22066064D01*
%TO.C,R11*%
X46945000Y36316936D02*
X46945000Y36771064D01*
X48415000Y36316936D02*
X48415000Y36771064D01*
%TO.C,R12*%
X48415000Y24139564D02*
X48415000Y23685436D01*
X46945000Y24139564D02*
X46945000Y23685436D01*
%TO.C,R13*%
X13918000Y39777064D02*
X13918000Y38322936D01*
X15738000Y39777064D02*
X15738000Y38322936D01*
%TO.C,R14*%
X19518000Y20611936D02*
X19518000Y22066064D01*
X21338000Y20611936D02*
X21338000Y22066064D01*
%TO.C,R15*%
X48977000Y36316936D02*
X48977000Y36771064D01*
X50447000Y36316936D02*
X50447000Y36771064D01*
%TO.C,R16*%
X50447000Y24139564D02*
X50447000Y23685436D01*
X48977000Y24139564D02*
X48977000Y23685436D01*
%TO.C,C11*%
X64698748Y38188000D02*
X65221252Y38188000D01*
X64698748Y36718000D02*
X65221252Y36718000D01*
%TO.C,C12*%
X64698748Y23749000D02*
X65221252Y23749000D01*
X64698748Y22279000D02*
X65221252Y22279000D01*
%TO.C,C13*%
X72318748Y36718000D02*
X72841252Y36718000D01*
X72318748Y38188000D02*
X72841252Y38188000D01*
%TO.C,C14*%
X72318748Y23749000D02*
X72841252Y23749000D01*
X72318748Y22279000D02*
X72841252Y22279000D01*
%TO.C,C15*%
X92910000Y43027252D02*
X92910000Y41604748D01*
X91090000Y43027252D02*
X91090000Y41604748D01*
%TO.C,C16*%
X91132000Y17322748D02*
X91132000Y18745252D01*
X92952000Y17322748D02*
X92952000Y18745252D01*
%TO.C,R17*%
X56104936Y38363000D02*
X57559064Y38363000D01*
X56104936Y36543000D02*
X57559064Y36543000D01*
%TO.C,R18*%
X56104936Y22104000D02*
X57559064Y22104000D01*
X56104936Y23924000D02*
X57559064Y23924000D01*
%TO.C,R19*%
X60869000Y36316936D02*
X60869000Y36771064D01*
X59399000Y36316936D02*
X59399000Y36771064D01*
%TO.C,R20*%
X59399000Y24139564D02*
X59399000Y23685436D01*
X60869000Y24139564D02*
X60869000Y23685436D01*
%TO.C,R21*%
X62901000Y36316936D02*
X62901000Y36771064D01*
X61431000Y36316936D02*
X61431000Y36771064D01*
%TO.C,R22*%
X61431000Y24139564D02*
X61431000Y23685436D01*
X62901000Y24139564D02*
X62901000Y23685436D01*
%TO.C,R23*%
X74639000Y36316936D02*
X74639000Y36771064D01*
X76109000Y36316936D02*
X76109000Y36771064D01*
%TO.C,R24*%
X74639000Y24139564D02*
X74639000Y23685436D01*
X76109000Y24139564D02*
X76109000Y23685436D01*
%TO.C,R25*%
X76671000Y36316936D02*
X76671000Y36771064D01*
X78141000Y36316936D02*
X78141000Y36771064D01*
%TO.C,R26*%
X78141000Y24139564D02*
X78141000Y23685436D01*
X76671000Y24139564D02*
X76671000Y23685436D01*
%TO.C,R27*%
X79980936Y38363000D02*
X81435064Y38363000D01*
X79980936Y36543000D02*
X81435064Y36543000D01*
%TO.C,R28*%
X79980936Y22104000D02*
X81435064Y22104000D01*
X79980936Y23924000D02*
X81435064Y23924000D01*
%TO.C,R29*%
X85307000Y36322936D02*
X85307000Y36777064D01*
X86777000Y36322936D02*
X86777000Y36777064D01*
%TO.C,R30*%
X86777000Y24139564D02*
X86777000Y23685436D01*
X85307000Y24139564D02*
X85307000Y23685436D01*
%TO.C,R31*%
X84745000Y36322936D02*
X84745000Y36777064D01*
X83275000Y36322936D02*
X83275000Y36777064D01*
%TO.C,R32*%
X83275000Y24139564D02*
X83275000Y23685436D01*
X84745000Y24139564D02*
X84745000Y23685436D01*
D13*
%TO.C,L8*%
X39900000Y6350000D02*
X47050000Y6350000D01*
X39900000Y13550000D02*
X47050000Y13550000D01*
%TO.C,L7*%
X27900000Y13550000D02*
X35050000Y13550000D01*
X27900000Y6350000D02*
X35050000Y6350000D01*
%TO.C,L11*%
X76900000Y13550000D02*
X84050000Y13550000D01*
X76900000Y6350000D02*
X84050000Y6350000D01*
%TO.C,L10*%
X64400000Y6350000D02*
X71550000Y6350000D01*
X64400000Y13550000D02*
X71550000Y13550000D01*
%TO.C,L4*%
X64400000Y46850000D02*
X71550000Y46850000D01*
X64400000Y54050000D02*
X71550000Y54050000D01*
%TO.C,L12*%
X66895000Y23905000D02*
X66895000Y20095000D01*
X70705000Y23905000D02*
X66895000Y23905000D01*
X70705000Y20095000D02*
X70705000Y23905000D01*
X66895000Y20095000D02*
X70705000Y20095000D01*
%TO.C,L2*%
X39900000Y54050000D02*
X47050000Y54050000D01*
X39900000Y46850000D02*
X47050000Y46850000D01*
%TO.C,L1*%
X28500000Y46850000D02*
X35650000Y46850000D01*
X28500000Y54050000D02*
X35650000Y54050000D01*
%TO.C,L3*%
X52400000Y46850000D02*
X59550000Y46850000D01*
X52400000Y54050000D02*
X59550000Y54050000D01*
%TO.C,L9*%
X52400000Y13550000D02*
X59550000Y13550000D01*
X52400000Y6350000D02*
X59550000Y6350000D01*
%TO.C,L5*%
X76900000Y46850000D02*
X84050000Y46850000D01*
X76900000Y54050000D02*
X84050000Y54050000D01*
%TD*%
%LPC*%
D14*
X107307978Y58434627D02*
G75*
G02*
X110357993Y55392958I319622J-2729527D01*
G01*
X2058333Y55400000D02*
G75*
G02*
X5100004Y58450034I2729567J319600D01*
G01*
X5100000Y2058333D02*
G75*
G02*
X2049966Y5100004I-319600J2729567D01*
G01*
X5624000Y58462000D02*
X107700000Y58462000D01*
X5624000Y2050000D02*
X107200000Y2050000D01*
X110350000Y55600000D02*
X110350000Y4462000D01*
D15*
X1824000Y55600000D02*
X1824000Y4462000D01*
D14*
X110350000Y5100000D02*
G75*
G02*
X107308338Y2050039I-2729500J-319600D01*
G01*
D16*
%TO.C,J1*%
X28500000Y37456500D03*
D17*
X25960000Y39996500D03*
X31040000Y34916500D03*
X25960000Y34916500D03*
X31040000Y39996500D03*
%TD*%
D16*
%TO.C,J2*%
X28500000Y23000000D03*
D17*
X25960000Y25540000D03*
X25960000Y20460000D03*
X31040000Y20460000D03*
X31040000Y25540000D03*
%TD*%
D18*
%TO.C,J4*%
X15000000Y30200000D03*
%TD*%
D19*
%TO.C,H1*%
X5150000Y5000000D03*
%TD*%
%TO.C,H2*%
X5150000Y55500000D03*
%TD*%
%TO.C,H3*%
X107250000Y55500000D03*
%TD*%
%TO.C,H4*%
X107250000Y5000000D03*
%TD*%
D18*
%TO.C,J3*%
X15000000Y49260000D03*
%TD*%
%TO.C,J5*%
X15000000Y11140000D03*
%TD*%
%TO.C,J6*%
X97400000Y30200000D03*
%TD*%
%TO.C,J7*%
X97400000Y49260000D03*
%TD*%
%TO.C,J8*%
X97400000Y11140000D03*
%TD*%
D20*
%TO.C,C1*%
X7266000Y46484000D03*
X7266000Y41384000D03*
%TD*%
D21*
%TO.C,C2*%
X7324000Y13927000D03*
X7324000Y19027000D03*
%TD*%
D22*
%TO.C,C5*%
X17628000Y43575000D03*
X17628000Y40625000D03*
%TD*%
D23*
%TO.C,C6*%
X12028000Y16814000D03*
X12028000Y19764000D03*
%TD*%
D22*
%TO.C,C7*%
X12028000Y43575000D03*
X12028000Y40625000D03*
%TD*%
D23*
%TO.C,C8*%
X17628000Y16864000D03*
X17628000Y19814000D03*
%TD*%
D24*
%TO.C,D1*%
X35589000Y35384000D03*
X33811000Y35384000D03*
X34700000Y37416000D03*
%TD*%
%TO.C,D2*%
X53489000Y35334000D03*
X51711000Y35334000D03*
X52600000Y37366000D03*
%TD*%
%TO.C,D3*%
X35589000Y20934000D03*
X33811000Y20934000D03*
X34700000Y22966000D03*
%TD*%
%TO.C,D4*%
X53489000Y20834000D03*
X51711000Y20834000D03*
X52600000Y22866000D03*
%TD*%
D25*
%TO.C,L6*%
X68700000Y37243000D03*
X68700000Y34957000D03*
%TD*%
D26*
%TO.C,R1*%
X39044000Y35631500D03*
X39044000Y37456500D03*
%TD*%
D27*
%TO.C,R2*%
X39044000Y24825000D03*
X39044000Y23000000D03*
%TD*%
D28*
%TO.C,R3*%
X7266000Y39303000D03*
X7266000Y36353000D03*
%TD*%
D29*
%TO.C,R4*%
X7324000Y21098000D03*
X7324000Y24048000D03*
%TD*%
D26*
%TO.C,R5*%
X41076000Y35631500D03*
X41076000Y37456500D03*
%TD*%
D27*
%TO.C,R6*%
X41076000Y24825000D03*
X41076000Y23000000D03*
%TD*%
D30*
%TO.C,R7*%
X42915500Y37453000D03*
X45840500Y37453000D03*
%TD*%
%TO.C,R8*%
X42915500Y23014000D03*
X45840500Y23014000D03*
%TD*%
D31*
%TO.C,R9*%
X20428000Y40512500D03*
X20428000Y37587500D03*
%TD*%
D32*
%TO.C,R10*%
X14828000Y19876500D03*
X14828000Y22801500D03*
%TD*%
D26*
%TO.C,R11*%
X47680000Y35631500D03*
X47680000Y37456500D03*
%TD*%
D27*
%TO.C,R12*%
X47680000Y24825000D03*
X47680000Y23000000D03*
%TD*%
D31*
%TO.C,R13*%
X14828000Y40512500D03*
X14828000Y37587500D03*
%TD*%
D32*
%TO.C,R14*%
X20428000Y19876500D03*
X20428000Y22801500D03*
%TD*%
D26*
%TO.C,R15*%
X49712000Y35631500D03*
X49712000Y37456500D03*
%TD*%
D27*
%TO.C,R16*%
X49712000Y24825000D03*
X49712000Y23000000D03*
%TD*%
D33*
%TO.C,C11*%
X64010000Y37453000D03*
X65910000Y37453000D03*
%TD*%
%TO.C,C12*%
X64010000Y23014000D03*
X65910000Y23014000D03*
%TD*%
%TO.C,C13*%
X71630000Y37453000D03*
X73530000Y37453000D03*
%TD*%
%TO.C,C14*%
X71630000Y23014000D03*
X73530000Y23014000D03*
%TD*%
D34*
%TO.C,C15*%
X92000000Y43791000D03*
X92000000Y40841000D03*
%TD*%
D35*
%TO.C,C16*%
X92042000Y16559000D03*
X92042000Y19509000D03*
%TD*%
D30*
%TO.C,R17*%
X55369500Y37453000D03*
X58294500Y37453000D03*
%TD*%
%TO.C,R18*%
X55369500Y23014000D03*
X58294500Y23014000D03*
%TD*%
D26*
%TO.C,R19*%
X60134000Y35631500D03*
X60134000Y37456500D03*
%TD*%
D27*
%TO.C,R20*%
X60134000Y24825000D03*
X60134000Y23000000D03*
%TD*%
D26*
%TO.C,R21*%
X62166000Y35631500D03*
X62166000Y37456500D03*
%TD*%
D27*
%TO.C,R22*%
X62166000Y24825000D03*
X62166000Y23000000D03*
%TD*%
D26*
%TO.C,R23*%
X75374000Y35631500D03*
X75374000Y37456500D03*
%TD*%
D27*
%TO.C,R24*%
X75374000Y24825000D03*
X75374000Y23000000D03*
%TD*%
D26*
%TO.C,R25*%
X77406000Y35631500D03*
X77406000Y37456500D03*
%TD*%
D27*
%TO.C,R26*%
X77406000Y24825000D03*
X77406000Y23000000D03*
%TD*%
D30*
%TO.C,R27*%
X79245500Y37453000D03*
X82170500Y37453000D03*
%TD*%
%TO.C,R28*%
X79245500Y23014000D03*
X82170500Y23014000D03*
%TD*%
D26*
%TO.C,R29*%
X86042000Y35637500D03*
X86042000Y37462500D03*
%TD*%
D27*
%TO.C,R30*%
X86042000Y24825000D03*
X86042000Y23000000D03*
%TD*%
D26*
%TO.C,R31*%
X84010000Y35637500D03*
X84010000Y37462500D03*
%TD*%
D27*
%TO.C,R32*%
X84010000Y24825000D03*
X84010000Y23000000D03*
%TD*%
D36*
%TO.C,GD1*%
X89924000Y32602000D03*
X89924000Y37452000D03*
%TD*%
D37*
%TO.C,GD2*%
X89924000Y27850000D03*
X89924000Y23000000D03*
%TD*%
D38*
%TO.C,L8*%
X40700000Y10000000D03*
X46300000Y10000000D03*
%TD*%
%TO.C,L7*%
X28700000Y10000000D03*
X34300000Y10000000D03*
%TD*%
%TO.C,L11*%
X77700000Y10000000D03*
X83300000Y10000000D03*
%TD*%
%TO.C,L10*%
X65200000Y10000000D03*
X70800000Y10000000D03*
%TD*%
%TO.C,L4*%
X65200000Y50500000D03*
X70800000Y50500000D03*
%TD*%
D25*
%TO.C,L12*%
X68800000Y23143000D03*
X68800000Y20857000D03*
%TD*%
D38*
%TO.C,L2*%
X40700000Y50500000D03*
X46300000Y50500000D03*
%TD*%
%TO.C,L1*%
X29300000Y50500000D03*
X34900000Y50500000D03*
%TD*%
%TO.C,L3*%
X53200000Y50500000D03*
X58800000Y50500000D03*
%TD*%
%TO.C,L9*%
X53200000Y10000000D03*
X58800000Y10000000D03*
%TD*%
%TO.C,L5*%
X77700000Y50500000D03*
X83300000Y50500000D03*
%TD*%
%LPD*%
M02*
