M48
; DRILL file {KiCad 8.0.6} date 2024-11-13T10:13:59+0100
; FORMAT={-:-/ absolute / inch / decimal}
; #@! TF.CreationDate,2024-11-13T10:13:59+01:00
; #@! TF.GenerationSoftware,Kicad,Pcbnew,8.0.6
; #@! TF.FileFunction,Plated,1,2,PTH
FMAT,2
INCH
; #@! TA.AperFunction,Plated,PTH,ViaDrill
T1C0.0157
; #@! TA.AperFunction,Plated,PTH,ComponentDrill
T2C0.0591
; #@! TA.AperFunction,Plated,PTH,ComponentDrill
T3C0.0669
; #@! TA.AperFunction,Plated,PTH,ComponentDrill
T4C0.1614
; #@! TA.AperFunction,Plated,PTH,ComponentDrill
T5C0.2047
%
G90
G05
T1
X0.05Y2.05
X0.05Y1.95
X0.05Y1.85
X0.05Y1.75
X0.05Y1.65
X0.05Y1.55
X0.05Y1.45
X0.05Y1.35
X0.05Y1.25
X0.05Y1.15
X0.05Y1.05
X0.05Y0.95
X0.05Y0.85
X0.05Y0.75
X0.05Y0.65
X0.05Y0.55
X0.05Y0.45
X0.05Y0.35
X0.0984Y2.2244
X0.0984Y2.1457
X0.0984Y0.2362
X0.0984Y0.1575
X0.124Y1.95
X0.124Y1.85
X0.124Y1.75
X0.124Y1.65
X0.124Y1.55
X0.124Y1.45
X0.124Y1.35
X0.124Y1.25
X0.124Y1.15
X0.124Y1.05
X0.124Y0.95
X0.124Y0.85
X0.124Y0.75
X0.124Y0.65
X0.124Y0.55
X0.124Y0.45
X0.1378Y2.2835
X0.1378Y2.0866
X0.1378Y0.2953
X0.1378Y0.0984
X0.1949Y1.3917
X0.1949Y0.9862
X0.2165Y2.3031
X0.2165Y2.0669
X0.2165Y0.315
X0.2165Y0.0787
X0.2323Y1.3917
X0.2323Y0.9862
X0.2697Y1.3917
X0.2697Y0.9862
X0.2756Y2.2835
X0.2756Y2.0866
X0.2756Y0.2953
X0.2756Y0.0984
X0.3071Y1.3917
X0.3071Y0.9862
X0.315Y2.2244
X0.315Y2.1457
X0.315Y0.2362
X0.315Y0.1575
X0.34Y2.34
X0.34Y2.2638
X0.3445Y1.3917
X0.3445Y0.9862
X0.36Y0.122
X0.36Y0.05
X0.3819Y1.3917
X0.3819Y0.9862
X0.44Y2.34
X0.44Y2.2638
X0.46Y0.122
X0.46Y0.05
X0.54Y2.34
X0.54Y2.2638
X0.5453Y1.437
X0.5453Y0.939
X0.56Y0.122
X0.56Y0.05
X0.5827Y1.437
X0.5827Y0.939
X0.6201Y1.437
X0.6201Y0.939
X0.64Y2.34
X0.64Y2.2638
X0.66Y0.122
X0.66Y0.05
X0.74Y2.34
X0.74Y2.2638
X0.76Y0.122
X0.76Y0.05
X0.7657Y0.939
X0.7677Y1.437
X0.8031Y0.939
X0.8051Y1.437
X0.84Y2.34
X0.84Y2.2638
X0.8406Y0.939
X0.8425Y1.437
X0.86Y0.122
X0.86Y0.05
X0.9248Y1.1182
X0.9248Y1.0182
X0.9248Y0.9182
X0.9248Y0.8182
X0.9252Y1.5599
X0.9252Y1.4599
X0.9252Y1.3599
X0.9252Y1.2599
X0.9252Y1.1894
X0.94Y2.34
X0.94Y2.2638
X0.96Y0.122
X0.96Y0.05
X0.97Y1.66
X0.97Y0.72
X1.04Y2.34
X1.04Y2.2638
X1.06Y0.122
X1.06Y0.05
X1.07Y1.66
X1.07Y1.19
X1.07Y0.72
X1.14Y2.34
X1.14Y2.2638
X1.16Y0.122
X1.16Y0.05
X1.17Y1.66
X1.17Y1.19
X1.17Y0.72
X1.24Y2.34
X1.24Y2.2638
X1.26Y0.122
X1.26Y0.05
X1.27Y1.66
X1.27Y1.19
X1.27Y0.72
X1.3307Y1.3583
X1.3307Y0.7894
X1.34Y2.34
X1.34Y2.2638
X1.36Y0.122
X1.36Y0.05
X1.37Y1.66
X1.37Y1.19
X1.37Y0.72
X1.4016Y1.3583
X1.4035Y0.7894
X1.44Y2.34
X1.44Y2.2638
X1.46Y0.122
X1.46Y0.05
X1.47Y1.66
X1.47Y1.19
X1.47Y0.72
X1.5197Y1.3622
X1.5197Y1.0138
X1.54Y2.34
X1.54Y2.2638
X1.5591Y1.3622
X1.5591Y1.0138
X1.56Y0.122
X1.56Y0.05
X1.57Y1.66
X1.57Y1.19
X1.57Y0.72
X1.5984Y1.3622
X1.5984Y1.0138
X1.6378Y1.3622
X1.6378Y1.0138
X1.64Y2.34
X1.64Y2.2638
X1.66Y0.122
X1.66Y0.05
X1.67Y1.66
X1.67Y1.19
X1.67Y0.72
X1.74Y2.34
X1.74Y2.2638
X1.76Y0.122
X1.76Y0.05
X1.77Y1.66
X1.77Y1.19
X1.77Y0.72
X1.84Y2.34
X1.84Y2.2638
X1.8583Y1.3642
X1.8583Y1.0157
X1.86Y0.122
X1.86Y0.05
X1.87Y1.66
X1.87Y1.19
X1.87Y0.72
X1.8976Y1.3642
X1.8976Y1.0157
X1.937Y1.3642
X1.937Y1.0157
X1.94Y2.34
X1.94Y2.2638
X1.96Y0.122
X1.96Y0.05
X1.97Y1.66
X1.97Y1.19
X1.97Y0.72
X1.9764Y1.3642
X1.9764Y1.0157
X2.0354Y1.3563
X2.0354Y0.7854
X2.04Y2.34
X2.04Y2.2638
X2.06Y0.122
X2.06Y0.05
X2.07Y1.66
X2.07Y1.19
X2.07Y0.72
X2.1063Y1.3563
X2.1063Y0.7854
X2.14Y2.34
X2.14Y2.2638
X2.16Y0.122
X2.16Y0.05
X2.17Y1.66
X2.17Y1.19
X2.17Y0.72
X2.24Y2.34
X2.24Y2.2638
X2.26Y0.122
X2.26Y0.05
X2.27Y1.66
X2.27Y1.19
X2.27Y0.72
X2.34Y2.34
X2.34Y2.2638
X2.3465Y1.3642
X2.3465Y1.0157
X2.36Y0.122
X2.36Y0.05
X2.37Y1.66
X2.37Y1.19
X2.37Y0.72
X2.3858Y1.3642
X2.3858Y1.0157
X2.4252Y1.3642
X2.4252Y1.0157
X2.44Y2.34
X2.44Y2.2638
X2.46Y0.122
X2.46Y0.05
X2.4646Y1.3642
X2.4646Y1.0157
X2.47Y1.66
X2.47Y1.19
X2.47Y0.72
X2.54Y2.34
X2.54Y2.2638
X2.56Y0.122
X2.56Y0.05
X2.57Y1.66
X2.57Y1.19
X2.57Y0.72
X2.64Y2.34
X2.64Y2.2638
X2.66Y0.122
X2.66Y0.05
X2.6634Y1.3386
X2.6673Y0.7854
X2.67Y1.66
X2.67Y1.19
X2.67Y0.72
X2.7047Y1.3386
X2.7087Y0.7854
X2.74Y2.34
X2.74Y2.2638
X2.7461Y1.3386
X2.75Y0.7854
X2.76Y0.122
X2.76Y0.05
X2.77Y1.66
X2.77Y1.19
X2.77Y0.72
X2.84Y2.34
X2.84Y2.2638
X2.86Y0.122
X2.86Y0.05
X2.87Y1.66
X2.87Y1.19
X2.87Y0.72
X2.94Y2.34
X2.94Y2.2638
X2.9449Y1.3642
X2.9449Y1.0157
X2.96Y0.122
X2.96Y0.05
X2.97Y1.66
X2.97Y1.19
X2.97Y0.72
X2.9843Y1.3642
X2.9843Y1.0157
X3.0236Y1.3642
X3.0236Y1.0157
X3.04Y2.34
X3.04Y2.2638
X3.06Y0.122
X3.06Y0.05
X3.063Y1.3642
X3.063Y1.0157
X3.07Y1.66
X3.07Y1.19
X3.07Y0.72
X3.14Y2.34
X3.14Y2.2638
X3.16Y0.122
X3.16Y0.05
X3.17Y1.66
X3.17Y1.19
X3.17Y0.72
X3.24Y2.34
X3.24Y2.2638
X3.26Y0.122
X3.26Y0.05
X3.27Y1.66
X3.27Y1.19
X3.27Y0.72
X3.2913Y1.3642
X3.2913Y1.0157
X3.3307Y1.3642
X3.3307Y1.0157
X3.34Y2.34
X3.34Y2.2638
X3.36Y1.66
X3.36Y0.72
X3.36Y0.122
X3.36Y0.05
X3.37Y1.19
X3.3701Y1.3642
X3.3701Y1.0157
X3.4094Y1.3642
X3.4094Y1.0157
X3.44Y2.34
X3.44Y2.2638
X3.46Y0.122
X3.46Y0.05
X3.47Y1.19
X3.5Y1.248
X3.5Y1.1319
X3.54Y2.34
X3.54Y2.2638
X3.5413Y1.248
X3.5413Y1.1319
X3.56Y0.122
X3.56Y0.05
X3.57Y1.19
X3.5827Y1.248
X3.5827Y1.1319
X3.64Y2.34
X3.64Y2.2638
X3.66Y0.122
X3.66Y0.05
X3.74Y2.34
X3.74Y2.2638
X3.76Y0.122
X3.76Y0.05
X3.7696Y0.9188
X3.7696Y0.8188
X3.7696Y0.7188
X3.77Y1.6605
X3.77Y1.5605
X3.77Y1.4605
X3.8189Y0.7087
X3.8386Y1.6732
X3.84Y2.34
X3.84Y2.2638
X3.86Y0.122
X3.86Y0.05
X3.8976Y0.7087
X3.937Y1.6732
X3.94Y2.34
X3.94Y2.2638
X3.96Y0.122
X3.96Y0.05
X3.9764Y0.7087
X4.0354Y1.6732
X4.04Y2.34
X4.04Y2.2638
X4.0551Y0.7087
X4.06Y0.122
X4.06Y0.05
X4.0945Y0.6299
X4.1142Y2.2244
X4.1142Y2.1457
X4.1142Y0.2362
X4.1142Y0.1575
X4.1339Y1.9685
X4.1339Y1.8701
X4.1339Y1.7717
X4.1339Y0.5906
X4.1339Y0.4921
X4.1339Y0.3937
X4.1535Y2.2835
X4.1535Y2.0866
X4.1535Y0.2953
X4.1535Y0.0984
X4.2323Y2.3031
X4.2323Y2.0669
X4.2323Y0.315
X4.2323Y0.0787
X4.2913Y2.2835
X4.2913Y2.0866
X4.2913Y0.2953
X4.2913Y0.0984
X4.2972Y1.9504
X4.2972Y1.8504
X4.2972Y1.7504
X4.2972Y1.6504
X4.2972Y1.5504
X4.2972Y1.4504
X4.2972Y1.3504
X4.2972Y1.2504
X4.2972Y1.1504
X4.2972Y1.0504
X4.2972Y0.9504
X4.2972Y0.8504
X4.2972Y0.7504
X4.2972Y0.6504
X4.2972Y0.5504
X4.2972Y0.4504
X4.3307Y2.2244
X4.3307Y2.1457
X4.3307Y0.2362
X4.3307Y0.1575
X4.38Y2.05
X4.38Y1.95
X4.38Y1.85
X4.38Y1.75
X4.38Y1.65
X4.38Y1.55
X4.38Y1.45
X4.38Y1.35
X4.38Y1.25
X4.38Y1.15
X4.38Y1.05
X4.38Y0.95
X4.38Y0.85
X4.38Y0.75
X4.38Y0.65
X4.38Y0.55
X4.38Y0.45
X4.38Y0.35
T2
X1.122Y1.4747
X1.122Y0.9055
T3
X1.022Y1.5747
X1.022Y1.3747
X1.022Y1.0055
X1.022Y0.8055
X1.222Y1.5747
X1.222Y1.3747
X1.222Y1.0055
X1.222Y0.8055
T4
X0.2028Y2.185
X0.2028Y0.1969
X4.2224Y2.185
X4.2224Y0.1969
T5
X0.5906Y1.9394
X0.5906Y1.189
X0.5906Y0.4386
X3.8346Y1.9394
X3.8346Y1.189
X3.8346Y0.4386
M30
